<svg id="Layer_1" data-name="Layer 1"
  xmlns="http://www.w3.org/2000/svg" viewBox="0 0 48 48">
  <title>Artboard 26</title>
  <path d="M43.33,13.29C10.83,3.16,13.77,4,13.33,4A3.5,3.5,0,0,0,7,5.35L3.55,25.05A3.51,3.51,0,0,0,9,28.53c.36.08.61,0,3,.17V42.5a3.5,3.5,0,0,0,7,0V42H30v.5a3.5,3.5,0,0,0,7,0V29.85l3.38.16h0a1,1,0,0,0,1-.82L44,14.41A1,1,0,0,0,43.33,13.29ZM18.4,20.55A3.48,3.48,0,0,0,13.1,20l-1.51-.16L12.78,13,41,19.91,40.47,23ZM30,36H19V29l11,.51ZM41.36,17.94,13.13,11.06C13.74,7.5,13.89,7,14,6.2l27.94,8.73ZM6.74,27.13h0A1.5,1.5,0,0,1,5.52,25.4L9,5.7a1.5,1.5,0,1,1,3,.52L8.48,25.92A1.5,1.5,0,0,1,6.74,27.13Zm3.61-.51c.18-.64,0,.19.89-4.85l.82.09a4.48,4.48,0,0,0-.06.64v4.2ZM17,42.5a1.5,1.5,0,0,1-3,0v-20a1.5,1.5,0,0,1,3,0ZM19,40V38H30v2Zm16,2.5a1.5,1.5,0,0,1-3,0v-14a1.5,1.5,0,0,1,3,0Zm1.93-14.65a3.48,3.48,0,0,0-6.78-.31L19,27V22.63L40.12,25l-.53,3Z"/>
</svg>