<svg width="24" height="24" viewBox="0 0 24 24" fill="none"
  xmlns="http://www.w3.org/2000/svg">
  <path d="M9.75 10.5V16.5C9.75 16.6989 9.82902 16.8897 9.96967 17.0303C10.1103 17.171 10.3011 17.25 10.5 17.25C10.6989 17.25 10.8897 17.171 11.0303 17.0303C11.171 16.8897 11.25 16.6989 11.25 16.5V10.5C11.25 10.3011 11.171 10.1103 11.0303 9.96967C10.8897 9.82902 10.6989 9.75 10.5 9.75C10.3011 9.75 10.1103 9.82902 9.96967 9.96967C9.82902 10.1103 9.75 10.3011 9.75 10.5Z" fill="black"/>
  <path d="M13.5 9.75C13.6989 9.75 13.8897 9.82902 14.0303 9.96967C14.171 10.1103 14.25 10.3011 14.25 10.5V16.5C14.25 16.6989 14.171 16.8897 14.0303 17.0303C13.8897 17.171 13.6989 17.25 13.5 17.25C13.3011 17.25 13.1103 17.171 12.9697 17.0303C12.829 16.8897 12.75 16.6989 12.75 16.5V10.5C12.75 10.3011 12.829 10.1103 12.9697 9.96967C13.1103 9.82902 13.3011 9.75 13.5 9.75Z" fill="black"/>
  <path d="M15 6H19.5C19.6989 6 19.8897 6.07902 20.0303 6.21967C20.171 6.36032 20.25 6.55109 20.25 6.75C20.25 6.94891 20.171 7.13968 20.0303 7.28033C19.8897 7.42098 19.6989 7.5 19.5 7.5H18.6705L17.5425 17.664C17.4406 18.5813 17.004 19.4288 16.3163 20.0443C15.6285 20.6598 14.738 21.0001 13.815 21H10.185C9.26205 21.0001 8.37148 20.6598 7.68373 20.0443C6.99599 19.4288 6.55939 18.5813 6.4575 17.664L5.328 7.5H4.5C4.30109 7.5 4.11032 7.42098 3.96967 7.28033C3.82902 7.13968 3.75 6.94891 3.75 6.75C3.75 6.55109 3.82902 6.36032 3.96967 6.21967C4.11032 6.07902 4.30109 6 4.5 6H9C9 5.20435 9.31607 4.44129 9.87868 3.87868C10.4413 3.31607 11.2044 3 12 3C12.7956 3 13.5587 3.31607 14.1213 3.87868C14.6839 4.44129 15 5.20435 15 6V6ZM12 4.5C11.6022 4.5 11.2206 4.65804 10.9393 4.93934C10.658 5.22064 10.5 5.60218 10.5 6H13.5C13.5 5.60218 13.342 5.22064 13.0607 4.93934C12.7794 4.65804 12.3978 4.5 12 4.5V4.5ZM6.8385 7.5L7.9485 17.499C8.00977 18.0493 8.27179 18.5576 8.68442 18.9268C9.09706 19.296 9.63132 19.5001 10.185 19.5H13.815C14.3684 19.4997 14.9023 19.2955 15.3146 18.9263C15.727 18.5572 15.9888 18.049 16.05 17.499L17.163 7.5H6.84H6.8385Z" fill="black"/>
</svg>
