<svg width="24" height="24" viewBox="0 0 24 24" fill="none"
  xmlns="http://www.w3.org/2000/svg">
  <path d="M16.8375 4.5C17.3836 4.49954 17.9242 4.6081 18.4278 4.81931C18.9313 5.03052 19.3877 5.34014 19.77 5.73C20.5578 6.52979 20.9994 7.60737 20.9994 8.73C20.9994 9.85264 20.5578 10.9302 19.77 11.73L12 19.5975L4.23001 11.73C3.4422 10.9302 3.00061 9.85264 3.00061 8.73C3.00061 7.60737 3.4422 6.52979 4.23001 5.73C4.61258 5.34042 5.06895 5.03096 5.57245 4.81972C6.07595 4.60848 6.6165 4.49968 7.16251 4.49968C7.70853 4.49968 8.24908 4.60848 8.75258 4.81972C9.25608 5.03096 9.71245 5.34042 10.095 5.73L12 7.68L13.8975 5.745C14.2787 5.35049 14.7355 5.0369 15.2407 4.82298C15.7458 4.60906 16.2889 4.49921 16.8375 4.5V4.5ZM16.8375 3C16.0917 2.99937 15.3533 3.14764 14.6656 3.43613C13.9779 3.72461 13.3547 4.1475 12.8325 4.68L12 5.52L11.1675 4.68C10.6447 4.14846 10.0214 3.72631 9.33376 3.43814C8.64615 3.14998 7.90806 3.00157 7.16251 3.00157C6.41697 3.00157 5.67888 3.14998 4.99127 3.43814C4.30367 3.72631 3.6803 4.14846 3.15751 4.68C2.09392 5.76272 1.49799 7.21977 1.49799 8.7375C1.49799 10.2552 2.09392 11.7123 3.15751 12.795L12 21.75L20.8425 12.795C21.9061 11.7123 22.502 10.2552 22.502 8.7375C22.502 7.21977 21.9061 5.76272 20.8425 4.68C20.3199 4.14818 19.6965 3.72573 19.0089 3.4373C18.3213 3.14886 17.5832 3.00021 16.8375 3V3Z" fill="#4CC49B"/>
</svg>
