<svg width="24" height="24" viewBox="0 0 24 24" fill="none"
  xmlns="http://www.w3.org/2000/svg">
  <path d="M19.5 13.5C19.5 14.9834 19.0601 16.4334 18.236 17.6668C17.4119 18.9001 16.2406 19.8614 14.8701 20.4291C13.4997 20.9968 11.9917 21.1453 10.5368 20.8559C9.08197 20.5665 7.7456 19.8522 6.6967 18.8033C5.64781 17.7544 4.9335 16.418 4.64411 14.9632C4.35473 13.5083 4.50325 12.0003 5.07091 10.6299C5.63856 9.25943 6.59986 8.08809 7.83323 7.26398C9.0666 6.43987 10.5166 6 12 6H16.6365L13.9485 8.68875L15 9.75L19.5 5.25L15 0.75L13.9485 1.8105L16.6388 4.5H12C10.22 4.5 8.47991 5.02784 6.99987 6.01677C5.51983 7.00571 4.36628 8.41131 3.68509 10.0558C3.0039 11.7004 2.82567 13.51 3.17294 15.2558C3.5202 17.0016 4.37737 18.6053 5.63604 19.864C6.89472 21.1226 8.49836 21.9798 10.2442 22.3271C11.99 22.6743 13.7996 22.4961 15.4442 21.8149C17.0887 21.1337 18.4943 19.9802 19.4832 18.5001C20.4722 17.0201 21 15.28 21 13.5H19.5Z" fill="black"/>
</svg>
