<svg width="500" height="500" viewBox="0 0 500 500" fill="none"
  xmlns="http://www.w3.org/2000/svg">
  <path d="M250 500C388.071 500 500 388.071 500 250C500 111.929 388.071 0 250 0C111.929 0 0 111.929 0 250C0 388.071 111.929 500 250 500Z" fill="#EAF1F9"/>
  <path d="M250 480.5C377.302 480.5 480.5 377.302 480.5 250C480.5 122.698 377.302 19.5 250 19.5C122.698 19.5 19.5 122.698 19.5 250C19.5 377.302 122.698 480.5 250 480.5Z" fill="white"/>
  <path d="M250 75.9C260.88 75.9 269.7 67.08 269.7 56.2C269.7 45.32 260.88 36.5 250 36.5C239.12 36.5 230.3 45.32 230.3 56.2C230.3 67.08 239.12 75.9 250 75.9Z" fill="#16B95F"/>
  <path d="M259.1 44.6V59.1C259.174 60.306 259 61.5143 258.587 62.6498C258.174 63.7853 257.532 64.8236 256.7 65.7C255.1 67.3 252.9 68 250 68C247.1 68 244.9 67.3 243.3 65.7C242.468 64.8236 241.826 63.7853 241.413 62.6498C241 61.5143 240.826 60.306 240.9 59.1V44.6L241.2 44.4H243.2C245.3 44.4 246.3 45.5 246.3 47.8V59.2C246.204 60.4028 246.522 61.6022 247.2 62.6C247.524 63.0241 247.952 63.3575 248.442 63.5677C248.933 63.7779 249.469 63.8579 250 63.8C250.545 63.8565 251.095 63.7763 251.602 63.5668C252.108 63.3573 252.554 63.0251 252.9 62.6C253.492 61.5689 253.77 60.3871 253.7 59.2V44.6L256.4 44.4L259.1 44.6Z" fill="white"/>
  <path d="M443.8 269.7C454.68 269.7 463.5 260.88 463.5 250C463.5 239.12 454.68 230.3 443.8 230.3C432.92 230.3 424.1 239.12 424.1 250C424.1 260.88 432.92 269.7 443.8 269.7Z" fill="#16B95F"/>
  <path d="M450.9 252.6H432.5C432.318 251.712 432.251 250.805 432.3 249.9C432.255 249.028 432.322 248.155 432.5 247.3H450.9V241.7C451.619 241.525 452.361 241.458 453.1 241.5C453.872 241.458 454.647 241.525 455.4 241.7V258.3L453.2 258.5C452.866 258.536 452.528 258.491 452.215 258.369C451.902 258.247 451.622 258.052 451.4 257.8C451.022 257.168 450.848 256.435 450.9 255.7V252.6Z" fill="white"/>
  <path d="M250 463.5C260.88 463.5 269.7 454.68 269.7 443.8C269.7 432.92 260.88 424.1 250 424.1C239.12 424.1 230.3 432.92 230.3 443.8C230.3 454.68 239.12 463.5 250 463.5Z" fill="#16B95F"/>
  <path d="M258.7 434.5C258.604 435.27 258.367 436.016 258 436.7C257.641 437.377 257.168 437.986 256.6 438.5C254.564 437.187 252.22 436.428 249.8 436.3C249.035 436.246 248.28 436.498 247.7 437C247.48 437.205 247.305 437.452 247.184 437.728C247.064 438.003 247.001 438.3 247 438.6C247 439.6 247.8 440.4 249.2 441L253.1 442.7C254.47 443.257 255.7 444.111 256.7 445.2C257.521 446.255 257.946 447.564 257.9 448.9C257.914 449.867 257.709 450.824 257.3 451.7C256.907 452.553 256.326 453.305 255.6 453.9C254.819 454.589 253.898 455.101 252.9 455.4C251.808 455.776 250.655 455.946 249.5 455.9C246.85 455.89 244.243 455.238 241.9 454C241.915 453.246 242.083 452.504 242.392 451.816C242.701 451.129 243.146 450.511 243.7 450C245.557 450.969 247.606 451.516 249.7 451.6C250.419 451.665 251.136 451.45 251.7 451C251.913 450.855 252.087 450.662 252.209 450.436C252.331 450.209 252.396 449.957 252.4 449.7C252.4 448.8 251.8 448.1 250.4 447.5L246.4 445.8C244.911 445.262 243.597 444.329 242.6 443.1C241.756 441.975 241.3 440.606 241.3 439.2C241.285 438.201 241.489 437.211 241.9 436.3C242.316 435.433 242.893 434.652 243.6 434C244.435 433.358 245.385 432.883 246.4 432.6C247.655 432.175 248.975 431.972 250.3 432C253.282 432.008 256.199 432.876 258.7 434.5Z" fill="white"/>
  <path d="M56.2 269.7C67.08 269.7 75.9 260.88 75.9 250C75.9 239.12 67.08 230.3 56.2 230.3C45.32 230.3 36.5 239.12 36.5 250C36.5 260.88 45.32 269.7 56.2 269.7Z" fill="#16B95F"/>
  <path d="M44.5 258.2C44.5 256.4 44.4 254.9 44.4 253.6V250.5C44.2823 248.457 44.8069 246.429 45.9 244.7C46.4247 243.987 47.1226 243.421 47.9276 243.053C48.7325 242.686 49.6179 242.53 50.5 242.6C51.4749 242.593 52.4246 242.909 53.2 243.5C54.0523 243.965 54.722 244.706 55.1 245.6C55.2641 245.021 55.5354 244.478 55.9 244C56.317 243.516 56.7865 243.08 57.3 242.7L59 241.9C59.6098 241.672 60.2502 241.537 60.9 241.5C61.8636 241.437 62.8283 241.603 63.7149 241.986C64.6016 242.368 65.3847 242.956 66 243.7C67.2214 245.566 67.8168 247.773 67.7 250V253.3C67.6 254.6 67.6 256.3 67.6 258.2L67.3 258.5H44.7L44.5 258.2ZM48.2 253.1H53.6V250.8C53.6414 250.382 53.5913 249.959 53.4531 249.562C53.315 249.165 53.0921 248.802 52.8 248.5C52.2192 248.082 51.515 247.871 50.8 247.9C50.1485 247.884 49.5119 248.097 49 248.5C48.7133 248.806 48.494 249.169 48.3562 249.565C48.2184 249.961 48.1652 250.382 48.2 250.8V253.1ZM57.4 250.4V253.1H63.9V251.2C63.9696 250.499 63.9359 249.791 63.8 249.1C63.6226 248.512 63.2746 247.99 62.8 247.6C62.1708 247.117 61.3925 246.87 60.6 246.9C60.1921 246.898 59.7878 246.976 59.4103 247.131C59.0328 247.285 58.6895 247.513 58.4 247.8C58.0355 248.12 57.7541 248.524 57.5799 248.977C57.4058 249.43 57.344 249.918 57.4 250.4Z" fill="white"/>
  <path d="M153 89.5C157.087 89.5 160.4 86.1869 160.4 82.1C160.4 78.0131 157.087 74.7 153 74.7C148.913 74.7 145.6 78.0131 145.6 82.1C145.6 86.1869 148.913 89.5 153 89.5Z" fill="#B9D4EF"/>
  <path d="M346.9 425.3C350.987 425.3 354.3 421.987 354.3 417.9C354.3 413.813 350.987 410.5 346.9 410.5C342.813 410.5 339.5 413.813 339.5 417.9C339.5 421.987 342.813 425.3 346.9 425.3Z" fill="#B9D4EF"/>
  <path d="M417.8 160.5C421.887 160.5 425.2 157.187 425.2 153.1C425.2 149.013 421.887 145.7 417.8 145.7C413.713 145.7 410.4 149.013 410.4 153.1C410.4 157.187 413.713 160.5 417.8 160.5Z" fill="#B9D4EF"/>
  <path d="M82 354.4C86.0869 354.4 89.4 351.087 89.4 347C89.4 342.913 86.0869 339.6 82 339.6C77.9131 339.6 74.6 342.913 74.6 347C74.6 351.087 77.9131 354.4 82 354.4Z" fill="#B9D4EF"/>
  <path d="M82.1 160.4C86.1869 160.4 89.5 157.087 89.5 153C89.5 148.913 86.1869 145.6 82.1 145.6C78.0131 145.6 74.7 148.913 74.7 153C74.7 157.087 78.0131 160.4 82.1 160.4Z" fill="#B9D4EF"/>
  <path d="M417.9 354.3C421.987 354.3 425.3 350.987 425.3 346.9C425.3 342.813 421.987 339.5 417.9 339.5C413.813 339.5 410.5 342.813 410.5 346.9C410.5 350.987 413.813 354.3 417.9 354.3Z" fill="#B9D4EF"/>
  <path d="M346.8 89.5C350.887 89.5 354.2 86.1869 354.2 82.1C354.2 78.0131 350.887 74.7 346.8 74.7C342.713 74.7 339.4 78.0131 339.4 82.1C339.4 86.1869 342.713 89.5 346.8 89.5Z" fill="#B9D4EF"/>
  <path d="M152.9 425.3C156.987 425.3 160.3 421.987 160.3 417.9C160.3 413.813 156.987 410.5 152.9 410.5C148.813 410.5 145.5 413.813 145.5 417.9C145.5 421.987 148.813 425.3 152.9 425.3Z" fill="#B9D4EF"/>
</svg>
