<svg width="24" height="24" viewBox="0 0 24 24" fill="none"
  xmlns="http://www.w3.org/2000/svg">
  <path d="M16.21 16H7.79001C7.4576 16.0005 7.13184 15.9068 6.85045 15.7298C6.56907 15.5529 6.34355 15.2998 6.20001 15C6.03198 14.6443 5.96726 14.2485 6.01323 13.8577C6.05919 13.467 6.214 13.097 6.46001 12.79L10.67 7.69C10.8352 7.49937 11.0395 7.34649 11.269 7.2417C11.4984 7.13692 11.7477 7.0827 12 7.0827C12.2523 7.0827 12.5016 7.13692 12.7311 7.2417C12.9605 7.34649 13.1648 7.49937 13.33 7.69L17.54 12.79C17.786 13.097 17.9408 13.467 17.9868 13.8577C18.0328 14.2485 17.968 14.6443 17.8 15C17.6565 15.2998 17.4309 15.5529 17.1496 15.7298C16.8682 15.9068 16.5424 16.0005 16.21 16Z" fill="black"/>
</svg>
