<svg width="24" height="24" viewBox="0 0 24 24" fill="none"
  xmlns="http://www.w3.org/2000/svg">
  <defs>
    <clipPath id="clip0">
      <rect width="24" height="24" fill="white"/>
    </clipPath>
  </defs>
  <g clip-path="url(#clip0)">
    <path d="M3 3V23.25C2.9999 23.3802 3.03373 23.5083 3.09814 23.6215C3.16255 23.7347 3.25532 23.8291 3.36734 23.8956C3.47935 23.962 3.60674 23.9982 3.73696 24.0004C3.86718 24.0027 3.99574 23.971 4.11 23.9085L12 19.6035L19.89 23.9085C20.0043 23.971 20.1328 24.0027 20.263 24.0004C20.3933 23.9982 20.5207 23.962 20.6327 23.8956C20.7447 23.8291 20.8375 23.7347 20.9019 23.6215C20.9663 23.5083 21.0001 23.3802 21 23.25V3C21 2.20435 20.6839 1.44129 20.1213 0.87868C19.5587 0.316071 18.7956 0 18 0L6 0C5.20435 0 4.44129 0.316071 3.87868 0.87868C3.31607 1.44129 3 2.20435 3 3V3Z" fill="black"/>
  </g>

</svg>
