<svg id="Layer_1" data-name="Layer 1" xmlns="http://www.w3.org/2000/svg" viewBox="0 0 48 48"><title>Artboard 30</title><path d="M45.84,15.46a1,1,0,0,0-1.38-.3L43.18,16l-2.5-4.32a1,1,0,0,0-1.37-.36L24,20.1,8.77,11.29a1,1,0,0,0-1.36.36L4.89,16l-1.36-.86a1,1,0,1,0-1.06,1.7l6,3.8a4.21,4.21,0,0,0-.47.64,1,1,0,0,0,.34,1.35L17,28,8.43,32.58a1,1,0,0,0-.49.61A1,1,0,0,0,8,34a6.85,6.85,0,0,0,9.52,2.42l6.45-4,6.46,4A6.85,6.85,0,0,0,40,34a1,1,0,0,0-.39-1.38L31,28l8.62-5.36A1,1,0,0,0,40,21.29a4.78,4.78,0,0,0-.45-.63l6-3.82A1,1,0,0,0,45.84,15.46ZM8.64,13.52l14.9,8.6a1,1,0,0,0,1,0l14.91-8.6,2,3.53L37.9,19.33a5.08,5.08,0,0,0-4.76,0L24,24.25,14.9,19.37a5.14,5.14,0,0,0-4.76-.06L6.59,17.07Zm7.87,21.16a4.79,4.79,0,0,1-3.73.56,4.92,4.92,0,0,1-2.4-1.43L19,29.22l3.17,2Zm18.74.56a4.83,4.83,0,0,1-3.73-.55L10.39,21.54a3.09,3.09,0,0,1,3.55-.41l23.7,12.68A4.89,4.89,0,0,1,35.25,35.24ZM29,26.91l-2.87-1.53,8-4.26a3.12,3.12,0,0,1,3.55.42Z"/></svg>