<svg width="24" height="24" viewBox="0 0 24 24" fill="none"
  xmlns="http://www.w3.org/2000/svg">
  <path d="M19.8001 13.6C19.8501 13.25 19.9001 12.9 19.9001 12.5C19.9001 12.1 19.8501 11.75 19.8001 11.4L22.0501 9.79999C22.2501 9.64999 22.3501 9.34999 22.2001 9.09999L20.0001 5.39999C19.8501 5.14999 19.6001 5.04999 19.3501 5.19999L16.8501 6.34999C16.2501 5.89999 15.6501 5.54999 14.9501 5.24999L14.7001 2.49999C14.6501 2.24999 14.4501 2.04999 14.2001 2.04999H9.90005C9.65005 2.04999 9.40005 2.24999 9.40005 2.49999L9.15005 5.24999C8.45005 5.54999 7.80005 5.89999 7.25005 6.34999L4.75005 5.19999C4.50005 5.09999 4.20005 5.19999 4.10005 5.39999L1.95005 9.09999C1.80005 9.34999 1.90005 9.64999 2.10005 9.79999L4.35005 11.4C4.30005 11.75 4.25005 12.1 4.25005 12.5C4.25005 12.9 4.30005 13.25 4.35005 13.6L2.00005 15.2C1.80005 15.35 1.70005 15.65 1.85005 15.9L4.00005 19.6C4.15005 19.85 4.40005 19.95 4.65005 19.8L7.15005 18.65C7.75005 19.1 8.35005 19.45 9.05005 19.75L9.30005 22.5C9.35005 22.75 9.55005 22.95 9.80005 22.95H14.1001C14.3501 22.95 14.6001 22.75 14.6001 22.5L14.8501 19.75C15.5501 19.45 16.2001 19.1 16.7501 18.65L19.2501 19.8C19.5001 19.9 19.8001 19.8 19.9001 19.6L22.0501 15.9C22.2001 15.65 22.1001 15.35 21.9001 15.2L19.8001 13.6V13.6ZM12.0001 17.5C9.25005 17.5 7.00005 15.25 7.00005 12.5C7.00005 9.74999 9.25005 7.49999 12.0001 7.49999C14.7501 7.49999 17.0001 9.74999 17.0001 12.5C17.0001 15.25 14.7501 17.5 12.0001 17.5Z" fill="#607D8B"/>
  <path d="M12 6.5C8.7 6.5 6 9.2 6 12.5C6 15.8 8.7 18.5 12 18.5C15.3 18.5 18 15.8 18 12.5C18 9.2 15.3 6.5 12 6.5ZM12 15C10.6 15 9.5 13.9 9.5 12.5C9.5 11.1 10.6 10 12 10C13.4 10 14.5 11.1 14.5 12.5C14.5 13.9 13.4 15 12 15Z" fill="#455A64"/>
</svg>
