<svg width="24" height="24" viewBox="0 0 24 24" fill="none"
  xmlns="http://www.w3.org/2000/svg">
  <path d="M4.80005 5.40002C4.80005 4.60438 5.11612 3.84131 5.67873 3.2787C6.24134 2.71609 7.0044 2.40002 7.80005 2.40002H16.2C16.9957 2.40002 17.7588 2.71609 18.3214 3.2787C18.884 3.84131 19.2 4.60438 19.2 5.40002V21C19.2 21.1106 19.1693 21.2191 19.1114 21.3134C19.0535 21.4077 18.9707 21.4841 18.8721 21.5343C18.7735 21.5844 18.663 21.6064 18.5527 21.5976C18.4424 21.5889 18.3367 21.5499 18.2472 21.4848L12 16.9416L5.75285 21.4848C5.66337 21.5499 5.55765 21.5889 5.44737 21.5976C5.33709 21.6064 5.22655 21.5844 5.12796 21.5343C5.02936 21.4841 4.94656 21.4077 4.88869 21.3134C4.83082 21.2191 4.80014 21.1106 4.80005 21V5.40002ZM7.80005 3.60002C7.32266 3.60002 6.86482 3.78967 6.52726 4.12723C6.18969 4.4648 6.00005 4.92263 6.00005 5.40002V19.8216L11.6472 15.7152C11.7498 15.6407 11.8733 15.6005 12 15.6005C12.1268 15.6005 12.2503 15.6407 12.3528 15.7152L18 19.8216V5.40002C18 4.92263 17.8104 4.4648 17.4728 4.12723C17.1353 3.78967 16.6774 3.60002 16.2 3.60002H7.80005Z" fill="black"/>
</svg>
