<svg id="Layer_1" data-name="Layer 1"
  xmlns="http://www.w3.org/2000/svg" viewBox="0 0 48 48">
  <title>Artboard 4</title>
  <path d="M44.33,9.06l-20-7a.94.94,0,0,0-.66,0l-20,7A1,1,0,0,0,3,10V42a1,1,0,0,0,.85,1c21.24,3.18,20,3,20.15,3s-1,.16,20.15-3A1,1,0,0,0,45,42V10A1,1,0,0,0,44.33,9.06ZM5,20.71l18-6.3V38.84L5,36.14ZM25,40.86l3-.45v3l-3,.45Zm9,1.63-4,.6V25.16l4,1.4Zm1.33-17.58-6-2.1a1,1,0,0,0-1.33.94V38.39l-3,.45V14.41l18,6.3V36.14l-7,1V25.85A1,1,0,0,0,35.33,24.91ZM43,18.59l-18-6.3V9.41l18,6.3Zm-20-6.3L5,18.59V15.71l18-6.3ZM5,38.16l18,2.7v3L5,41.14Zm31,4v-3l7-1.05v3Zm7-28.6L25,7.29V4.41l18,6.3ZM23,4.41V7.29L5,13.59V10.71Z"/>
</svg>