<svg id="Layer_1" data-name="Layer 1" xmlns="http://www.w3.org/2000/svg" viewBox="0 0 48 48"><title>Artboard 24</title><path d="M14.57,21.82,24,15.29l9.43,6.53a1,1,0,0,0,1.44-1.31l-10-18a1,1,0,0,0-1.74,0l-10,18a1,1,0,0,0,1.44,1.31ZM24,5.06l7,12.68-6.47-4.49a1,1,0,0,0-1.14,0L17,17.74Z"/><path d="M34.33,26.56l-10-3.5a.94.94,0,0,0-.66,0l-10,3.5a1,1,0,0,0-.67.94v16a1,1,0,0,0,.85,1l10,1.5h.3l10-1.5a1,1,0,0,0,.85-1v-16A1,1,0,0,0,34.33,26.56ZM15,32.11,24,29l9,3.15v7l-9,1.35-9-1.35Zm9-7,9,3.15V30l-8.67-3a.94.94,0,0,0-.66,0L15,30V28.21ZM15,42.64V41.16l8.85,1.33h.3L33,41.16v1.48L24,44Z"/></svg>