<svg xmlns="http://www.w3.org/2000/svg" viewBox="0 0 32 32">
  <path d="M29.85 13.63l-5-8a1 1 0 00-.74-.46 1 1 0 00-.82.28L16 12.75l-7.29-7.3a1 1 0 00-.82-.28 1 1 0 00-.74.46l-5 8A1 1 0 002.49 15l7.3 4.32-3.68 7.39a1 1 0 00.21 1.18 1 1 0 00.68.27 1.06 1.06 0 00.51-.16L16 23l8.49 5a1.06 1.06 0 00.51.14 1 1 0 00.68-.27 1 1 0 00.21-1.18l-3.68-7.37 7.3-4.32a1 1 0 00.34-1.39z" fill="#773d00"/>
  <path class="cls-2" d="M16 23l-8.49 5a1.06 1.06 0 01-.51.14 1 1 0 01-.68-.27 1 1 0 01-.21-1.18l3.69-7.35zm9.68 4.89a1 1 0 01-.68.27 1.06 1.06 0 01-.51-.14L16 23l6.2-3.66 3.69 7.37a1 1 0 01-.21 1.18z" fill="#3b1f00"/>
  <path d="M26.87 11.66l-.85.54-10 6-10-6-.85-.54A1 1 0 005.49 13l10 6a1 1 0 001 0l10-6a1 1 0 00.38-1.34z" fill="#f39d3c"/>
  <path d="M26.83 11.59l-4-6.93a1 1 0 00-.67-.48C22 4.14 18 3.39 16 5.35c-2-2-6-1.21-6.2-1.17a1 1 0 00-.67.48l-4 6.93.85.54 10 6 10-6 .85-.54z" fill="#fbeabc"/>
  <path class="cls-5" d="M26.88 11.6l-.85.54-10 6s0-8 9-7l1 .24.83.19zM16 18.16l-10-6-.85-.54.85-.22 1-.24c9-1 9 7 9 7z" fill="#f9d67a"/>
</svg>