<svg xmlns="http://www.w3.org/2000/svg" viewBox="0 0 32 32">

  <g id="Line">
    <path class="cls-1" d="M27 3v19a.93.93 0 01-.15.52.83.83 0 01-.11.15l-.13.12a.76.76 0 01-.23.13.85.85 0 01-.17.06h-.09l-20 2H6a1 1 0 01-.67-.26A1 1 0 015 24V6a4 4 0 014-4h17a1 1 0 011 1z" fill="#009649"/>
    <path d="M25 21H9a4 4 0 000 8h16a1 1 0 001-1v-6a1 1 0 00-1-1z" fill="#e4f5bc"/>
    <path class="cls-3" d="M26 29H9a4 4 0 010-8h17a1 1 0 010 2H9a2 2 0 000 4h17a1 1 0 010 2z" fill="#007042"/>
    <path class="cls-3" d="M27 3v19a.93.93 0 01-.15.52.83.83 0 01-.11.15l-.13.12a.76.76 0 01-.23.13.85.85 0 01-.17.06L26 23H10a1 1 0 01-1-1V2h17a1 1 0 011 1z" fill="#007042"/>
    <path d="M21 25a1.09 1.09 0 01-1.15 1H8v-2h11.85A1.09 1.09 0 0121 25z" fill="#9ecf99"/>
    <path class="cls-1" d="M20 3l6 5V3h-6zm6 19v-5l-6 5h6zm-16 0h6l-6-5v5zm0-14l6-5h-6v5z" fill="#009649"/>
    <path d="M21 7a1.43 1.43 0 01-1-.41l-1.29-1.3a1 1 0 00-1.42 0L16 6.59A1.43 1.43 0 0115 7a3 3 0 00-3 3v5a3 3 0 003 3 1.43 1.43 0 011 .41l1.29 1.3a1 1 0 001.42 0l1.29-1.3a1.43 1.43 0 011-.41 3 3 0 003-3v-5a3 3 0 00-3-3zm-8 17v4.67c0 .73-.45 1.33-1 1.33H9c-.55 0-1-.6-1-1.33V24z" fill="#ace12e"/>
  </g>
</svg>