<svg id="Layer_1" data-name="Layer 1"
  xmlns="http://www.w3.org/2000/svg" viewBox="0 0 48 48">
  <title>Artboard 21</title>
  <path d="M40,2H12A5,5,0,0,0,7,7C7,24.79,7,25.75,7,41a5,5,0,0,0,5,5H40a1,1,0,0,0,0-2V38a1,1,0,0,0,1-1V3A1,1,0,0,0,40,2ZM14,36V27H39v9ZM14,9H39V25H14ZM39,7H14V4H39ZM12,4V36a4.92,4.92,0,0,0-3,1V7A3,3,0,0,1,12,4ZM38,44H12a3,3,0,0,1,0-6H38Z"/>
  <path d="M26,13.56a1,1,0,0,0,0-1.73,6,6,0,1,0,0,10.34,1,1,0,0,0,0-1.73c-1.15-.67-2.5-2-2.5-3.44S24.85,14.23,26,13.56ZM23.41,21a4,4,0,1,1,0-8,5.63,5.63,0,0,0-1.91,4A5.63,5.63,0,0,0,23.41,21Z"/>
  <path d="M35.06,15.34l-1.62-.2-.75-1.44a1.31,1.31,0,0,0-1.17-.7,1.27,1.27,0,0,0-1.14.74l-.69,1.48-1.61.27a1.3,1.3,0,0,0-1,.9,1.28,1.28,0,0,0,.36,1.31l1.19,1.12-.24,1.6a1.29,1.29,0,0,0,.54,1.26,1.31,1.31,0,0,0,.73.23,1.28,1.28,0,0,0,.63-.16L31.69,21l1.45.73a1.29,1.29,0,0,0,1.36-.13A1.3,1.3,0,0,0,35,20.29l-.31-1.6,1.14-1.16a1.29,1.29,0,0,0-.76-2.19ZM33,17.55a1.28,1.28,0,0,0-.35,1.15l.11.56-.5-.26A1.3,1.3,0,0,0,31,19l-.49.27.08-.56a1.26,1.26,0,0,0-.39-1.13l-.41-.39.55-.09a1.3,1.3,0,0,0,1-.72l.24-.52.26.51a1.29,1.29,0,0,0,1,.68l.56.07Z"/>
</svg>