<svg xmlns="http://www.w3.org/2000/svg" width="64" height="64" fill="none">
  <path fill="#EAF1F9" d="M32 64c17.673 0 32-14.327 32-32C64 14.327 49.673 0 32 0 14.327 0 0 14.327 0 32c0 17.673 14.327 32 32 32z"/>
  <path fill="#fff" d="M32 61.504c16.295 0 29.504-13.21 29.504-29.504 0-16.295-13.21-29.504-29.504-29.504C15.705 2.496 2.496 15.706 2.496 32c0 16.295 13.21 29.504 29.504 29.504z"/>
  <path fill="#16B95F" d="M32 9.715a2.522 2.522 0 100-5.043 2.522 2.522 0 000 5.043z"/>
  <path fill="#fff" d="M33.165 5.709v1.856a1.126 1.126 0 01-.307.845c-.205.204-.487.294-.858.294s-.653-.09-.858-.294a1.125 1.125 0 01-.307-.845V5.709l.039-.026h.256c.268 0 .396.141.396.435v1.46a.678.678 0 00.116.435.398.398 0 00.358.153.423.423 0 00.371-.153.781.781 0 00.103-.435v-1.87l.345-.025.346.026z"/>
  <path fill="#16B95F" d="M56.806 34.522a2.522 2.522 0 100-5.044 2.522 2.522 0 000 5.044z"/>
  <path fill="#fff" d="M57.715 32.333H55.36a1.364 1.364 0 01-.026-.346 1.31 1.31 0 01.026-.333h2.355v-.716a.96.96 0 01.282-.026c.099-.005.198.003.294.026v2.124l-.281.026a.268.268 0 01-.23-.09.461.461 0 01-.065-.268v-.397z"/>
  <path fill="#16B95F" d="M32 59.328a2.522 2.522 0 100-5.043 2.522 2.522 0 000 5.043z"/>
  <path fill="#fff" d="M33.114 55.616a.842.842 0 01-.269.512 1.78 1.78 0 00-.87-.282.371.371 0 00-.27.09.284.284 0 00-.089.205c0 .128.102.23.282.307l.499.218c.175.07.333.18.46.32a.73.73 0 01.154.473.818.818 0 01-.294.64.922.922 0 01-.346.192c-.14.048-.287.07-.435.064a2.1 2.1 0 01-.973-.243.719.719 0 01.23-.512c.238.124.5.194.769.205a.359.359 0 00.256-.077.204.204 0 00.09-.166c0-.116-.078-.205-.257-.282l-.512-.218a1.114 1.114 0 01-.486-.345.87.87 0 01.128-1.165c.107-.082.228-.143.358-.18.16-.054.33-.08.5-.076.381.001.755.112 1.075.32z"/>
  <path fill="#16B95F" d="M7.194 34.522a2.522 2.522 0 100-5.044 2.522 2.522 0 000 5.044z"/>
  <path fill="#fff" d="M5.696 33.05c0-.23-.013-.423-.013-.59v-.396a1.254 1.254 0 01.192-.742.665.665 0 01.589-.27c.125 0 .246.04.346.116a.55.55 0 01.243.269.614.614 0 01.102-.205c.054-.062.114-.118.18-.166l.217-.103a.827.827 0 01.603.011.78.78 0 01.293.22c.156.239.233.521.218.806v.422c-.013.167-.013.384-.013.628l-.039.038H5.722l-.026-.038zm.474-.653h.69v-.295a.371.371 0 00-.102-.294.41.41 0 00-.256-.077.359.359 0 00-.23.077.384.384 0 00-.102.294v.295zm1.177-.346v.346h.832v-.243a.922.922 0 00-.013-.27.397.397 0 00-.128-.191.436.436 0 00-.281-.09.396.396 0 00-.282.115.384.384 0 00-.128.333z"/>
  <path fill="#B9D4EF" d="M19.584 11.456a.947.947 0 100-1.894.947.947 0 000 1.894zM44.403 54.438a.947.947 0 100-1.894.947.947 0 000 1.894zM53.478 20.544a.947.947 0 100-1.894.947.947 0 000 1.894zM10.496 45.363a.947.947 0 100-1.894.947.947 0 000 1.894zM10.509 20.531a.947.947 0 100-1.894.947.947 0 000 1.894zM53.491 45.35a.947.947 0 100-1.894.947.947 0 000 1.894zM44.39 11.456a.947.947 0 100-1.894.947.947 0 000 1.894zM19.571 54.438a.947.947 0 100-1.894.947.947 0 000 1.894z"/>
  <path fill="#4D5258" d="M42.5 25.25v13.5a.75.75 0 01-.532.75l-9.75 3a.802.802 0 01-.436 0l-9.75-3a.75.75 0 01-.532-.75v-13.5a.75.75 0 01.045-.262L32 28.25l10.455-3.262c.03.084.046.172.045.262z"/>
  <path fill="#72767B" d="M41.968 24.5l-9.75-3h-.09a.6.6 0 00-.346 0l-9.75 3a.75.75 0 00-.487.457L32 28.25l10.455-3.262a.75.75 0 00-.487-.488z"/>
  <path fill="#292E34" d="M42.5 25.25v13.5a.75.75 0 01-.532.75l-9.75 3a.69.69 0 01-.218 0V28.25l10.455-3.262a.75.75 0 01.045.262z"/>
  <path fill="#F5C12E" d="M32 31.25l-10.5-3v3l10.5 3 10.5-3v-3l-10.5 3z"/>
  <path fill="#B58100" d="M32 31.25v3l10.5-3v-3l-10.5 3z"/>
  <path stroke="#5AD383" stroke-linecap="round" stroke-linejoin="round" stroke-width="1.5" d="M32 11l3.5 9.5-3.5-2-3.5 2L32 11z"/>
</svg>