<svg width="48" height="48" viewBox="0 0 48 48" fill="none"
  xmlns="http://www.w3.org/2000/svg">
  <defs>
    <linearGradient id="paint0_linear" x1="18.1514" y1="27.5652" x2="29.7713" y2="26.5586" gradientUnits="userSpaceOnUse">
      <stop stop-color="#77DEA5"/>
      <stop offset="1" stop-color="#18B860"/>
    </linearGradient>
    <linearGradient id="paint1_linear" x1="16.8157" y1="11.661" x2="16.8157" y2="32.435" gradientUnits="userSpaceOnUse">
      <stop stop-color="white" stop-opacity="0.628196"/>
      <stop offset="1" stop-color="white"/>
    </linearGradient>
    <linearGradient id="paint2_linear" x1="31.2789" y1="11.661" x2="31.2789" y2="32.435" gradientUnits="userSpaceOnUse">
      <stop stop-color="white" stop-opacity="0.628196"/>
      <stop offset="1" stop-color="white"/>
    </linearGradient>
    <linearGradient id="paint3_linear" x1="32.6748" y1="15.4691" x2="29.1486" y2="31.9525" gradientUnits="userSpaceOnUse">
      <stop stop-color="#EBD587"/>
      <stop offset="1" stop-color="#F4ECD3"/>
    </linearGradient>
  </defs>
  <path fill-rule="evenodd" clip-rule="evenodd" d="M23.9739 37.4611L7.63761 36.1014C7.13598 36.0598 6.75 35.6394 6.75 35.1347V14.8502C6.75 14.3145 7.18314 13.8802 7.71744 13.8802C7.75857 13.8802 7.79966 13.8828 7.84045 13.8881L23.9941 15.9642L40.1478 13.8881C40.1886 13.8828 40.2297 13.8802 40.2709 13.8802C40.8052 13.8802 41.2383 14.3145 41.2383 14.8502V35.1347C41.2383 35.6394 40.8523 36.0598 40.3507 36.1014L24.0144 37.4577L23.9941 37.4594L23.9739 37.4611Z" fill="url(#paint0_linear)"/>
  <path fill-rule="evenodd" clip-rule="evenodd" d="M23.9829 37.5L7.60839 35.688C7.11976 35.6339 6.75 35.221 6.75 34.7294V14.4095C6.75 13.8769 7.18181 13.4451 7.71447 13.4451C7.75558 13.4451 7.79664 13.4477 7.83742 13.4529L24.0144 15.5321L23.9829 37.5Z" fill="#18B860"/>
  <path fill-rule="evenodd" clip-rule="evenodd" d="M23.983 37.5L40.3798 35.6879C40.8685 35.6339 41.2384 35.2209 41.2384 34.7293V14.4095C41.2384 13.8769 40.8066 13.4451 40.2739 13.4451C40.2328 13.4451 40.1917 13.4477 40.151 13.4529L23.974 15.5321L23.983 37.5Z" fill="#13954D"/>
  <path fill-rule="evenodd" clip-rule="evenodd" d="M24.0144 35.593C24.0144 32.1034 23.9738 19.5097 23.9738 13.7641C18.4744 10.6559 15.2559 12.0123 9.02558 11.1182C8.70246 11.0718 8.28133 11.6141 7.76219 12.745C7.70425 12.8713 7.67426 13.0085 7.67426 13.1474C7.67426 13.3166 7.67426 13.5386 7.67426 13.8133C7.67426 19.4426 7.67426 28.1417 7.67426 32.7966C7.67426 33.0127 7.67426 33.2674 7.67426 33.5607C7.67425 34.0321 8.01494 34.4344 8.47986 34.512C8.70174 34.549 8.88365 34.5707 9.02558 34.5771C13.6409 34.7833 18.0056 34.7833 23.9738 36.543C23.9941 35.9959 23.9965 35.9959 24.0144 35.593Z" fill="#D6AA0C"/>
  <path fill-rule="evenodd" clip-rule="evenodd" d="M24.0144 35.593C24.0144 32.1034 23.9738 19.5097 23.9738 13.7641C18.4744 10.6559 15.2559 12.0123 9.02558 11.1182C8.70246 11.0718 8.28133 11.6141 7.76219 12.745C7.70425 12.8713 7.67426 13.0085 7.67426 13.1474C7.67426 13.3166 7.67426 13.5386 7.67426 13.8133C7.67426 19.4426 7.67426 28.1417 7.67426 32.7966C7.67426 33.0127 7.67426 33.2674 7.67426 33.5607C7.67425 34.0321 8.01494 34.4344 8.47986 34.512C8.70174 34.549 8.88365 34.5707 9.02558 34.5771C13.6409 34.7833 18.0056 34.7833 23.9738 36.543C23.9941 35.9959 23.9965 35.9959 24.0144 35.593Z" fill="#D6AA0C"/>
  <path fill-rule="evenodd" clip-rule="evenodd" d="M23.9738 13.7641C18.4744 10.6559 15.2559 12.0123 9.02558 11.1182C8.70246 11.0718 8.28133 11.6141 7.76219 12.745C7.70425 12.8713 7.67426 13.0085 7.67426 13.1474C7.67426 13.3166 7.67426 13.5386 7.67426 13.8133C7.67426 19.4426 7.67426 28.1417 7.67426 32.7966C7.67426 33.0127 7.67426 33.2674 7.67426 33.5607C7.67425 34.0321 8.01494 34.4344 8.47986 34.512C8.70174 34.549 8.88365 34.5707 9.02558 34.5771C13.6409 34.7833 18.0056 34.7833 23.9738 36.543C23.9941 35.9959 23.9738 19.5097 23.9738 13.7641Z" fill="#D6AA0C"/>
  <path fill-rule="evenodd" clip-rule="evenodd" d="M9.02554 11.1182C15.2559 12.0123 18.4743 10.6559 23.9738 13.7641V35.593C22.0802 34.6445 17.8316 33.227 13.2115 33.0754C11.6391 33.0238 10.4144 33.012 9.53738 33.0399C9.16766 33.0517 8.85842 32.7615 8.84665 32.3918C8.84643 32.3847 8.84631 32.3776 8.84631 32.3705V11.1482C8.90908 11.12 8.96882 11.11 9.02554 11.1182Z" fill="#B28D06"/>
  <path fill-rule="evenodd" clip-rule="evenodd" d="M23.9738 13.8133C29.4733 10.705 32.9916 12.0123 39.2219 11.1182C39.5451 11.0718 39.9662 11.6141 40.4853 12.745C40.5433 12.8713 40.5733 13.0085 40.5733 13.1474C40.5733 13.3166 40.5733 13.5386 40.5733 13.8133C40.5733 19.4426 40.5733 28.1417 40.5733 32.7966C40.5733 33.0127 40.5733 33.2674 40.5733 33.5607C40.5733 34.0321 40.2326 34.4344 39.7677 34.512C39.5458 34.549 39.3639 34.5707 39.2219 34.5771C34.6066 34.7833 29.942 34.7833 23.9738 36.543C23.9738 35.9426 23.9738 19.5589 23.9738 13.8133Z" fill="#C49A05"/>
  <path fill-rule="evenodd" clip-rule="evenodd" d="M39.222 11.1182C32.9916 12.0123 29.4733 10.6559 23.9739 13.7641V35.5598C27.7462 33.9037 32.5588 33.0318 38.4116 32.9443C38.9605 32.9361 39.4012 32.4887 39.4012 31.9397V11.1482C39.3384 11.12 39.2787 11.11 39.222 11.1182Z" fill="#997801"/>
  <path fill-rule="evenodd" clip-rule="evenodd" d="M23.9737 35.593C23.9737 32.1034 23.9737 19.7448 23.9737 13.7641C20.3769 10.4526 16.2979 9.65818 11.1806 9.75811C10.9408 9.76279 10.6258 9.77595 10.2356 9.79759C9.72449 9.82594 9.32455 10.2487 9.32455 10.7606C9.32455 11.1751 9.32455 11.5226 9.32455 11.8033C9.32455 17.4574 9.32455 26.0209 9.32455 30.5991C9.32455 30.7603 9.32455 30.944 9.32455 31.1502C9.32456 31.6766 9.74659 32.1057 10.2729 32.1145C10.5325 32.1189 10.7465 32.1239 10.9147 32.1297C16.1974 32.311 19.6444 33.432 23.9737 35.593Z" fill="#FFC909"/>
  <path fill-rule="evenodd" clip-rule="evenodd" d="M12.8238 30.2926C12.4329 29.7373 11.8993 29.1371 11.2231 28.4919V13.3432L12.8238 11.661C16.4711 11.9056 19.1841 12.5957 20.9627 13.7314C21.6406 14.949 22.1224 15.7267 22.4083 16.0645V31.2279C22.1392 31.5323 21.7965 31.9347 21.3801 32.435C19.095 31.577 16.6694 30.4916 12.8238 30.2926Z" fill="url(#paint1_linear)"/>
  <path opacity="0.5" fill-rule="evenodd" clip-rule="evenodd" d="M22.082 12.5169L21.6512 34.4904L21.3644 35.877V37.1719L22.4084 37.2822L22.6546 12.9402L22.082 12.5169Z" fill="#6C6C6C"/>
  <path fill-rule="evenodd" clip-rule="evenodd" d="M23.9739 35.593C23.9739 32.1034 23.9739 19.7448 23.9739 13.7641C27.5707 10.4526 31.7967 9.65818 36.914 9.75811C37.1538 9.76279 37.4688 9.77595 37.859 9.79759C38.3701 9.82594 38.7701 10.2487 38.7701 10.7606C38.7701 11.1751 38.7701 11.5226 38.7701 11.8033C38.7701 17.4574 38.7701 26.0209 38.7701 30.5991C38.7701 30.7603 38.7701 30.944 38.7701 31.1502C38.77 31.6766 38.348 32.1057 37.8217 32.1145C37.5621 32.1189 37.3481 32.1239 37.1799 32.1297C31.8972 32.311 28.3032 33.432 23.9739 35.593Z" fill="#F1BC00"/>
  <path fill-rule="evenodd" clip-rule="evenodd" d="M35.2708 30.2926C35.6617 29.7373 36.1953 29.1371 36.8716 28.4919V13.3432L35.2708 11.661C31.6235 11.9056 28.9105 12.5957 27.1319 13.7314C26.454 14.949 25.9722 15.7267 25.6863 16.0645V31.2279C25.9554 31.5323 26.2981 31.9347 26.7145 32.435C28.9996 31.577 31.4252 30.4916 35.2708 30.2926Z" fill="url(#paint2_linear)"/>
  <path opacity="0.2" fill-rule="evenodd" clip-rule="evenodd" d="M25.5659 34.8346C25.3645 31.6503 26.6851 28.6827 29.5319 25.8417C33.9795 21.403 31.1561 15.1755 38.7699 13.3132V30.5991V31.1502C38.7699 31.6766 38.3479 32.1057 37.8216 32.1145C37.5619 32.1189 37.348 32.1239 37.1798 32.1297C33.092 32.2185 29.2207 33.1201 25.5659 34.8346Z" fill="#2D2D2F"/>
  <path fill-rule="evenodd" clip-rule="evenodd" d="M25.9367 31.515C26.5092 29.5534 27.7076 27.6623 29.5319 25.8417C33.558 21.8237 31.6259 16.3398 36.8715 13.955V28.492C36.1952 29.1372 35.6616 29.7374 35.2707 30.2926C31.4251 30.4916 28.9995 31.577 26.7144 32.435C26.4178 32.0787 26.1585 31.772 25.9367 31.515Z" fill="url(#paint3_linear)"/>
  <path fill-rule="evenodd" clip-rule="evenodd" d="M23.2272 12.9402C22.9199 12.6702 22.6532 12.4579 22.4271 12.3032C22.3865 12.2755 22.3298 12.2377 22.2572 12.1899C22.2226 12.1672 22.1761 12.1768 22.1533 12.2114C22.1453 12.2236 22.141 12.238 22.141 12.2526C22.141 12.329 22.141 12.3995 22.141 12.4642C22.141 13.7209 22.1213 22.1744 22.082 37.8247L22.6575 37.6237L23.2272 38.0661V12.9402Z" fill="#13954D"/>

</svg>
