<svg width="24" height="24" viewBox="0 0 24 24" fill="none"
  xmlns="http://www.w3.org/2000/svg">
  <defs>
    <clipPath id="clip0">
      <rect width="24" height="24" fill="white"/>
    </clipPath>
  </defs>
  <g clip-path="url(#clip0)">
    <path d="M18.6667 8.66667C18.6667 16 22 15.3333 22 18.6667C22 18.6667 22 20 20.6667 20H3.33333C2 20 2 18.6667 2 18.6667C2 15.3333 5.33333 16 5.33333 8.66667C5.33333 4.98533 8.318 2 12 2C15.682 2 18.6667 4.98533 18.6667 8.66667Z" fill="#FFAC33"/>
    <path d="M12 4C13.1046 4 14 3.10457 14 2C14 0.895431 13.1046 0 12 0C10.8954 0 10 0.895431 10 2C10 3.10457 10.8954 4 12 4Z" fill="#FFAC33"/>
    <path d="M12 24C12.7073 24 13.3856 23.7191 13.8857 23.219C14.3858 22.7189 14.6667 22.0406 14.6667 21.3333H9.33337C9.33337 22.0406 9.61433 22.7189 10.1144 23.219C10.6145 23.7191 11.2928 24 12 24Z" fill="#FFAC33"/>
    <path d="M20.6687 22.002L2.66471 3.99801C2.48843 3.82173 2.3894 3.58264 2.3894 3.33335C2.3894 3.08405 2.48843 2.84496 2.66471 2.66868L2.66871 2.66468C2.84499 2.4884 3.08408 2.38937 3.33338 2.38937C3.58267 2.38937 3.82176 2.4884 3.99804 2.66468L22.002 20.6687C22.1783 20.845 22.2773 21.084 22.2773 21.3333C22.2773 21.5826 22.1783 21.8217 22.002 21.998L21.998 22.002C21.8218 22.1783 21.5827 22.2773 21.3334 22.2773C21.0841 22.2773 20.845 22.1783 20.6687 22.002V22.002Z" fill="#DD2E44"/>
  </g>

</svg>
