<svg width="24" height="24" viewBox="0 0 24 24" fill="none"
  xmlns="http://www.w3.org/2000/svg">
  <path d="M12 22C12.6193 22.0008 13.2234 21.8086 13.7285 21.4502C14.2335 21.0917 14.6143 20.5849 14.818 20H9.18197C9.38563 20.5849 9.76645 21.0917 10.2715 21.4502C10.7765 21.8086 11.3807 22.0008 12 22V22ZM21 18V16C21.0002 15.8687 20.9744 15.7386 20.9241 15.6172C20.8738 15.4959 20.8 15.3857 20.707 15.293L19 13.586V10C19 6.783 16.815 4.073 13.855 3.258C13.562 2.52 12.846 2 12 2C11.154 2 10.438 2.52 10.145 3.258C8.82197 3.622 7.68197 4.386 6.79897 5.385L3.70697 2.293L2.29297 3.707L20.293 21.707L21.707 20.293L20.345 18.931C20.5364 18.8617 20.702 18.7352 20.8191 18.5687C20.9363 18.4021 20.9994 18.2036 21 18V18ZM12 5C14.757 5 17 7.243 17 10V14C17 14.266 17.105 14.52 17.293 14.707L19 16.414V17H18.414L8.20697 6.793C9.11997 5.705 10.471 5 12 5ZM6.70697 14.707C6.80001 14.6143 6.8738 14.5041 6.92408 14.3828C6.97437 14.2614 7.00016 14.1313 6.99997 14V11.121L5.06797 9.189C5.03697 9.457 4.99997 9.724 4.99997 10V13.586L3.29297 15.293C3.19993 15.3857 3.12614 15.4959 3.07585 15.6172C3.02557 15.7386 2.99978 15.8687 2.99997 16V18C2.99997 18.2652 3.10533 18.5196 3.29286 18.7071C3.4804 18.8946 3.73475 19 3.99997 19H14.879L12.879 17H4.99997V16.414L6.70697 14.707Z" fill="black"/>
</svg>
