<svg width="24" height="24" viewBox="0 0 24 24" fill="none"
  xmlns="http://www.w3.org/2000/svg">
  <path d="M16.281 3.219C16.1761 3.11384 16.0423 3.04219 15.8967 3.01314C15.751 2.98409 15.6 2.99895 15.4628 3.05582C15.3256 3.1127 15.2084 3.20904 15.126 3.33262C15.0436 3.4562 14.9997 3.60147 15 3.75V6.021C12.6 6.153 10.77 6.936 9.471 8.2935C8.055 9.774 7.362 11.835 7.128 14.175C7.112 14.3293 7.14425 14.4848 7.22031 14.62C7.29636 14.7552 7.41248 14.8635 7.55266 14.93C7.69284 14.9965 7.85019 15.0179 8.00302 14.9912C8.15585 14.9645 8.29664 14.891 8.406 14.781C9.822 13.3635 11.118 12.684 12.3 12.345C13.233 12.078 14.1195 12.0165 15 12.003V14.25C14.9997 14.3985 15.0436 14.5438 15.126 14.6674C15.2084 14.791 15.3256 14.8873 15.4628 14.9442C15.6 15.0011 15.751 15.0159 15.8967 14.9869C16.0423 14.9578 16.1761 14.8862 16.281 14.781L21.531 9.531C21.6008 9.46133 21.6563 9.37857 21.6941 9.28745C21.7319 9.19633 21.7513 9.09865 21.7513 9C21.7513 8.90135 21.7319 8.80367 21.6941 8.71255C21.6563 8.62143 21.6008 8.53867 21.531 8.469L16.281 3.219V3.219ZM16.5 6.75V5.5605L19.9395 9L16.5 12.4395V11.25C16.5 11.0511 16.421 10.8603 16.2803 10.7197C16.1397 10.579 15.9489 10.5 15.75 10.5H15.72C14.61 10.5 13.302 10.5 11.8875 10.905C10.841 11.2082 9.85494 11.6903 8.973 12.33C9.303 11.1015 9.822 10.095 10.554 9.33C11.634 8.2035 13.275 7.5 15.75 7.5C15.9489 7.5 16.1397 7.42098 16.2803 7.28033C16.421 7.13968 16.5 6.94891 16.5 6.75ZM4.5 8.25C4.5 7.65326 4.73705 7.08097 5.15901 6.65901C5.58097 6.23705 6.15326 6 6.75 6H8.25C8.44891 6 8.63968 5.92098 8.78033 5.78033C8.92098 5.63968 9 5.44891 9 5.25C9 5.05109 8.92098 4.86032 8.78033 4.71967C8.63968 4.57902 8.44891 4.5 8.25 4.5H6.75C5.75544 4.5 4.80161 4.89509 4.09835 5.59835C3.39509 6.30161 3 7.25544 3 8.25V17.25C3 18.2446 3.39509 19.1984 4.09835 19.9017C4.80161 20.6049 5.75544 21 6.75 21H15.75C16.7446 21 17.6984 20.6049 18.4017 19.9017C19.1049 19.1984 19.5 18.2446 19.5 17.25V15.75C19.5 15.5511 19.421 15.3603 19.2803 15.2197C19.1397 15.079 18.9489 15 18.75 15C18.5511 15 18.3603 15.079 18.2197 15.2197C18.079 15.3603 18 15.5511 18 15.75V17.25C18 17.8467 17.7629 18.419 17.341 18.841C16.919 19.2629 16.3467 19.5 15.75 19.5H6.75C6.15326 19.5 5.58097 19.2629 5.15901 18.841C4.73705 18.419 4.5 17.8467 4.5 17.25V8.25Z" fill="black"/>
</svg>
