<svg width="24" height="24" viewBox="0 0 24 24" fill="none"
  xmlns="http://www.w3.org/2000/svg">
  <path d="M15.75 2.27325L15.258 2.8125C14.1562 4.02525 13.248 4.5675 12.492 4.92225C11.736 5.27625 11.1007 5.382 10.4767 5.85975C9.8115 6.36975 8.84475 7.34775 8.4375 9.09375C7.5645 9.28425 6.9255 9.61875 6.4215 10.0545C5.9235 10.485 5.5485 10.9748 5.0865 11.508C5.08275 11.514 5.08875 11.5253 5.0865 11.5313C4.4235 12.2933 3.84375 13.1138 2.71875 13.5473L2.25 13.7348V21.75H16.5472C17.367 21.7058 17.9355 21.138 18.2812 20.5778C18.6262 20.0183 18.8175 19.4123 18.9142 18.9143C19.1632 17.6453 19.617 13.992 19.617 13.992L19.641 13.9223V13.8518C19.617 13.3448 19.4085 12.9143 19.1482 12.5153L19.992 10.008L21.3285 7.992L21.7035 7.45275L21.2107 7.008L16.2892 2.742L15.75 2.27325ZM15.7972 4.33575L19.7107 7.73475L18.6795 9.25725L18.6097 9.3285L18.5857 9.4455L17.9062 11.4608C17.5515 11.3145 17.1862 11.2118 16.7812 11.2268H16.734L12 11.25H11.25V14.1563C11.145 14.9738 10.6905 15.2903 10.125 15.516C9.9375 15.5918 9.91425 15.5505 9.75 15.5858V11.2275C9.627 8.44725 10.617 7.647 11.391 7.05525C11.6047 6.891 12.231 6.70125 13.125 6.282C13.872 5.93025 14.8005 5.30025 15.7972 4.3365V4.33575ZM8.29725 10.7813C8.29425 10.9515 8.241 11.0715 8.25 11.25V17.25H9C9 17.25 9.8025 17.241 10.6642 16.8983C11.5252 16.5555 12.5655 15.753 12.75 14.3438V12.75L16.7812 12.7268H16.8045C17.1337 12.7087 17.4567 12.8219 17.7027 13.0414C17.9487 13.261 18.0977 13.5691 18.117 13.8983C18.114 13.9103 18.0795 14.1885 18.0705 14.25H15V15.75H17.883C17.8035 16.3298 17.7307 16.6935 17.6482 17.25H15V18.75H17.4142C17.3256 19.1129 17.1833 19.4604 16.992 19.7813C16.7872 20.115 16.611 20.241 16.4535 20.25H3.75V14.6483C4.96575 14.0033 5.72175 13.0755 6.21075 12.516C6.71775 11.9355 7.06575 11.496 7.40625 11.2035C7.629 11.013 7.97775 10.9043 8.29725 10.7813V10.7813Z" fill="black"/>
</svg>
