<svg width="24" height="24" viewBox="0 0 24 24" fill="none"
  xmlns="http://www.w3.org/2000/svg">
  <defs>
    <clipPath id="clip0">
      <rect width="24" height="24" fill="white"/>
    </clipPath>
  </defs>
  <g clip-path="url(#clip0)">
    <path d="M23.5 6.50701C23.3641 6.02225 23.0994 5.58336 22.734 5.23702C22.3583 4.88002 21.8978 4.62465 21.396 4.49501C19.518 4.00001 11.994 4.00002 11.994 4.00002C8.85734 3.96433 5.72144 4.12129 2.60401 4.47001C2.1022 4.60923 1.64257 4.8703 1.26601 5.23002C0.896007 5.58602 0.628007 6.02502 0.488007 6.50602C0.1517 8.31776 -0.0117011 10.1574 6.83166e-06 12C-0.0119932 13.841 0.151007 15.68 0.488007 17.494C0.625007 17.973 0.892007 18.41 1.26301 18.763C1.63401 19.116 2.09601 19.371 2.60401 19.506C4.50701 20 11.994 20 11.994 20C15.1347 20.0358 18.2746 19.8788 21.396 19.53C21.8978 19.4004 22.3583 19.145 22.734 18.788C23.104 18.435 23.367 17.996 23.499 17.518C23.8441 15.707 24.0119 13.8666 24 12.023C24.026 10.1716 23.8584 8.32258 23.5 6.50602V6.50701ZM9.60201 15.424V8.57701L15.862 12.001L9.60201 15.424Z" fill="black"/>
  </g>

</svg>
