<svg id="Layer_1" data-name="Layer 1"
  xmlns="http://www.w3.org/2000/svg" viewBox="0 0 48 48">

  <path d="M42.56,25.32a3,3,0,0,1,0-2.64L44.87,18a1,1,0,0,0-.43-1.32l-4.65-2.47A3,3,0,0,1,38.24,12l-.91-5.19A1,1,0,0,0,36.2,6L31,6.76a3,3,0,0,1-2.51-.82L24.7,2.28a1,1,0,0,0-1.4,0L19.52,5.94A3,3,0,0,1,17,6.76L11.8,6a1,1,0,0,0-1.13.82L9.76,12a3,3,0,0,1-1.55,2.13L3.56,16.63A1,1,0,0,0,3.13,18l2.31,4.73a3,3,0,0,1,0,2.64L3.13,30.05a1,1,0,0,0,.43,1.32l4.65,2.47A3,3,0,0,1,9.76,36l.91,5.19A1,1,0,0,0,11.8,42L17,41.24a3,3,0,0,1,2.51.82l3.78,3.66a1,1,0,0,0,1.4,0l3.78-3.66A3,3,0,0,1,31,41.24L36.2,42a1,1,0,0,0,1.13-.82L38.24,36a3,3,0,0,1,1.55-2.13l4.65-2.47a1,1,0,0,0,.43-1.32Zm-3.71,6.76a5,5,0,0,0-2.58,3.55l-.74,4.23-4.26-.6a5,5,0,0,0-4.18,1.36l-3.09,3-3.09-3a5,5,0,0,0-4.18-1.36l-4.26.6-.74-4.23a5,5,0,0,0-2.58-3.55l-3.8-2L7.24,26.2a5,5,0,0,0,0-4.4L5.35,17.94l3.8-2a5,5,0,0,0,2.58-3.55l.74-4.23,4.26.6a5,5,0,0,0,4.18-1.36l3.09-3,3.09,3a5,5,0,0,0,4.18,1.36l4.26-.6.74,4.23a5,5,0,0,0,2.58,3.55l3.8,2L40.76,21.8a5,5,0,0,0,0,4.4l1.89,3.86Z"/>
  <path d="M24,10A14,14,0,1,0,38,24,14,14,0,0,0,24,10Zm0,26A12,12,0,1,1,36,24,12,12,0,0,1,24,36Z"/>
</svg>