<svg xmlns="http://www.w3.org/2000/svg" viewBox="0 0 32 32">

  <g id="Line">
    <circle class="cls-1" fill="#f5c12e" cx="16" cy="16" r="7"/>
    <path class="cls-2" fill="#f0ab00" d="M16,2a1,1,0,0,0-1,1V7a1,1,0,0,0,2,0V3A1,1,0,0,0,16,2Z"/>
    <path class="cls-2" fill="#f0ab00" d="M16,24a1,1,0,0,0-1,1v4a1,1,0,0,0,2,0V25A1,1,0,0,0,16,24Z"/>
    <path class="cls-2" fill="#f0ab00" d="M8,16a1,1,0,0,0-1-1H3a1,1,0,0,0,0,2H7A1,1,0,0,0,8,16Z"/>
    <path class="cls-2" fill="#f0ab00" d="M29,15H25a1,1,0,0,0,0,2h4a1,1,0,0,0,0-2Z"/>
    <path class="cls-2" fill="#f0ab00" d="M8.93,21.66,7.29,23.29a1,1,0,0,0,0,1.42,1,1,0,0,0,1.42,0l1.63-1.64a1,1,0,0,0-1.41-1.41Z"/>
    <path class="cls-2" fill="#f0ab00" d="M22.36,10.64a1,1,0,0,0,.71-.3l1.64-1.63a1,1,0,1,0-1.42-1.42L21.66,8.93a1,1,0,0,0,0,1.41A1,1,0,0,0,22.36,10.64Z"/>
    <path class="cls-2" fill="#f0ab00" d="M8.71,7.29A1,1,0,1,0,7.29,8.71l1.64,1.63a1,1,0,0,0,1.41,0,1,1,0,0,0,0-1.41Z"/>
    <path class="cls-2" fill="#f0ab00" d="M23.07,21.66a1,1,0,0,0-1.41,1.41l1.63,1.64a1,1,0,0,0,1.42,0,1,1,0,0,0,0-1.42Z"/>
  </g>
</svg>