<svg width="146" height="288" viewBox="0 0 146 288" fill="none"
    xmlns="http://www.w3.org/2000/svg">
    <path d="M103.924 33.6384C103.867 58.2912 76.1039 81.1008 76.1039 81.1008C75.2531 81.7501 74.2132 82.1018 73.1437 82.1018C72.0742 82.1018 71.0343 81.7501 70.1835 81.1008C70.1835 81.1008 42.4205 58.2336 42.4205 33.5808C42.4242 29.534 43.2234 25.5275 44.7723 21.7902C46.3212 18.0529 48.5896 14.6579 51.4478 11.799C54.3061 8.94017 57.6983 6.67345 61.4307 5.1283C65.1632 3.58314 69.1628 2.78981 73.2012 2.79359C77.2396 2.79737 81.2377 3.5982 84.9673 5.15034C88.6968 6.70249 92.0848 8.97555 94.9377 11.8398C97.7906 14.704 100.053 18.1032 101.595 21.8434C103.136 25.5836 103.928 29.5916 103.924 33.6384Z" fill="#F7CE03"/>
    <path d="M73.1724 60.7104C88.1246 60.7104 100.246 48.564 100.246 33.5808C100.246 18.5975 88.1246 6.45117 73.1724 6.45117C58.2203 6.45117 46.0992 18.5975 46.0992 33.5808C46.0992 48.564 58.2203 60.7104 73.1724 60.7104Z" fill="#FFD800"/>
    <path d="M90.1866 21.6576V21.4848C90.1929 21.2605 90.1221 21.0409 89.9861 20.8626C89.85 20.6844 89.657 20.5583 89.4394 20.5056L73.4598 16.4736H72.9425L56.9055 20.5056C56.6878 20.5583 56.4949 20.6844 56.3588 20.8626C56.2228 21.0409 56.152 21.2605 56.1583 21.4848V45.6768C56.152 45.9011 56.2228 46.1208 56.3588 46.299C56.4949 46.4773 56.6878 46.6033 56.9055 46.656L72.885 50.688H73.4024L89.4394 46.656C89.6524 46.6153 89.8441 46.5005 89.9809 46.3319C90.1176 46.1633 90.1905 45.9517 90.1866 45.7344V21.6576Z" fill="#E5BF03"/>
    <path d="M90.1866 26.9568V24.3648L73.9197 28.3968L73.1724 28.512L72.4252 28.3968L56.4457 24.3648H56.1583V27.0144L58.1701 27.4752L72.9425 31.2192H73.4024L88.1748 27.5328L90.1866 26.9568Z" fill="#3F3F3F"/>
    <path d="M56.1583 28.8576V45.6768C56.152 45.9011 56.2228 46.1208 56.3588 46.299C56.4949 46.4773 56.6878 46.6033 56.9055 46.656L72.885 50.688H73.4024L76.8512 49.824V39.8592C76.8449 39.6349 76.9157 39.4152 77.0517 39.237C77.1878 39.0587 77.3808 38.9327 77.5984 38.88L84.2661 37.2096C84.565 37.1504 84.8751 37.2126 85.1283 37.3824C85.255 37.4747 85.3576 37.5961 85.4276 37.7364C85.4977 37.8768 85.533 38.0319 85.5307 38.1888V47.6352L89.4394 46.656C89.6523 46.6153 89.8441 46.5005 89.9809 46.3319C90.1176 46.1633 90.1904 45.9516 90.1866 45.7344V28.9152L73.1724 33.1776L56.1583 28.8576Z" fill="#3F3F3F"/>
    <path d="M72.9425 26.496L56.9055 22.464C56.7026 22.3933 56.5267 22.261 56.4023 22.0855C56.2778 21.9101 56.2109 21.7001 56.2109 21.4848C56.2109 21.2696 56.2778 21.0596 56.4023 20.8841C56.5267 20.7087 56.7026 20.5764 56.9055 20.5056L72.9425 16.4736H73.4598L89.4394 20.5056C89.6423 20.5764 89.8181 20.7087 89.9426 20.8841C90.0671 21.0596 90.134 21.2696 90.134 21.4848C90.134 21.7001 90.0671 21.9101 89.9426 22.0855C89.8181 22.261 89.6423 22.3933 89.4394 22.464L73.4024 26.496H72.9425Z" fill="#3F3F3F"/>
    <path d="M83.5189 39.456L78.863 40.608V49.3056L83.5764 48.1536L83.5189 39.456Z" fill="#3F3F3F"/>
    <path opacity="0.4" d="M73 285.178C110.047 285.178 140.08 255.083 140.08 217.958C140.08 180.834 110.047 150.739 73 150.739C35.953 150.739 5.92048 180.834 5.92048 217.958C5.92048 255.083 35.953 285.178 73 285.178Z" fill="#EAF1F9"/>
    <path d="M73 272.563C103.095 272.563 127.491 248.116 127.491 217.958C127.491 187.801 103.095 163.354 73 163.354C42.9053 163.354 18.5087 187.801 18.5087 217.958C18.5087 248.116 42.9053 272.563 73 272.563Z" fill="#EAF1F9"/>
    <path d="M30.752 218.938L73 218.995L73.1724 51.1488L30.752 218.938Z" fill="#12AD54"/>
    <path d="M115.248 219.053L73 218.995L73.1724 51.1488L115.248 219.053Z" fill="#109E49"/>
    <path d="M73 259.891C96.1107 259.891 114.846 241.117 114.846 217.958C114.846 194.8 96.1107 176.026 73 176.026C49.8893 176.026 31.1543 194.8 31.1543 217.958C31.1543 241.117 49.8893 259.891 73 259.891Z" fill="#FFD800"/>
</svg>
