<svg xmlns="http://www.w3.org/2000/svg" viewBox="0 0 375 808">

  <g id="Layer_3">
    <linearGradient id="SVGID_1_" x1="192.311" x2="186.311" y1=".783" y2="546.783" gradientUnits="userSpaceOnUse">
      <stop offset="0" stop-color="#ff653f"/>
      <stop offset=".49" stop-color="#ff8f9b"/>
      <stop offset="1" stop-color="#ffbcff"/>
    </linearGradient>
    <path fill="url(#SVGID_1_)" stroke="#f4ba6e" stroke-miterlimit="10" d="M334.37 809.26h-293c-22.64 0-41-18.36-41-41v-727c0-22.64 18.36-41 41-41h293c22.64 0 41 18.36 41 41v727c0 22.64-18.35 41-41 41z"/>
    <path d="M103.32 560.76H22.2c-11.73 0-21.33 9.6-21.33 21.33v-131.4c.63-.65 1.36-1.35 2.15-2.06 5.18-4.72 13-10.48 16.5-13.01-.27-.74-.41-1.55-.41-2.39 0-1.8.66-3.45 1.77-4.71.04-.04.07-.08.12-.13.05-.05.09-.1.15-.15.2-.2.45-.43.73-.66 1.24-1.07 3.08-2.4 4.13-3.14.01-.47.03-1.13.05-1.94-.85-.34-1.44-1.08-1.44-1.93 0-.89.63-1.66 1.54-1.98.01-.49.02-1 .04-1.52-.61-.28-1.03-.83-1.03-1.46 0-.66.45-1.23 1.11-1.49.21-7.03.52-14.96.81-15.86.3.9.6 8.83.82 15.86.66.26 1.11.83 1.11 1.49 0 .63-.42 1.18-1.03 1.46.02.52.03 1.03.04 1.52.91.32 1.54 1.09 1.54 1.98 0 .85-.59 1.59-1.44 1.93.02.8.04 1.46.05 1.94 1.05.74 2.89 2.07 4.13 3.14.07.06.14.11.2.17.14.12.26.23.37.33.17.16.32.31.43.44a7.146 7.146 0 011.77 4.71c0 .72-.1 1.41-.31 2.07 3.22 2.31 11.54 8.4 16.95 13.33 1.15 1.04 2.17 2.04 2.98 2.93.29.35.58.7.84 1.07-1.23-7.81-2.17-16.12-2.17-16.12l.13-.02c-.09-1.07-.13-2.14-.13-3.23 0-5.91 1.28-11.52 3.58-16.57 1.52-3.32 3.47-6.39 5.8-9.15 1.47-1.63 3.32-3.43 5.4-5.32 9.41-8.57 23.62-19.04 29.96-23.63a12.91 12.91 0 01-.74-4.33c0-3.27 1.21-6.27 3.21-8.55.07-.08.14-.16.23-.25.08-.08.16-.17.26-.26.37-.37.82-.78 1.33-1.21 2.25-1.93 5.6-4.35 7.5-5.7.02-.85.05-2.05.09-3.52-1.55-.62-2.62-1.96-2.62-3.51 0-1.61 1.15-3 2.8-3.58.02-.89.04-1.82.07-2.77-1.11-.5-1.87-1.5-1.87-2.65 0-1.2.83-2.24 2.02-2.71.39-12.76.94-27.16 1.48-28.79.54 1.63 1.09 16.03 1.48 28.79 1.19.47 2.02 1.51 2.02 2.71 0 1.15-.76 2.15-1.87 2.65.03.95.05 1.88.07 2.77 1.65.58 2.8 1.97 2.8 3.58 0 1.55-1.07 2.89-2.62 3.51.04 1.46.07 2.66.09 3.52 1.9 1.35 5.25 3.77 7.5 5.7.13.11.25.21.37.32.24.21.47.41.67.6.31.29.57.56.78.8 2 2.28 3.21 5.28 3.21 8.55 0 1.3-.19 2.56-.56 3.75 5.85 4.2 20.94 15.25 30.78 24.21 2.08 1.89 3.93 3.69 5.4 5.32 2.33 2.76 4.28 5.83 5.8 9.15 2.3 5.05 3.58 10.66 3.58 16.57 0 6.32-1.47 12.31-4.09 17.63 1.68.9 2.98 1.23 3.85 1.35.24-1.39.66-2.73 1.23-3.98.63-1.38 1.44-2.66 2.41-3.8.61-.68 1.37-1.43 2.24-2.21 3.91-3.56 9.81-7.91 12.44-9.81a5.36 5.36 0 01-.31-1.8c0-1.36.5-2.6 1.33-3.55.03-.03.06-.07.1-.1.03-.04.07-.08.11-.11.15-.16.34-.33.55-.51.93-.8 2.33-1.8 3.11-2.36.01-.36.03-.85.04-1.46-.64-.26-1.09-.82-1.09-1.46 0-.67.48-1.25 1.17-1.49 0-.37.01-.75.03-1.15-.47-.21-.78-.62-.78-1.1 0-.5.34-.93.84-1.12.16-5.3.39-11.28.61-11.96.23.68.46 6.66.62 11.96.49.19.84.62.84 1.12 0 .48-.32.89-.78 1.1l.03 1.15c.68.24 1.16.82 1.16 1.49 0 .64-.44 1.2-1.09 1.46.02.6.03 1.1.04 1.46.79.56 2.18 1.56 3.11 2.36.06.05.11.09.16.14.1.08.19.17.28.25.13.12.23.23.32.33a5.403 5.403 0 011.1 5.11c2.43 1.74 8.7 6.33 12.78 10.05.87.78 1.63 1.53 2.24 2.21.28.32.54.66.79 1.01l5.11 14.29c-.07-.01 1.95 1.05 2 1M227.37 454.14v-25.06c-.31.12-.65.18-1 .18-1.66 0-3-1.34-3-3 0-1.31.83-2.42 2-2.82v-12.3c-1.17-.27-2-1.01-2-1.88s.83-1.61 2-1.88v-6.62c0-.23.01-.46.02-.69.18-2.5 1.33-4.74 3.08-6.33 1.91-2.52 5.95-7.22 8.9-6.48 0 0-.68-2.11 2.12-5.13l-.05-.08-1.07-1.79 2-2-1-1 .63-.62.87-7.88.81 7.81.69.69-1 1 2 2-1.07 1.79-.05.08c2.81 3.02 2.19 5.13 2.19 5.13 3.05-.76 7.27 4.3 9.1 6.74a9.482 9.482 0 012.81 6.07c.01.23.02.46.02.69v6.62c1.17.27 2 1.01 2 1.88s-.83 1.61-2 1.88v12.3c1.17.4 2 1.51 2 2.82 0 1.66-1.34 3-3 3-.35 0-.69-.06-1-.18v46.18h10l-4 13h-3" class="st1" fill="#f49886"/>
    <path d="M227.37 457.14v-25.06c-.31.12-.65.18-1 .18-1.66 0-3-1.34-3-3 0-1.31.83-2.42 2-2.82v-12.3c-1.17-.27-2-1.01-2-1.88s.83-1.61 2-1.88v-6.62c0-.23.01-.46.02-.69.18-2.5 1.33-4.74 3.08-6.33 1.91-2.52 5.95-7.22 8.9-6.48 0 0-.68-2.11 2.12-5.13l-.05-.08-1.07-1.79 2-2-1-1 .63-.62.87-7.88.81 7.81.69.69-1 1 2 2-1.07 1.79-.05.08c2.81 3.02 2.19 5.13 2.19 5.13 3.05-.76 7.27 4.3 9.1 6.74a9.482 9.482 0 012.81 6.07c.01.23.02.46.02.69v6.62c1.17.27 2 1.01 2 1.88s-.83 1.61-2 1.88v12.3c1.17.4 2 1.51 2 2.82 0 1.66-1.34 3-3 3-.35 0-.69-.06-1-.18v46.18h10l-4 13h-3l-36.5 11.5 1-32 5.5-13.62zM322.37 408.26l.64 7c-12.85 3.62-25.7 1.63-34.27-6.4v-.01l1.52-5.67 2.11-7.92-9-20v-32h-8l8-3.73v-27.77h-15.5l15.46-7.21c.04-.29.04-1.47.04-1.47-.21-.07-.4-.16-.58-.27a3 3 0 01-1.42-2.55c0-.92.41-1.74 1.06-2.28.65-7.68 7.09-13.72 14.94-13.72.1 0 .21 0 .31.01l1.44-13.63 1.44 13.63c.1-.01.21-.01.31-.01 7.85 0 14.29 6.04 14.94 13.72a2.95 2.95 0 011.06 2.28 3 3 0 01-1.42 2.55c-.18.11-.37.2-.58.27 0 0 .03 1.47.04 1.47l15.46 7.21h-15.5v27.77l8 3.73h-8v32l3.31 14.57 4.19 18.43z" class="st1" fill="#f49886"/>
    <circle cx="191.87" cy="407.76" r="191.5" fill="#fffcc2" opacity=".05"/>
    <circle cx="191.87" cy="407.76" r="145.5" class="st3" opacity=".11" fill="#fffcc2"/>
    <circle cx="191.87" cy="407.76" r="101.5" class="st4" opacity=".31" fill="#fffcc2"/>
    <path d="M100.37 533.26c0 1.1-.9 2-2 2v25.5H82.05l-.51-.07a19.81 19.81 0 00-2.71-4.49c-.14-.17-.3-.34-.46-.52v-20.42c-1.1 0-2-.9-2-2 0-.74.4-1.38 1-1.73v-7.27l-2-2 2-2v-5c0-1.33.52-2.54 1.38-3.44l.18-.18c.04-.04.09-.08.14-.13.04-.04.08-.08.13-.12 1.13-1.07 4.18-3.83 7.13-5.56-.58-.36-.96-.93-.96-1.57 0-.99.9-1.82 2.09-1.97l.91-10.03.91 10.03c1.19.15 2.09.98 2.09 1.97 0 .64-.38 1.21-.96 1.57 2.95 1.73 6 4.49 7.13 5.56.05.04.09.08.13.12.05.05.1.09.14.13l.18.18c.86.9 1.38 2.11 1.38 3.44v5l2 2-2 2v7.27c.6.35 1 .99 1 1.73z" class="st5" fill="#ad6c62"/>
    <path d="M82.08 560.72l-59.85.06C10.5 560.79.91 570.4.92 582.13l-.09-93.31c.95.7 1.92 1.46 2.71 2.13l.26.23c.17.15.34.3.48.43.23.21.41.41.56.58a9.28 9.28 0 012.31 6.13c0 .93-.13 1.83-.4 2.68 4.19 3.01 15.02 10.92 22.08 17.34 1.49 1.35 2.82 2.64 3.87 3.81 1.67 1.98 3.07 4.18 4.17 6.56 0 0 2.59 12.65 1.77 21.56 3.86-3.32 8.21-6.56 10.43-8.25-.23-.66-.35-1.38-.35-2.12 0-1.6.57-3.07 1.5-4.19.03-.04.06-.08.11-.12a.71.71 0 01.12-.13c.17-.18.38-.38.62-.6 1.05-.94 2.61-2.13 3.49-2.79.01-.42.03-1 .04-1.73-.72-.3-1.22-.96-1.22-1.72 0-.78.54-1.47 1.31-1.75l.03-1.36c-.52-.24-.87-.73-.87-1.3 0-.59.39-1.1.94-1.33.17-6.25.43-13.31.68-14.11.25.8.52 7.86.7 14.11.56.23.94.74.94 1.33 0 .57-.35 1.06-.87 1.3l.03 1.36c.77.28 1.31.97 1.31 1.75 0 .76-.5 1.42-1.22 1.72.02.72.03 1.31.04 1.73.89.66 2.45 1.85 3.5 2.79.06.06.11.11.17.16.11.1.22.2.31.3.14.14.27.27.36.39a6.5 6.5 0 011.5 4.19c0 .64-.09 1.25-.26 1.84 2.73 2.06 9.77 7.46 14.36 11.86.76.72 1.46 1.43 2.05 2.08.16.18.32.35.46.52 1.09 1.36 2 2.86 2.71 4.49l.52.03z" class="st5" fill="#ad6c62"/>
    <circle cx="191.87" cy="407.76" r="62" class="st6" opacity=".63" fill="#fffcc2"/>
    <path d="M375.37 332.45v245.08c-2.1-9.56-10.66-16.77-20.83-16.77H103.32l10.05-8.5-1-1 4-3v-12l1 4h1l-.09-40.55v-24.32h-5.89l5.89-2.84v-21.1h-11.41l11.38-5.48c.03-.22.03-1.12.03-1.12-.16-.05-.3-.12-.43-.21-.62-.4-1.04-1.11-1.04-1.93 0-.7.3-1.33.78-1.74.47-5.83 5.21-10.42 10.99-10.42h.23l1.06-10.36 1.06 10.36h.23c5.78 0 10.52 4.59 10.99 10.42.48.41.78 1.04.78 1.74 0 .82-.42 1.53-1.04 1.93-.13.09-.27.16-.43.21 0 0 .02 1.12.03 1.12l11.38 5.48h-11.41v21.1l5.89 2.84h-5.89v39.45l1.07 1.08 1.23-1.23 1.23 1.23 1.23-1.23 1.23 1.23 1.23-1.23 1.22 1.23 1.23-1.23 1.23 1.23 1.23-1.23 1.23 1.23 1.22-1.23 1.23 1.23 1.23-1.23 1.23 1.23 1.23-1.23 1.23 1.23 1.18-1.19v-29.24c-.62-.54-1-1.34-1-2.23 0-1.66 3-4 3-4s3 2.34 3 4c0 .89-.38 1.69-1 2.23v6.77h1v-3h2v3h1v-3h2v3h1v-3h2v3h1v-3h1v-1.77c-.62-.54-1-1.34-1-2.23 0-1.66 3-4 3-4s3 2.34 3 4c0 .89-.38 1.69-1 2.23v4.77h1v-3h2v3h1v-3h2v3h1v-3h2v3h1v-3h2v3h1v-3h2v3h1v-3h2v-5.84c-.61-.54-1-1.31-1-2.16 0-1.66 3.25-4 3.25-4s3.25 2.34 3.25 4c0 .59-.18 1.14-.5 1.6v2.75l1.67-.78v-18.22h-10.17l10.14-4.73c.03-.19.03-.96.03-.96-.14-.05-.26-.1-.38-.18-.56-.34-.93-.96-.93-1.67 0-.6.26-1.14.69-1.49.43-5.04 4.65-9.01 9.8-9.01.07 0 .14 0 .21.01l.33-3.11.61-5.83.88 8.36.06.58c.07-.01.13-.01.2-.01h.01c3.9 0 7.26 2.27 8.85 5.57.52 1.05.85 2.21.95 3.44.43.35.69.89.69 1.49 0 .71-.37 1.33-.93 1.67-.12.08-.24.13-.38.18 0 0 .02.96.03.96l10.14 4.73H227.7v18.22l5.25 2.45h-5.25v4.98h1.67v-3h2v3h1v-3h2v3h1v-3h2v-4.84c-.61-.54-1-1.31-1-2.16 0-1.66 3.25-4 3.25-4s3.25 2.34 3.25 4c0 .59-.18 1.14-.5 1.6v5.4h1v3h1v-3h2v3h1v-3h2v3h1v-3h1v-3.84c-.61-.54-1-1.31-1-2.16 0-1.66 3.25-4 3.25-4s3.25 2.34 3.25 4c0 .59-.18 1.14-.5 1.6v6.4h1v-3h3l4-13h-10s3.26-1.63 6.97-2.48c1.33-.31 2.71-.52 4.03-.52l.42-2h.12c-.04-.02-.08-.04-.11-.06-.01 0-.01-.01-.02-.01l-.01.07a2.501 2.501 0 01-1.57-4.36c.35-1.76 1.51-3.67 3.32-5.21 1.61-1.36 3.43-2.18 5.08-2.39l.22-2.9.55-7.14.98 6.4.56 3.64c1.65.2 3.48 1.02 5.09 2.39 1 .85 1.8 1.81 2.37 2.79v-8.22h-3v-38s1-3 4-2v-3l-1-2 3.23-4.85c.01.01.03.02.04.03a.138.138 0 01-.03-.04l-.01.01c-5.48-4.08-8.63-12.1-7.51-20.81.4-3.13 1.32-6.04 2.63-8.6.64-2.6 1.52-5.21 2.65-7.78 2.91-6.68 7.41-13.15 13.41-18.75.89-.83 1.79-1.63 2.71-2.38v-.01c1.62-1.95 3.37-3.82 5.29-5.61 3.18-2.97 6.58-5.51 10.09-7.6 5.06-3.04 10.37-5.15 15.63-6.3-.13.96-.13 1.69-.13 1.69l.13-1.69c.24-1.77.92-4.31 2.87-4.31v-3c0 1 2 1 2 1v-7l-2-3-2 1v-6l5-2-1-2s6.94-2.08 11-2.19v-1.91a5 5 0 010-9.8v-1.28c-1.17-.4-2-1.51-2-2.82s.83-2.42 2-2.82v-6.52c-2.99-1.73-5-4.96-5-8.66 0-2.7 1.07-5.15 2.82-6.95a9.832 9.832 0 00-.82 3.95c0 5.52 4.48 10 10 10a9.94 9.94 0 007.18-3.05 9.985 9.985 0 01-11.68 5.73v5.72c.9.52 1.5 1.49 1.5 2.6s-.6 2.08-1.5 2.6v1.62a5.013 5.013 0 010 9.56v2.02c3.95-.07 11.5 2.2 11.5 2.2l-1 2 5 2v6l-2-1-2 3v7s2 0 2-1v3c2.26 0 2.82 3.42 2.95 5.09 3.38.98 6.76 2.35 10.05 4.1z" class="st5" fill="#ad6c62"/>
    <linearGradient id="SVGID_2_" x1="171.12" x2="208.213" y1="541.173" y2="825.861" gradientUnits="userSpaceOnUse">
      <stop offset="0" stop-color="#c0806b"/>
      <stop offset=".002" stop-color="#c0806b"/>
      <stop offset=".231" stop-color="#d79a6c"/>
      <stop offset=".469" stop-color="#e7ac6d"/>
      <stop offset=".719" stop-color="#f1b66e"/>
      <stop offset="1" stop-color="#f4ba6e"/>
    </linearGradient>
    <path fill="url(#SVGID_2_)" d="M375.37 577.53v190.13c0 .8-.02 1.59-.07 2.38v.04c-3.17 20.02-19.09 35.94-39.11 39.11h-.04c-.79.05-1.58.07-2.38.07H41.97c-.34 0-.68 0-1.01-.01C18.35 805.88.87 786.26.87 762.76V582.09c0-11.73 9.6-21.33 21.33-21.33h332.34c10.17 0 18.73 7.21 20.83 16.77z" opacity=".92"/>
    <path fill="#d79e6f" d="M343.71 711.26H30.04c-7.55 0-13.67-6.12-13.67-13.67v-36.67c0-7.55 6.12-13.67 13.67-13.67h313.67c7.55 0 13.67 6.12 13.67 13.67v36.67c-.01 7.55-6.13 13.67-13.67 13.67z" opacity=".72"/>
    <path d="M85.37 525.26l3.5-3 3.5 3v7h-7zM349.87 412.76s-6 4-8 5-5.11 3.21-5.55 7.6c-.45 4.4-.45 24.4-.45 24.4h24v-22s0-4 2-6c0 0-5.5-4.5-7.5-5.5s-4.5-3.5-4.5-3.5zM314.06 417.89c-.26.15-.5.27-.69.37-2 1-5.11 3.21-5.55 7.6-.39 3.81-.44 19.3-.45 23.4h-15s0-20 .45-24.4c.44-4.39 3.55-6.6 5.55-7.6s8-5 8-5 2.5 2.5 4.5 3.5c.74.37 1.95 1.22 3.19 2.13z" class="st8" fill="#f3967a" stroke="#ad6c62" stroke-miterlimit="10"/>
    <linearGradient id="SVGID_3_" x1="192.316" x2="186.31" y1=".338" y2="546.94" gradientUnits="userSpaceOnUse">
      <stop offset="0" stop-color="#ff653f"/>
      <stop offset=".49" stop-color="#ff8f9b"/>
      <stop offset="1" stop-color="#ffbcff"/>
    </linearGradient>
    <path fill="url(#SVGID_3_)" stroke="#f4ba6e" stroke-miterlimit="10" d="M.37.26h375v809H.37z"/>
    <path d="M103.32 560.76H22.2c-11.73 0-21.33 9.6-21.33 21.33v-131.4c.63-.65 1.36-1.35 2.15-2.06 5.18-4.72 13-10.48 16.5-13.01-.27-.74-.41-1.55-.41-2.39 0-1.8.66-3.45 1.77-4.71.04-.04.07-.08.12-.13.05-.05.09-.1.15-.15.2-.2.45-.43.73-.66 1.24-1.07 3.08-2.4 4.13-3.14.01-.47.03-1.13.05-1.94-.85-.34-1.44-1.08-1.44-1.93 0-.89.63-1.66 1.54-1.98.01-.49.02-1 .04-1.52-.61-.28-1.03-.83-1.03-1.46 0-.66.45-1.23 1.11-1.49.21-7.03.52-14.96.81-15.86.3.9.6 8.83.82 15.86.66.26 1.11.83 1.11 1.49 0 .63-.42 1.18-1.03 1.46.02.52.03 1.03.04 1.52.91.32 1.54 1.09 1.54 1.98 0 .85-.59 1.59-1.44 1.93.02.8.04 1.46.05 1.94 1.05.74 2.89 2.07 4.13 3.14.07.06.14.11.2.17.14.12.26.23.37.33.17.16.32.31.43.44a7.146 7.146 0 011.77 4.71c0 .72-.1 1.41-.31 2.07 3.22 2.31 11.54 8.4 16.95 13.33 1.15 1.04 2.17 2.04 2.98 2.93.29.35.58.7.84 1.07-1.23-7.81-2.17-16.12-2.17-16.12l.13-.02c-.09-1.07-.13-2.14-.13-3.23 0-5.91 1.28-11.52 3.58-16.57 1.52-3.32 3.47-6.39 5.8-9.15 1.47-1.63 3.32-3.43 5.4-5.32 9.41-8.57 23.62-19.04 29.96-23.63a12.91 12.91 0 01-.74-4.33c0-3.27 1.21-6.27 3.21-8.55.07-.08.14-.16.23-.25.08-.08.16-.17.26-.26.37-.37.82-.78 1.33-1.21 2.25-1.93 5.6-4.35 7.5-5.7.02-.85.05-2.05.09-3.52-1.55-.62-2.62-1.96-2.62-3.51 0-1.61 1.15-3 2.8-3.58.02-.89.04-1.82.07-2.77-1.11-.5-1.87-1.5-1.87-2.65 0-1.2.83-2.24 2.02-2.71.39-12.76.94-27.16 1.48-28.79.54 1.63 1.09 16.03 1.48 28.79 1.19.47 2.02 1.51 2.02 2.71 0 1.15-.76 2.15-1.87 2.65.03.95.05 1.88.07 2.77 1.65.58 2.8 1.97 2.8 3.58 0 1.55-1.07 2.89-2.62 3.51.04 1.46.07 2.66.09 3.52 1.9 1.35 5.25 3.77 7.5 5.7.13.11.25.21.37.32.24.21.47.41.67.6.31.29.57.56.78.8 2 2.28 3.21 5.28 3.21 8.55 0 1.3-.19 2.56-.56 3.75 5.85 4.2 20.94 15.25 30.78 24.21 2.08 1.89 3.93 3.69 5.4 5.32 2.33 2.76 4.28 5.83 5.8 9.15 2.3 5.05 3.58 10.66 3.58 16.57 0 6.32-1.47 12.31-4.09 17.63 1.68.9 2.98 1.23 3.85 1.35.24-1.39.66-2.73 1.23-3.98.63-1.38 1.44-2.66 2.41-3.8.61-.68 1.37-1.43 2.24-2.21 3.91-3.56 9.81-7.91 12.44-9.81a5.36 5.36 0 01-.31-1.8c0-1.36.5-2.6 1.33-3.55.03-.03.06-.07.1-.1.03-.04.07-.08.11-.11.15-.16.34-.33.55-.51.93-.8 2.33-1.8 3.11-2.36.01-.36.03-.85.04-1.46-.64-.26-1.09-.82-1.09-1.46 0-.67.48-1.25 1.17-1.49 0-.37.01-.75.03-1.15-.47-.21-.78-.62-.78-1.1 0-.5.34-.93.84-1.12.16-5.3.39-11.28.61-11.96.23.68.46 6.66.62 11.96.49.19.84.62.84 1.12 0 .48-.32.89-.78 1.1l.03 1.15c.68.24 1.16.82 1.16 1.49 0 .64-.44 1.2-1.09 1.46.02.6.03 1.1.04 1.46.79.56 2.18 1.56 3.11 2.36.06.05.11.09.16.14.1.08.19.17.28.25.13.12.23.23.32.33a5.403 5.403 0 011.1 5.11c2.43 1.74 8.7 6.33 12.78 10.05.87.78 1.63 1.53 2.24 2.21.28.32.54.66.79 1.01l5.11 14.29c-.07-.01 1.95 76.05 2 76M227.37 454.14v-25.06c-.31.12-.65.18-1 .18-1.66 0-3-1.34-3-3 0-1.31.83-2.42 2-2.82v-12.3c-1.17-.27-2-1.01-2-1.88s.83-1.61 2-1.88v-6.62c0-.23.01-.46.02-.69.18-2.5 1.33-4.74 3.08-6.33 1.91-2.52 5.95-7.22 8.9-6.48 0 0-.68-2.11 2.12-5.13l-.05-.08-1.07-1.79 2-2-1-1 .63-.62.87-7.88.81 7.81.69.69-1 1 2 2-1.07 1.79-.05.08c2.81 3.02 2.19 5.13 2.19 5.13 3.05-.76 7.27 4.3 9.1 6.74a9.482 9.482 0 012.81 6.07c.01.23.02.46.02.69v6.62c1.17.27 2 1.01 2 1.88s-.83 1.61-2 1.88v12.3c1.17.4 2 1.51 2 2.82 0 1.66-1.34 3-3 3-.35 0-.69-.06-1-.18v46.18h10l-4 13h-3" class="st1" fill="#f49886"/>
    <path d="M227.37 457.14v-25.06c-.31.12-.65.18-1 .18-1.66 0-3-1.34-3-3 0-1.31.83-2.42 2-2.82v-12.3c-1.17-.27-2-1.01-2-1.88s.83-1.61 2-1.88v-6.62c0-.23.01-.46.02-.69.18-2.5 1.33-4.74 3.08-6.33 1.91-2.52 5.95-7.22 8.9-6.48 0 0-.68-2.11 2.12-5.13l-.05-.08-1.07-1.79 2-2-1-1 .63-.62.87-7.88.81 7.81.69.69-1 1 2 2-1.07 1.79-.05.08c2.81 3.02 2.19 5.13 2.19 5.13 3.05-.76 7.27 4.3 9.1 6.74a9.482 9.482 0 012.81 6.07c.01.23.02.46.02.69v6.62c1.17.27 2 1.01 2 1.88s-.83 1.61-2 1.88v12.3c1.17.4 2 1.51 2 2.82 0 1.66-1.34 3-3 3-.35 0-.69-.06-1-.18v46.18h10l-4 13h-3l-36.5 11.5 1-32 5.5-13.62zM322.37 408.26l.64 7c-12.85 3.62-25.7 1.63-34.27-6.4v-.01l1.52-5.67 2.11-7.92-9-20v-32h-8l8-3.73v-27.77h-15.5l15.46-7.21c.04-.29.04-1.47.04-1.47-.21-.07-.4-.16-.58-.27a3 3 0 01-1.42-2.55c0-.92.41-1.74 1.06-2.28.65-7.68 7.09-13.72 14.94-13.72.1 0 .21 0 .31.01l1.44-13.63 1.44 13.63c.1-.01.21-.01.31-.01 7.85 0 14.29 6.04 14.94 13.72a2.95 2.95 0 011.06 2.28 3 3 0 01-1.42 2.55c-.18.11-.37.2-.58.27 0 0 .03 1.47.04 1.47l15.46 7.21h-15.5v27.77l8 3.73h-8v32l3.31 14.57 4.19 18.43z" class="st1" fill="#f49886"/>
    <circle cx="191.87" cy="407.76" r="191.5" fill="#fffcc2" opacity=".13"/>
    <circle cx="191.87" cy="407.76" r="145.5" class="st3" opacity=".11" fill="#fffcc2"/>
    <circle cx="191.87" cy="407.76" r="101.5" class="st4" opacity=".31" fill="#fffcc2"/>
    <path d="M100.37 533.26c0 1.1-.9 2-2 2v25.5H82.05l-.51-.07a19.81 19.81 0 00-2.71-4.49c-.14-.17-.3-.34-.46-.52v-20.42c-1.1 0-2-.9-2-2 0-.74.4-1.38 1-1.73v-7.27l-2-2 2-2v-5c0-1.33.52-2.54 1.38-3.44l.18-.18c.04-.04.09-.08.14-.13.04-.04.08-.08.13-.12 1.13-1.07 4.18-3.83 7.13-5.56-.58-.36-.96-.93-.96-1.57 0-.99.9-1.82 2.09-1.97l.91-10.03.91 10.03c1.19.15 2.09.98 2.09 1.97 0 .64-.38 1.21-.96 1.57 2.95 1.73 6 4.49 7.13 5.56.05.04.09.08.13.12.05.05.1.09.14.13l.18.18c.86.9 1.38 2.11 1.38 3.44v5l2 2-2 2v7.27c.6.35 1 .99 1 1.73z" class="st5" fill="#ad6c62"/>
    <path d="M82.08 560.72l-59.85.06C10.5 560.79.91 570.4.92 582.13l-.09-93.31c.95.7 1.92 1.46 2.71 2.13l.26.23c.17.15.34.3.48.43.23.21.41.41.56.58a9.28 9.28 0 012.31 6.13c0 .93-.13 1.83-.4 2.68 4.19 3.01 15.02 10.92 22.08 17.34 1.49 1.35 2.82 2.64 3.87 3.81 1.67 1.98 3.07 4.18 4.17 6.56 0 0 2.59 12.65 1.77 21.56 3.86-3.32 8.21-6.56 10.43-8.25-.23-.66-.35-1.38-.35-2.12 0-1.6.57-3.07 1.5-4.19.03-.04.06-.08.11-.12a.71.71 0 01.12-.13c.17-.18.38-.38.62-.6 1.05-.94 2.61-2.13 3.49-2.79.01-.42.03-1 .04-1.73-.72-.3-1.22-.96-1.22-1.72 0-.78.54-1.47 1.31-1.75l.03-1.36c-.52-.24-.87-.73-.87-1.3 0-.59.39-1.1.94-1.33.17-6.25.43-13.31.68-14.11.25.8.52 7.86.7 14.11.56.23.94.74.94 1.33 0 .57-.35 1.06-.87 1.3l.03 1.36c.77.28 1.31.97 1.31 1.75 0 .76-.5 1.42-1.22 1.72.02.72.03 1.31.04 1.73.89.66 2.45 1.85 3.5 2.79.06.06.11.11.17.16.11.1.22.2.31.3.14.14.27.27.36.39a6.5 6.5 0 011.5 4.19c0 .64-.09 1.25-.26 1.84 2.73 2.06 9.77 7.46 14.36 11.86.76.72 1.46 1.43 2.05 2.08.16.18.32.35.46.52 1.09 1.36 2 2.86 2.71 4.49l.52.03z" class="st5" fill="#ad6c62"/>
    <circle cx="191.87" cy="407.76" r="62" class="st6" opacity=".63" fill="#fffcc2"/>
    <path d="M375.37 332.45v245.08c-2.1-9.56-10.66-16.77-20.83-16.77H103.32l10.05-8.5-1-1 4-3v-12l1 4h1l-.09-40.55v-24.32h-5.89l5.89-2.84v-21.1h-11.41l11.38-5.48c.03-.22.03-1.12.03-1.12-.16-.05-.3-.12-.43-.21-.62-.4-1.04-1.11-1.04-1.93 0-.7.3-1.33.78-1.74.47-5.83 5.21-10.42 10.99-10.42h.23l1.06-10.36 1.06 10.36h.23c5.78 0 10.52 4.59 10.99 10.42.48.41.78 1.04.78 1.74 0 .82-.42 1.53-1.04 1.93-.13.09-.27.16-.43.21 0 0 .02 1.12.03 1.12l11.38 5.48h-11.41v21.1l5.89 2.84h-5.89v39.45l1.07 1.08 1.23-1.23 1.23 1.23 1.23-1.23 1.23 1.23 1.23-1.23 1.22 1.23 1.23-1.23 1.23 1.23 1.23-1.23 1.23 1.23 1.22-1.23 1.23 1.23 1.23-1.23 1.23 1.23 1.23-1.23 1.23 1.23 1.18-1.19v-29.24c-.62-.54-1-1.34-1-2.23 0-1.66 3-4 3-4s3 2.34 3 4c0 .89-.38 1.69-1 2.23v6.77h1v-3h2v3h1v-3h2v3h1v-3h2v3h1v-3h1v-1.77c-.62-.54-1-1.34-1-2.23 0-1.66 3-4 3-4s3 2.34 3 4c0 .89-.38 1.69-1 2.23v4.77h1v-3h2v3h1v-3h2v3h1v-3h2v3h1v-3h2v3h1v-3h2v3h1v-3h2v-5.84c-.61-.54-1-1.31-1-2.16 0-1.66 3.25-4 3.25-4s3.25 2.34 3.25 4c0 .59-.18 1.14-.5 1.6v2.75l1.67-.78v-18.22h-10.17l10.14-4.73c.03-.19.03-.96.03-.96-.14-.05-.26-.1-.38-.18-.56-.34-.93-.96-.93-1.67 0-.6.26-1.14.69-1.49.43-5.04 4.65-9.01 9.8-9.01.07 0 .14 0 .21.01l.33-3.11.61-5.83.88 8.36.06.58c.07-.01.13-.01.2-.01h.01c3.9 0 7.26 2.27 8.85 5.57.52 1.05.85 2.21.95 3.44.43.35.69.89.69 1.49 0 .71-.37 1.33-.93 1.67-.12.08-.24.13-.38.18 0 0 .02.96.03.96l10.14 4.73H227.7v18.22l5.25 2.45h-5.25v4.98h1.67v-3h2v3h1v-3h2v3h1v-3h2v-4.84c-.61-.54-1-1.31-1-2.16 0-1.66 3.25-4 3.25-4s3.25 2.34 3.25 4c0 .59-.18 1.14-.5 1.6v5.4h1v3h1v-3h2v3h1v-3h2v3h1v-3h1v-3.84c-.61-.54-1-1.31-1-2.16 0-1.66 3.25-4 3.25-4s3.25 2.34 3.25 4c0 .59-.18 1.14-.5 1.6v6.4h1v-3h3l4-13h-10s3.26-1.63 6.97-2.48c1.33-.31 2.71-.52 4.03-.52l.42-2h.12c-.04-.02-.08-.04-.11-.06-.01 0-.01-.01-.02-.01l-.01.07a2.501 2.501 0 01-1.57-4.36c.35-1.76 1.51-3.67 3.32-5.21 1.61-1.36 3.43-2.18 5.08-2.39l.22-2.9.55-7.14.98 6.4.56 3.64c1.65.2 3.48 1.02 5.09 2.39 1 .85 1.8 1.81 2.37 2.79v-8.22h-3v-38s1-3 4-2v-3l-1-2 3.23-4.85c.01.01.03.02.04.03a.138.138 0 01-.03-.04l-.01.01c-5.48-4.08-8.63-12.1-7.51-20.81.4-3.13 1.32-6.04 2.63-8.6.64-2.6 1.52-5.21 2.65-7.78 2.91-6.68 7.41-13.15 13.41-18.75.89-.83 1.79-1.63 2.71-2.38v-.01c1.62-1.95 3.37-3.82 5.29-5.61 3.18-2.97 6.58-5.51 10.09-7.6 5.06-3.04 10.37-5.15 15.63-6.3-.13.96-.13 1.69-.13 1.69l.13-1.69c.24-1.77.92-4.31 2.87-4.31v-3c0 1 2 1 2 1v-7l-2-3-2 1v-6l5-2-1-2s6.94-2.08 11-2.19v-1.91a5 5 0 010-9.8v-1.28c-1.17-.4-2-1.51-2-2.82s.83-2.42 2-2.82v-6.52c-2.99-1.73-5-4.96-5-8.66 0-2.7 1.07-5.15 2.82-6.95a9.832 9.832 0 00-.82 3.95c0 5.52 4.48 10 10 10a9.94 9.94 0 007.18-3.05 9.985 9.985 0 01-11.68 5.73v5.72c.9.52 1.5 1.49 1.5 2.6s-.6 2.08-1.5 2.6v1.62a5.013 5.013 0 010 9.56v2.02c3.95-.07 11.5 2.2 11.5 2.2l-1 2 5 2v6l-2-1-2 3v7s2 0 2-1v3c2.26 0 2.82 3.42 2.95 5.09 3.38.98 6.76 2.35 10.05 4.1z" class="st5" fill="#ad6c62"/>
    <path d="M85.37 525.26l3.5-3 3.5 3v7h-7zM349.87 412.76s-6 4-8 5-5.11 3.21-5.55 7.6c-.45 4.4-.45 24.4-.45 24.4h24v-22s0-4 2-6c0 0-5.5-4.5-7.5-5.5s-4.5-3.5-4.5-3.5zM314.06 417.89c-.26.15-.5.27-.69.37-2 1-5.11 3.21-5.55 7.6-.39 3.81-.44 19.3-.45 23.4h-15s0-20 .45-24.4c.44-4.39 3.55-6.6 5.55-7.6s8-5 8-5 2.5 2.5 4.5 3.5c.74.37 1.95 1.22 3.19 2.13z" class="st8" fill="#f3967a" stroke="#ad6c62" stroke-miterlimit="10"/>
    <path d="M.87 560h374v248H.87z" class="st5" fill="#ad6c62"/>
  </g>
</svg>