<svg width="24" height="24" viewBox="0 0 24 24" fill="none"
    xmlns="http://www.w3.org/2000/svg">
    <path d="M22.2825 11.4675L19.5 8.6925V5.25C19.5 4.8375 19.1625 4.5 18.75 4.5H15.3075L12.525 1.7175C12.4556 1.64797 12.3732 1.59281 12.2825 1.55518C12.1917 1.51754 12.0945 1.49817 11.9963 1.49817C11.898 1.49817 11.8008 1.51754 11.71 1.55518C11.6193 1.59281 11.5369 1.64797 11.4675 1.7175L8.6925 4.5H5.25C4.8375 4.5 4.5 4.8375 4.5 5.25V8.6925L1.7175 11.475C1.64797 11.5444 1.59281 11.6268 1.55518 11.7175C1.51754 11.8083 1.49817 11.9055 1.49817 12.0038C1.49817 12.102 1.51754 12.1992 1.55518 12.29C1.59281 12.3807 1.64797 12.4631 1.7175 12.5325L4.5 15.3075V18.75C4.5 19.1625 4.8375 19.5 5.25 19.5H8.6925L11.475 22.2825C11.6175 22.425 11.805 22.5 12 22.5C12.195 22.5 12.3825 22.425 12.5325 22.2825L15.3075 19.5H18.75C19.1625 19.5 19.5 19.1625 19.5 18.75V15.3075L22.2825 12.525C22.352 12.4556 22.4072 12.3732 22.4448 12.2825C22.4825 12.1917 22.5018 12.0945 22.5018 11.9963C22.5018 11.898 22.4825 11.8008 22.4448 11.71C22.4072 11.6193 22.352 11.5369 22.2825 11.4675V11.4675Z" fill="#11AD54"/>
    <path d="M9.66 7.5C8.445 7.5 7.5 8.655 7.5 10.125C7.5 11.595 8.445 12.75 9.66 12.75C9.735 12.75 9.8025 12.735 9.87 12.7275L9.39 15.63C9.3225 16.0425 9.6 16.425 10.005 16.4925C10.2016 16.5219 10.4018 16.4732 10.563 16.3569C10.7242 16.2406 10.8335 16.0658 10.8675 15.87L11.6625 11.085C11.76 10.785 11.8125 10.4625 11.8125 10.1175C11.8125 8.655 10.8675 7.5 9.66 7.5V7.5ZM9.66 11.25C9.345 11.25 9 10.77 9 10.125C9 9.48 9.345 9 9.66 9C9.96 9 10.2975 9.4575 10.3125 10.08L10.2075 10.71C10.08 11.04 9.8625 11.25 9.66 11.25V11.25ZM16.5 10.125C16.5 8.655 15.555 7.5 14.34 7.5C13.1325 7.5 12.18 8.655 12.18 10.125C12.18 11.595 13.125 12.75 14.34 12.75C14.415 12.75 14.4825 12.735 14.55 12.7275L14.07 15.63C14.0025 16.0425 14.28 16.425 14.685 16.4925C14.73 16.5 14.775 16.5 14.8125 16.5C15.1725 16.5 15.4875 16.2375 15.555 15.87L16.35 11.085C16.4475 10.7925 16.5 10.47 16.5 10.125V10.125ZM14.3475 11.25C14.04 11.25 13.6875 10.77 13.6875 10.125C13.6875 9.48 14.0325 9 14.3475 9C14.6475 9 14.985 9.4575 15 10.08L14.895 10.71C14.7675 11.04 14.55 11.25 14.3475 11.25Z" fill="#FED800"/>
</svg>
