<svg width="32" height="32" viewBox="0 0 32 32" fill="none"
    xmlns="http://www.w3.org/2000/svg">
    <defs>
        <clipPath id="clip0">
            <rect width="24" height="24" fill="white" transform="translate(4 4)"/>
        </clipPath>
    </defs>
    <rect width="32" height="32" fill="none"/>
    <g clip-path="url(#clip0)">
        <path d="M21.0556 7.40246C20.7841 7.30114 20.6443 7.27832 20.6443 7.33882C20.6443 7.37629 20.6934 7.44013 20.7883 7.53412C22.3402 9.08694 23.6331 10.9293 24.6617 13.0544C25.8252 15.4585 26.4098 17.7986 26.4098 20.0669C26.4098 22.7719 25.7008 24.9609 24.292 26.6307C23.9119 27.0862 23.6739 27.3158 23.5799 27.3158C23.5495 27.3085 23.538 27.2897 23.538 27.2635C23.538 27.1392 23.6854 26.8417 23.9755 26.3632C25.1057 24.498 25.6747 22.8741 25.6747 21.4988C25.6747 19.7954 25.1735 17.8397 24.1719 15.6319C23.2707 13.6539 22.1554 11.8409 20.8176 10.1949C20.7841 10.1533 20.0489 9.15811 18.614 7.20631C18.5118 7.06313 18.3351 6.86783 18.0825 6.61516C17.8976 6.43033 17.8076 6.31017 17.8076 6.24549V4.29453C17.8076 4.09818 17.8526 4 17.9466 4C17.9958 4 18.0563 4.03035 18.1315 4.09085L21.6771 7.10479C21.8954 7.28963 22.0049 7.42862 22.0049 7.52345C22.0049 7.5873 21.9517 7.61765 21.8431 7.61765C21.6844 7.61765 21.4211 7.54564 21.0556 7.40246Z" fill="#00A2B5"/>
        <path d="M21.0024 21.3364C20.6557 20.2855 20.4227 19.3061 20.2984 18.3903C20.2525 18.0361 20.219 17.8211 20.1962 17.7384C20.147 17.5462 20.0572 17.3574 19.9214 17.1768C20.0154 16.8603 20.1659 16.4236 20.3695 15.8578C20.4374 15.6926 20.5012 15.6133 20.5544 15.6133C20.6034 15.6133 20.6858 15.6926 20.8102 15.8578C21.349 16.6076 21.8014 17.2789 22.1669 17.8701C22.3172 18.1154 22.3934 18.2887 22.3934 18.3903C22.3934 18.4654 22.359 18.5031 22.291 18.5031C22.1553 18.5031 21.9108 18.3903 21.5569 18.1677C21.5225 18.1677 21.4964 18.1906 21.4733 18.2398C21.5977 18.6804 21.7938 19.2904 22.0653 20.0672C22.6795 21.8113 22.9885 23.0814 22.9885 23.8802C22.9885 24.675 22.8675 25.3725 22.6303 25.9636C22.2347 26.9734 21.5487 27.479 20.5772 27.479C19.5404 27.479 18.7227 27.0266 18.1241 26.1296C17.7619 25.5908 17.4421 24.7845 17.1632 23.7068C17.0422 24.792 16.6956 25.7225 16.1306 26.5066C15.4371 27.4559 14.5483 27.9303 13.4665 27.9303C12.2718 27.9303 11.4393 27.3619 10.961 26.2196C10.6968 25.5793 10.5653 24.8295 10.5653 23.9628C10.5653 22.8172 10.701 21.7508 10.9725 20.7639C11.0437 20.4965 11.0811 20.319 11.0811 20.2324C11.0811 20.1834 11.0707 20.1612 11.0437 20.1612C10.9945 20.1612 10.8858 20.2929 10.7157 20.557C10.4483 20.9749 10.1695 21.8187 9.87602 23.0927C9.49483 24.7355 9.24636 25.7265 9.12934 26.066C8.97486 26.537 8.75338 26.9171 8.46618 27.2033C8.23655 27.4404 8.03287 27.5614 7.86373 27.5614C7.1024 27.5614 6.51125 27.075 6.09657 26.1068C5.75724 25.3047 5.58789 24.3323 5.58789 23.1942C5.58789 22.3994 5.70826 21.5325 5.95359 20.5979C6.0099 20.3871 6.06307 20.2324 6.11938 20.1269C6.19055 19.9994 6.24373 19.9839 6.26989 20.0779C6.29606 20.1874 6.28475 20.3795 6.22823 20.6584C6.09259 21.3707 6.02455 22.019 6.02455 22.6143C6.02455 24.9161 6.50706 26.0691 7.47605 26.0691C7.8899 26.0691 8.23655 25.7568 8.50805 25.1387C8.67719 24.7501 8.88484 24.0085 9.12934 22.9193C9.41236 21.7134 9.64953 20.8319 9.84567 20.27C10.0713 19.6297 10.3502 19.0607 10.6863 18.5636C11.0437 18.0059 11.36 17.7271 11.6241 17.7271C11.8425 17.7271 11.9522 17.9567 11.9522 18.4204C11.9522 18.8047 11.8425 19.5774 11.6241 20.7452C11.4058 21.9168 11.3003 22.701 11.3003 23.1042C11.3003 23.9741 11.4812 24.6561 11.8467 25.146C12.208 25.6398 12.7166 25.8843 13.361 25.8843C14.5328 25.8843 15.4151 25.5157 15.9989 24.7805C16.4626 24.2006 16.6956 23.4843 16.6956 22.6332C16.6956 21.8155 16.6244 21.0241 16.4888 20.2627C16.3946 19.7239 16.2623 19.2119 16.1003 18.7296C15.9646 18.3076 15.8968 18.1072 15.8968 18.1342C15.8968 17.6666 16.0479 17.0263 16.3571 16.2126C16.4249 16.0353 16.4773 15.9484 16.5189 15.9484C16.5681 15.9484 16.6433 16.0654 16.7519 16.2953C17.1894 17.2038 17.5321 18.5937 17.7847 20.4664C18.0219 22.2187 18.3652 23.4697 18.8134 24.2228C19.2582 24.9766 19.936 25.3536 20.8518 25.3536C21.6132 25.3536 22.1145 25.0748 22.3515 24.5245C22.3515 24.3323 22.193 23.9252 21.8732 23.2963C21.4618 22.5007 21.1757 21.8457 21.0024 21.3364Z" fill="#00A2B5"/>
        <path d="M17.1278 13.7405C17.1278 14.0078 17.0673 14.2824 16.9512 14.5696C16.7967 14.9383 16.5963 15.1231 16.3479 15.1231C15.9602 15.1231 15.6847 14.8558 15.5227 14.3243C15.3378 15.0061 15.0027 15.3488 14.5095 15.3488C14.328 15.3488 14.1662 15.2548 14.0304 15.0699C13.8725 14.8516 13.7974 14.5655 13.7974 14.2115V13.375C13.7974 13.307 13.7484 13.258 13.6576 13.2318C13.5636 13.2048 13.5186 13.1336 13.5186 13.0168C13.5186 12.832 13.5937 12.6511 13.7515 12.4738C13.8956 12.32 14.0042 12.2408 14.0796 12.2408C14.1775 12.2408 14.2267 12.4255 14.2267 12.791C14.2267 12.9831 14.2079 13.141 14.1775 13.2726C14.1474 13.4012 14.1327 13.514 14.1327 13.608C14.1327 13.8083 14.1702 14.0005 14.2529 14.1811C14.3511 14.3961 14.4679 14.5016 14.611 14.5016C14.7959 14.5016 14.9692 14.415 15.131 14.249C15.2889 14.083 15.3724 13.8868 15.3724 13.6612C15.3724 13.5326 15.3347 13.3103 15.2593 12.998C15.1834 12.6815 15.1457 12.4893 15.1457 12.4142C15.1457 12.3461 15.1802 12.2367 15.248 12.0895C15.3159 11.9463 15.3648 11.8712 15.3985 11.8712C15.4622 11.8712 15.5415 12.0788 15.6397 12.4966C15.7379 12.9113 15.7902 13.2163 15.7902 13.4158C15.7902 13.989 16.0092 14.2751 16.4534 14.2751C16.6422 14.2751 16.7623 14.1772 16.8115 13.989C16.4272 13.3185 16.239 12.8098 16.239 12.455C16.239 12.2482 16.2882 12.0673 16.3895 11.9128C16.4615 11.8033 16.5063 11.7437 16.5325 11.7395C16.5628 11.7395 16.5817 11.8073 16.5963 11.9432C16.616 12.1353 16.6455 12.2898 16.6872 12.4142C16.6945 12.4255 16.7854 12.6626 16.9618 13.1182C17.0715 13.3897 17.1278 13.5973 17.1278 13.7405Z" fill="#FFB000"/>
        <path d="M18.2926 9.55759C18.1568 9.90027 18.0555 10.0924 17.995 10.1414C16.2311 10.7629 13.9293 11.6565 11.0885 12.8284C10.5907 13.0884 10.3421 13.265 10.3421 13.359C10.3421 13.4237 10.4256 13.4949 10.5874 13.5742C10.7526 13.6567 11.0125 13.7589 11.3749 13.8832C11.4354 13.902 11.4647 14.0337 11.4647 14.279C11.4647 14.4932 11.4574 14.6175 11.4354 14.656C11.4157 14.6895 11.3406 14.6969 11.2129 14.6707C10.3871 14.512 9.97656 14.2225 9.97656 13.7999C9.97656 13.5627 10.0894 13.2535 10.3159 12.8807C10.5457 12.5037 10.7869 12.2406 11.0395 12.0819C11.2621 11.9387 12.4787 11.4677 14.6865 10.6616C15.828 10.2469 16.9736 9.83642 18.1193 9.42592C18.2403 9.38008 18.3115 9.36145 18.3343 9.37694C18.3458 9.39578 18.3343 9.45544 18.2926 9.55759Z" fill="#FFB000"/>
        <path d="M14.3832 10.4279C14.3081 10.5899 14.2476 10.692 14.1984 10.7255C14.1567 10.7599 14.1347 10.737 14.1272 10.6619C14.1272 10.5865 14.146 10.4844 14.1837 10.3569C14.2214 10.2244 14.2704 9.98722 14.33 9.64056C14.4136 8.41221 13.8745 7.29292 12.7176 6.27558C12.6497 6.21592 12.6382 6.13993 12.6874 6.04992L12.9933 5.5111C13.0194 5.46212 13.0642 5.46212 13.1247 5.5111C14.1952 6.30593 14.7299 7.39843 14.7299 8.78189C14.7299 9.38874 14.6131 9.93823 14.3832 10.4279Z" fill="#FFB000"/>
        <path d="M14.544 16.8861C14.544 17.1387 14.4385 17.4218 14.2348 17.7414C14.0238 18.0734 13.7491 18.3596 13.4171 18.5934C13.2855 18.6874 13.2061 18.7366 13.18 18.7366C13.1758 18.7366 13.1758 18.7324 13.1758 18.7292C13.1758 18.7062 13.2331 18.6384 13.3418 18.514C13.8921 17.9147 14.167 17.5157 14.167 17.3163C14.167 17.1241 14.0769 17.0299 13.8994 17.0299C13.8054 17.0299 13.7148 17.0561 13.6363 17.1084C13.5789 17.1461 13.5415 17.1691 13.5266 17.1731C13.5193 17.1649 13.5038 17.1576 13.4891 17.1542C13.4965 17.1314 13.5038 17.0822 13.5193 16.9997C13.6093 16.5851 13.8128 16.3816 14.1366 16.3816C14.4081 16.3816 14.544 16.5507 14.544 16.8861Z" fill="#FFB000"/>
        <path d="M14.4717 22.7271C14.4864 22.6969 14.5052 22.6708 14.5199 22.6553C14.5353 22.6438 14.5429 22.6477 14.5429 22.6634C14.5502 22.6781 14.5502 22.7082 14.5429 22.7459C14.3955 23.5449 14.1586 23.9479 13.8232 23.9479C13.4724 23.9479 13.2959 23.6502 13.2959 23.0624C13.2959 22.3388 13.5027 21.5774 13.9245 20.7826C14.0269 20.5865 14.0905 20.4849 14.1094 20.481C14.1167 20.481 14.1209 20.481 14.1209 20.4891C14.1209 20.5268 14.0905 20.6396 14.03 20.8243C13.7594 21.6494 13.6237 22.2299 13.6237 22.5653C13.6237 23.0174 13.7439 23.2431 13.9892 23.2431C14.1324 23.2431 14.2902 23.0697 14.4717 22.7271Z" fill="#FFB000"/>
        <path d="M20.1612 13.2322C20.176 13.2018 20.1949 13.1756 20.2104 13.1602C20.225 13.1486 20.2323 13.1528 20.2323 13.1675C20.2397 13.1832 20.2397 13.2133 20.2323 13.251C20.0852 14.0498 19.848 14.453 19.5129 14.453C19.1629 14.453 18.9854 14.1553 18.9854 13.5673C18.9854 12.8436 19.1924 12.0825 19.6142 11.2877C19.7163 11.0913 19.7802 10.99 19.799 10.9858C19.8063 10.9858 19.8105 10.9858 19.8105 10.9942C19.8105 11.0317 19.7802 11.1445 19.7205 11.3294C19.449 12.1543 19.3134 12.7342 19.3134 13.0701C19.3134 13.5217 19.4335 13.7482 19.6789 13.7482C19.8218 13.7482 19.9797 13.5748 20.1612 13.2322Z" fill="#FFB000"/>
        <path d="M12.0195 8.09578C12.0195 8.37461 11.9024 8.69111 11.6759 9.04509C11.4388 9.41477 11.1371 9.73107 10.7683 9.99106C10.6211 10.0966 10.5345 10.1489 10.5083 10.1489C10.501 10.1489 10.501 10.1458 10.501 10.1384C10.501 10.1187 10.5606 10.0402 10.6858 9.90439C11.2958 9.23726 11.6008 8.79243 11.6008 8.57075C11.6008 8.35974 11.5026 8.25445 11.3071 8.25445C11.1976 8.25445 11.0995 8.28376 11.0128 8.34028C10.9492 8.38591 10.9073 8.4081 10.8926 8.41626C10.8811 8.40475 10.8665 8.39742 10.851 8.38926C10.855 8.37042 10.8665 8.31076 10.8811 8.22012C10.9793 7.76043 11.2091 7.53394 11.5673 7.53394C11.8681 7.53394 12.0195 7.71878 12.0195 8.09578Z" fill="#FFB000"/>
        <path d="M15.5099 6.81476C15.6604 6.81476 15.8075 6.74673 15.9432 6.61527C16.101 6.46476 16.1803 6.2726 16.1803 6.04275C16.1803 5.79344 16.0372 5.66575 15.7544 5.66575C15.63 5.66575 15.5214 5.70343 15.4265 5.78277C15.4265 5.63561 15.5318 5.40576 15.7397 5.0926C15.9243 4.80645 16.1083 4.5766 16.2932 4.40746C16.339 4.35827 16.3497 4.31662 16.3348 4.27894C16.3235 4.24544 16.2932 4.24147 16.2442 4.27161C16.0028 4.41877 15.747 4.69362 15.4755 5.09679C15.1663 5.54894 15.0127 5.93725 15.0127 6.26443C15.0127 6.62992 15.1779 6.81476 15.5099 6.81476Z" fill="#FFB000"/>
        <path d="M8.4355 12.9982C8.58601 12.9982 8.73317 12.9303 8.86798 12.7987C9.02665 12.6473 9.10598 12.4552 9.10598 12.2253C9.10598 11.9768 8.9628 11.8491 8.67999 11.8491C8.55565 11.8491 8.44617 11.8868 8.35197 11.9653C8.35197 11.819 8.45748 11.5892 8.66513 11.276C8.84913 10.9898 9.03397 10.76 9.21881 10.59C9.26382 10.5417 9.27533 10.5 9.26047 10.4623C9.24917 10.428 9.21881 10.4249 9.16983 10.455C8.92847 10.6015 8.67267 10.877 8.40117 11.2802C8.09199 11.7323 7.9375 12.1198 7.9375 12.4478C7.9375 12.8133 8.1035 12.9982 8.4355 12.9982Z" fill="#FFB000"/>
        <path d="M9.23525 15.7678C9.25095 15.7981 9.26225 15.8431 9.26225 15.8961C9.26225 16.0728 9.20594 16.2722 9.09625 16.5021C8.98677 16.7328 8.88127 16.8456 8.77995 16.8456C8.85908 16.8456 8.56162 16.7964 7.87962 16.6909C7.63429 17.1202 7.37828 17.4522 7.11096 17.6821C6.88028 17.8774 6.53782 18.0853 6.08231 18.3034C5.96132 18.3599 5.90083 18.4204 5.90083 18.4809C5.90083 18.5374 5.94248 18.5749 6.02182 18.5971C6.30797 18.6764 6.72663 18.6877 7.2801 18.6272C7.52146 18.601 8.09063 18.4809 8.99075 18.2699C9.10358 18.2429 9.1601 18.2316 9.1601 18.2429C9.1601 18.2617 8.99075 18.3903 8.64829 18.6272C8.49359 18.7369 8.22544 18.8612 7.83797 18.9969C7.31046 19.1849 6.83214 19.283 6.40615 19.283C5.89748 19.283 5.64062 19.1139 5.64062 18.7819C5.64062 18.4466 5.78799 18.1489 6.08231 17.9004C6.32681 17.7311 6.57215 17.5577 6.81665 17.3844C7.1633 17.1464 7.43061 16.8946 7.60812 16.6304C7.06512 16.5406 6.79362 16.3327 6.79362 16.0123C6.79362 15.7711 6.86563 15.5036 7.01279 15.2101C6.91461 14.8708 6.93764 14.6336 7.07663 14.4906C7.18611 14.3809 7.3138 14.3286 7.46096 14.3286C7.60393 14.3286 7.76596 14.3778 7.9508 14.4749C8.59512 14.8291 9.02424 15.2593 9.23525 15.7678ZM8.88525 16.0843C8.74541 15.7908 8.50845 15.5716 8.16578 15.4251C8.16578 15.7334 8.13961 15.9714 8.08226 16.1366C8.13961 16.1521 8.39144 16.1898 8.85092 16.2503C8.87792 16.2536 8.89676 16.2536 8.90827 16.2421C8.93025 16.2199 8.92293 16.1667 8.88525 16.0843ZM7.8118 16.0843C7.84529 15.9222 7.84111 15.7523 7.7961 15.5789C7.74712 15.3834 7.66862 15.2855 7.5516 15.2855C7.4798 15.2855 7.3856 15.346 7.25729 15.4734C7.13294 15.5986 7.07245 15.6926 7.07245 15.7604C7.07245 15.9109 7.31778 16.0204 7.8118 16.0843Z" fill="#FFB000"/>
        <path d="M11.1422 16.8185C11.2103 16.8185 11.2781 16.789 11.3386 16.7285C11.4098 16.6607 11.4441 16.574 11.4441 16.4725C11.4441 16.3588 11.3794 16.3025 11.2519 16.3025C11.1954 16.3025 11.1464 16.3214 11.1048 16.3557C11.1048 16.2879 11.1537 16.1855 11.2446 16.0425C11.3304 15.9148 11.4137 15.8093 11.4964 15.7334C11.5153 15.7114 11.5226 15.6925 11.5153 15.677C11.5079 15.6622 11.4964 15.6582 11.4742 15.6737C11.3648 15.7375 11.2519 15.8617 11.1276 16.0425C10.9877 16.246 10.9199 16.4235 10.9199 16.5698C10.9199 16.7358 10.9919 16.8185 11.1422 16.8185Z" fill="#FFB000"/>
        <path d="M17.058 7.86926C17.058 7.99423 17.0049 8.13741 16.8996 8.29922C16.7941 8.46522 16.6582 8.6084 16.4922 8.72542C16.4252 8.77021 16.3867 8.79638 16.3721 8.79638V8.7924C16.3721 8.78173 16.3982 8.7474 16.4548 8.68355C16.7302 8.38588 16.8692 8.18241 16.8692 8.08424C16.8692 7.98606 16.8242 7.94106 16.7336 7.94106C16.6844 7.94106 16.6436 7.95257 16.6019 7.98292C16.5716 8.00176 16.5527 8.01307 16.5454 8.01307C16.5414 8.00909 16.5339 8.0049 16.5266 8.0049C16.5307 7.99423 16.5381 7.96722 16.5414 7.9264C16.5871 7.71875 16.6926 7.61743 16.8546 7.61743C16.9902 7.61743 17.058 7.69991 17.058 7.86926Z" fill="#FFB000"/>
        <path d="M12.4842 10.3528C12.5512 10.3528 12.619 10.3224 12.6795 10.2628C12.7516 10.1949 12.785 10.1083 12.785 10.0061C12.785 9.8933 12.7214 9.83678 12.5929 9.83678C12.5366 9.83678 12.4874 9.85562 12.4457 9.88911C12.4457 9.82129 12.4949 9.71998 12.5856 9.57679C12.6722 9.44847 12.7549 9.34297 12.8382 9.26761C12.8571 9.2448 12.8644 9.22596 12.8571 9.2113C12.8497 9.19665 12.8382 9.19246 12.8154 9.20712C12.7057 9.2718 12.5929 9.39614 12.4687 9.57679C12.3297 9.78047 12.2617 9.95694 12.2617 10.1043C12.2617 10.2701 12.3329 10.3528 12.4842 10.3528Z" fill="#FFB000"/>
        <path d="M8.08064 20.8808C8.08064 21.0052 8.02831 21.1481 7.92302 21.3102C7.81752 21.4762 7.68166 21.6191 7.51566 21.7362C7.44784 21.7812 7.41016 21.8073 7.39551 21.8073V21.804C7.39551 21.7925 7.42167 21.759 7.47819 21.6945C7.75284 21.3968 7.89267 21.1932 7.89267 21.0958C7.89267 20.9978 7.84766 20.952 7.75702 20.952C7.70783 20.952 7.66701 20.9635 7.62535 20.9937C7.595 21.0125 7.57616 21.024 7.56883 21.024C7.56486 21.0198 7.55732 21.0165 7.54999 21.0165C7.55334 21.0052 7.56067 20.979 7.56486 20.9374C7.60965 20.7303 7.71515 20.6282 7.87801 20.6282C8.01282 20.6282 8.08064 20.7115 8.08064 20.8808Z" fill="#FFB000"/>
    </g>

</svg>
