<svg width="48" height="48" viewBox="0 0 48 48" fill="none"
  xmlns="http://www.w3.org/2000/svg">
  <defs>
    <linearGradient id="paint0_linear" x1="24.2122" y1="34.7316" x2="13.8548" y2="40.2981" gradientUnits="userSpaceOnUse">
      <stop stop-color="#FFC909"/>
      <stop offset="1" stop-color="#C49B06"/>
    </linearGradient>
    <linearGradient id="paint1_linear" x1="22.8107" y1="21.4182" x2="13.945" y2="15.9074" gradientUnits="userSpaceOnUse">
      <stop stop-color="#FFC909"/>
      <stop offset="1" stop-color="#C49B06"/>
    </linearGradient>
    <linearGradient id="paint2_linear" x1="21.7676" y1="28.8107" x2="17.7181" y2="34.7713" gradientUnits="userSpaceOnUse">
      <stop stop-opacity="0.01"/>
      <stop offset="1" stop-opacity="0.103857"/>
    </linearGradient>
    <linearGradient id="paint3_linear" x1="24.7457" y1="34.8415" x2="35.1987" y2="40.2264" gradientUnits="userSpaceOnUse">
      <stop stop-color="#FFC909"/>
      <stop offset="1" stop-color="#C49B06"/>
    </linearGradient>
    <linearGradient id="paint4_linear" x1="25.9146" y1="21.5056" x2="34.6828" y2="15.841" gradientUnits="userSpaceOnUse">
      <stop stop-color="#FFC909"/>
      <stop offset="1" stop-color="#C49B06"/>
    </linearGradient>
  </defs>
  <path fill-rule="evenodd" clip-rule="evenodd" d="M14.6496 37.7114L14.0081 30.4479C14.0081 30.4479 11.8091 28.4222 11.2391 25.7255C10.6691 23.0287 10.2529 16.7968 10.2529 16.7968C10.2529 16.7968 10.7404 16.4445 11.5137 16.7087C11.9395 16.8542 12.3035 17.2132 12.6056 17.7858C12.6274 17.8272 13.0454 20.1238 13.28 21.3545C13.3621 21.7855 13.5298 17.7589 13.5298 17.7589L13.9372 11.167C13.9718 10.6081 14.0881 10.0075 14.5498 9.69052C14.7108 9.57999 14.9045 9.49483 15.1285 9.47917C15.8585 9.42812 16.4781 10.1454 16.4781 10.1454L16.4489 9.72705C16.3946 8.95037 16.9802 8.27672 17.7569 8.22241C18.5335 8.1681 19.2072 8.75369 19.2615 9.53037L19.2908 9.94868C19.2908 9.94868 19.6943 9.15989 20.5082 9.10298C21.4886 9.03443 21.803 10.2872 21.8716 11.2676L21.94 12.2462C21.94 12.2462 22.3938 11.6563 22.9748 11.6156C23.795 11.5583 24.129 12.5733 24.0694 13.3934C23.9134 15.5412 23.6177 19.7478 23.5738 21.3608C23.8962 24.5728 23.447 27.2764 21.8773 29.8976C21.9762 32.5961 22.3095 36.0786 22.3095 36.0786L14.6496 37.7114Z" fill="#FFC909"/>
  <path fill-rule="evenodd" clip-rule="evenodd" d="M21.8773 29.8977L14.3044 32.6195L14.2054 32.6816L14.6496 37.7114L22.3095 36.0786C22.0873 33.757 21.9432 31.6967 21.8773 29.8977L21.8773 29.8977Z" fill="url(#paint0_linear)"/>
  <path fill-rule="evenodd" clip-rule="evenodd" d="M22.0391 13.5562C22.1996 13.5605 21.8827 17.0054 21.7216 21.0406C21.7215 21.3093 22.5964 22.8257 22.3 24.4276C22.0037 26.0295 19.5703 27.1169 17.4681 27.0434C17.5118 25.7926 17.4178 24.2097 16.6836 23.0921C15.9494 21.9745 14.6776 21.3829 13.2799 21.3545L13.5341 17.7714C13.5713 18.129 14.0976 18.5688 15.1129 19.0908C15.3301 19.2025 15.6121 19.2869 15.9383 19.3577C15.9383 19.3577 16.3676 10.7932 16.6191 10.7998C16.8709 10.8065 16.4149 19.4152 16.4149 19.4152C17.0226 19.5058 18.1283 19.6921 18.7912 19.8261C18.7912 19.8261 19.3056 10.8538 19.5577 10.8605C19.8073 10.8672 19.2874 19.9172 19.2874 19.9172C19.9354 20.1114 20.5519 20.1806 21.222 20.8588C21.222 20.8588 21.7881 13.5501 22.0391 13.5562Z" fill="url(#paint1_linear)"/>
  <path d="M12.4964 34.3844C12.426 33.58 13.021 32.8709 13.8255 32.8005L22.1689 32.0705C22.9733 32.0002 23.6824 32.5952 23.7528 33.3996L24.0746 37.0773C24.1449 37.8818 23.5499 38.5909 22.7455 38.6613L14.4021 39.3912C13.5977 39.4616 12.8885 38.8666 12.8181 38.0622L12.4964 34.3844Z" fill="#18B860"/>
  <path d="M19.8897 32.27L22.169 32.0706C22.9734 32.0002 23.6825 32.5952 23.7529 33.3996L24.0747 37.0774C24.145 37.8818 23.55 38.5909 22.7456 38.6613L20.4664 38.8607L19.8897 32.27Z" fill="#12964D"/>
  <path fill-rule="evenodd" clip-rule="evenodd" d="M22.774 32.1448C23.3022 32.3277 23.701 32.8068 23.7528 33.3996L24.0746 37.0773C24.145 37.8817 23.5499 38.5909 22.7455 38.6613L20.9603 38.8175C20.641 36.0915 21.2456 33.8673 22.774 32.1448V32.1448Z" fill="url(#paint2_linear)"/>
  <path fill-rule="evenodd" clip-rule="evenodd" d="M34.3589 37.6539L34.8736 30.3803C34.8736 30.3803 37.0369 28.3166 37.5598 25.6103C38.0826 22.904 38.39 16.6658 38.39 16.6658C38.39 16.6658 37.8964 16.322 37.1279 16.5997C36.7046 16.7526 36.347 17.1179 36.0549 17.6957C36.0338 17.7375 35.656 20.041 35.4429 21.2756C35.3683 21.708 35.1304 17.6849 35.1304 17.6849L34.6079 11.1012C34.5636 10.5429 34.4369 9.94443 33.9697 9.63556C33.8068 9.52786 33.6116 9.44609 33.3874 9.43434C32.6567 9.39605 32.0496 10.124 32.0496 10.124L32.0715 9.70523C32.1123 8.92772 31.515 8.26439 30.7375 8.22365C29.96 8.1829 29.2967 8.78016 29.2559 9.55767L29.234 9.97643C29.234 9.97643 28.8167 9.1948 28.002 9.15211C27.0206 9.10067 26.728 10.3588 26.6766 11.3402L26.6252 12.3198C26.6252 12.3198 26.1612 11.7379 25.5796 11.7074C24.7585 11.6644 24.4423 12.6851 24.5162 13.504C24.7096 15.6487 25.0787 19.8496 25.1508 21.4616C24.8845 24.6787 25.3808 27.374 26.996 29.9675C26.9442 32.6673 26.6717 36.1551 26.6717 36.1551L34.3589 37.6539Z" fill="#FFC909"/>
  <path fill-rule="evenodd" clip-rule="evenodd" d="M26.996 29.9675L34.6152 32.5568L34.7152 32.6171L34.3589 37.6539L26.6717 36.1551C26.8534 33.8299 26.9614 31.7674 26.996 29.9675L26.996 29.9675Z" fill="url(#paint3_linear)"/>
  <path fill-rule="evenodd" clip-rule="evenodd" d="M26.5489 13.6314C26.3885 13.6385 26.7655 17.0773 26.997 21.1091C27.0017 21.3777 26.1534 22.9091 26.4777 24.5057C26.802 26.1022 29.254 27.1469 31.3545 27.0368C31.289 25.7868 31.3554 24.2026 32.07 23.0723C32.7846 21.9421 34.0459 21.3284 35.4428 21.2756L35.1261 17.6975C35.0952 18.0556 34.5767 18.5046 33.5706 19.0443C33.3554 19.1597 33.075 19.249 32.75 19.3255C32.75 19.3255 32.1713 10.7698 31.9199 10.7808C31.6683 10.7919 32.2745 19.3913 32.2745 19.3913C31.6684 19.4925 30.5661 19.6981 29.9057 19.8436C29.9057 19.8436 29.2348 10.8817 28.9828 10.8928C28.7334 10.9038 29.4112 19.9434 29.4112 19.9434C28.7666 20.1488 28.1515 20.2288 27.4933 20.9185C27.4933 20.9185 26.7998 13.6208 26.5489 13.6314Z" fill="url(#paint4_linear)"/>
  <path d="M36.4536 34.2899C36.5099 33.4844 35.9026 32.7857 35.0971 32.7294L26.7422 32.1451C25.9367 32.0888 25.238 32.6962 25.1817 33.5017L24.9242 37.1844C24.8678 37.99 25.4752 38.6886 26.2807 38.745L34.6356 39.3292C35.4411 39.3855 36.1397 38.7782 36.1961 37.9727L36.4536 34.2899Z" fill="#18B860"/>
  <path d="M29.0245 32.3047L26.7421 32.1452C25.9366 32.0888 25.238 32.6962 25.1816 33.5017L24.9241 37.1845C24.8678 37.99 25.4751 38.6886 26.2806 38.745L28.563 38.9046L29.0245 32.3047Z" fill="#12964D"/>

</svg>
