<svg width="64" height="64" viewBox="0 0 64 64" fill="none"
  xmlns="http://www.w3.org/2000/svg">
  <defs>
    <linearGradient id="paint0_linear" x1="14" y1="45.6371" x2="14" y2="11.729" gradientUnits="userSpaceOnUse">
      <stop stop-color="#FFE47F"/>
      <stop offset="1" stop-color="#FFC909"/>
    </linearGradient>
    <linearGradient id="paint1_linear" x1="15.2373" y1="27.0229" x2="15.2373" y2="19.7798" gradientUnits="userSpaceOnUse">
      <stop stop-color="#77DEA5"/>
      <stop offset="1" stop-color="#18B860"/>
    </linearGradient>
    <linearGradient id="paint2_linear" x1="29.1863" y1="47.8819" x2="27.2505" y2="16.6365" gradientUnits="userSpaceOnUse">
      <stop stop-color="#AB8707"/>
      <stop offset="1" stop-color="#D6AA0C"/>
    </linearGradient>
    <linearGradient id="paint3_linear" x1="39.5307" y1="23.4932" x2="39.5307" y2="50.52" gradientUnits="userSpaceOnUse">
      <stop stop-color="#18B860"/>
      <stop offset="1" stop-color="#13954D"/>
    </linearGradient>
    <linearGradient id="paint4_linear" x1="31.8525" y1="45.4165" x2="30.6971" y2="34.8196" gradientUnits="userSpaceOnUse">
      <stop stop-color="#AB8707"/>
      <stop offset="1" stop-color="#D6AA0C"/>
    </linearGradient>
    <linearGradient id="paint5_linear" x1="42.4259" y1="50.5267" x2="42.4259" y2="8.38525" gradientUnits="userSpaceOnUse">
      <stop stop-color="#77DEA5"/>
      <stop offset="1" stop-color="#18B860"/>
    </linearGradient>
    <linearGradient id="paint6_linear" x1="44.0733" y1="48.5093" x2="38.9191" y2="30.3897" gradientUnits="userSpaceOnUse">
      <stop stop-color="#77DEA5"/>
      <stop offset="1" stop-color="#18B860"/>
    </linearGradient>
  </defs>
  <path fill-rule="evenodd" clip-rule="evenodd" d="M35.7452 13.829L32.5593 12.7111C32.5593 12.1385 32.0951 11.6743 31.5225 11.6743C31.4692 11.6743 31.4159 11.6784 31.3633 11.6866L15.0857 14.2172C14.4608 14.3143 14 14.8523 14 15.4847V44.6709C14 46.2018 14.9075 47.5872 16.3109 48.1987L17.2468 48.6065C18.8903 49.3227 20.7323 49.4427 22.4549 48.9457L35.7452 45.1113V13.829Z" fill="#FFC909"/>
  <path fill-rule="evenodd" clip-rule="evenodd" d="M16.4746 48.2694L16.3109 48.1981C14.9075 47.5865 14 46.2012 14 44.6703V15.4841C14 14.8517 14.4608 14.3137 15.0857 14.2165L16.4746 14.0006V48.2694Z" fill="url(#paint0_linear)"/>
  <path fill-rule="evenodd" clip-rule="evenodd" d="M14 26.1787V20.5605C15.82 21.8211 18.6531 22.4036 21.6267 21.7243L22.7829 26.7088C18.9698 27.67 16.2005 27.2571 14 26.1787H14Z" fill="#18B860"/>
  <path fill-rule="evenodd" clip-rule="evenodd" d="M14 26.1787V20.5605C14.6938 21.041 15.5348 21.423 16.4746 21.6742V27.0229C15.5706 26.8381 14.7521 26.5472 14 26.1787H14Z" fill="url(#paint1_linear)"/>
  <path fill-rule="evenodd" clip-rule="evenodd" d="M20.6204 49.2408V13.356L31.3632 11.6859C31.4159 11.6777 31.4692 11.6736 31.5225 11.6736C32.0951 11.6736 32.5593 12.1378 32.5593 12.7104L35.6691 13.8385C35.7332 13.8266 35.7983 13.8206 35.8635 13.8206C36.4499 13.8206 36.9252 14.2959 36.9252 14.8823V17.1885L35.7452 45.1105L22.4549 48.945C21.8534 49.1185 21.2374 49.2168 20.6204 49.2408Z" fill="#D6AA0C"/>
  <path fill-rule="evenodd" clip-rule="evenodd" d="M35.7453 17.8255V45.1107L22.8281 48.8374C25.3625 45.1376 26.334 38.2625 25.6096 30.368C25.0051 23.7807 26.0744 19.17 28.8174 16.5358L35.7453 17.8255Z" fill="url(#paint2_linear)"/>
  <path fill-rule="evenodd" clip-rule="evenodd" d="M32.5592 12.7104L35.7191 13.8192L21.9676 16.2749C19.7693 16.6323 17.5147 16.3507 15.4718 15.4637C15.2129 15.3513 15.0454 15.0959 15.0454 14.8137C15.0454 14.512 15.2339 14.2544 15.4996 14.1521L31.3631 11.6859C31.9289 11.598 32.4589 11.9853 32.5468 12.5511C32.555 12.6038 32.5592 12.6571 32.5592 12.7104Z" fill="#FEDE65"/>
  <path fill-rule="evenodd" clip-rule="evenodd" d="M32.5594 12.7103L35.7453 13.8283L21.0549 16.3937C19.4522 16.6736 17.803 16.4907 16.3005 15.8665L15.7555 15.64C15.6499 15.5962 15.5547 15.5327 15.4744 15.4537L32.5594 12.7103Z" fill="white"/>
  <path fill-rule="evenodd" clip-rule="evenodd" d="M49.9183 15.1076C49.2028 14.8946 48.1408 14.522 46.7324 13.9897V13.8193C46.7324 13.3273 46.3336 12.9285 45.8416 12.9285C45.7958 12.9285 45.75 12.932 45.7047 12.939L29.2588 15.4958C28.6339 15.5929 28.1731 16.1309 28.1731 16.7633V45.9495C28.1731 47.4804 29.0806 48.8658 30.484 49.4773L31.4226 49.8863C33.0645 50.6018 34.9045 50.7223 36.6256 50.227L49.5994 46.4934C50.3626 46.2738 50.8883 45.5755 50.8883 44.7813V15.8924C50.8883 15.4492 50.529 15.09 50.0858 15.09C50.0295 15.09 49.9733 15.0959 49.9183 15.1076Z" fill="#18B860"/>
  <path fill-rule="evenodd" clip-rule="evenodd" d="M50.8883 23.4932V44.7806C50.8883 45.5749 50.3625 46.2733 49.5992 46.4928L36.6585 50.215C34.917 50.7175 33.0529 50.5963 31.3923 49.8727L30.484 49.4769C29.0806 48.8653 28.1731 47.48 28.1731 45.949V40.1634C29.6654 37.0166 31.8722 35.2289 34.7935 34.8003C39.7826 34.0683 42.3087 33.1055 45.1012 28.3016C46.1893 26.4297 47.795 24.916 49.9183 23.7605L50.8883 23.4932Z" fill="url(#paint3_linear)"/>
  <path fill-rule="evenodd" clip-rule="evenodd" d="M28.1731 32.0527C29.9931 33.8643 31.7741 34.7476 34.7477 34.0682L35.9039 36.4021C32.0908 37.3633 29.9931 36.4021 28.1731 35.0202V32.0527ZM28.1731 38.3531C29.9931 40.1647 31.7741 41.048 34.7477 40.3686L35.9039 45.3531C32.0908 46.3143 29.9931 45.3531 28.1731 43.9712V38.3531Z" fill="#FFC909"/>
  <path fill-rule="evenodd" clip-rule="evenodd" d="M35.0885 34.7563L35.9039 36.4022C33.7987 36.9329 32.2164 36.8776 30.915 36.4891C32.0257 35.5797 33.3185 35.0168 34.7935 34.8004C34.8928 34.7858 34.9911 34.7711 35.0885 34.7563H35.0885ZM28.8204 38.957C30.4319 40.3521 32.1264 40.9676 34.7477 40.3688L35.9039 45.3533C32.0908 46.3145 29.9931 45.3533 28.1731 43.9713V40.1635C28.3757 39.7363 28.5915 39.3341 28.8204 38.957Z" fill="url(#paint4_linear)"/>
  <path opacity="0.2" fill-rule="evenodd" clip-rule="evenodd" d="M30.6477 49.5482L30.484 49.4769C29.0806 48.8653 28.1731 47.48 28.1731 45.9491V16.7629C28.1731 16.1305 28.6339 15.5925 29.2588 15.4953L30.6477 15.2794V49.5482Z" fill="#2D2D2F"/>
  <path fill-rule="evenodd" clip-rule="evenodd" d="M33.9634 50.5081V14.7639L45.7049 12.9386C45.7501 12.9315 45.7959 12.928 45.8417 12.928C46.3337 12.928 46.7325 13.3268 46.7325 13.8188V14.0863C48.1236 14.5478 49.1769 14.885 49.8925 15.0981C49.9457 15.0876 49.9997 15.0823 50.0539 15.0823C50.5148 15.0823 50.8884 15.4559 50.8884 15.9167V44.7808C50.8884 45.575 50.3627 46.2733 49.5995 46.4929L36.6258 50.2265C35.755 50.4771 34.8539 50.57 33.9634 50.5081Z" fill="url(#paint5_linear)"/>
  <path fill-rule="evenodd" clip-rule="evenodd" d="M50.8884 23.4932V44.7808C50.8884 44.9542 50.8633 45.1231 50.8162 45.2834C50.6474 45.8571 50.1959 46.3212 49.5993 46.4928L36.6586 50.215C35.7775 50.4692 34.865 50.5638 33.9634 50.5015V34.9635C34.2334 34.8963 34.5101 34.8419 34.7936 34.8003C39.7827 34.0683 42.3088 33.1055 45.1013 28.3016C46.1895 26.4297 47.7951 24.916 49.9184 23.7605L50.8884 23.4932Z" fill="url(#paint6_linear)"/>
  <path fill-rule="evenodd" clip-rule="evenodd" d="M46.7325 13.8188V13.9892L49.8924 15.0981L36.1409 17.5537C33.9427 17.9111 31.688 17.6295 29.6451 16.7425C29.3862 16.6301 29.2188 16.3747 29.2188 16.0925C29.2188 15.7908 29.4073 15.5332 29.6729 15.4309L45.7048 12.9386C46.191 12.863 46.6463 13.1958 46.7219 13.6819C46.7289 13.7272 46.7325 13.773 46.7325 13.8188Z" fill="#18B860"/>
  <path fill-rule="evenodd" clip-rule="evenodd" d="M49.8925 15.0981L35.2328 17.7014C33.6256 17.9627 31.9773 17.7701 30.4736 17.1454L29.9286 16.919C29.823 16.8751 29.7278 16.8116 29.6475 16.7326L46.7325 13.9893L49.8925 15.0981Z" fill="white"/>

</svg>
