<svg width="24" height="24" viewBox="0 0 24 24" fill="none"
  xmlns="http://www.w3.org/2000/svg">
  <defs>
    <linearGradient id="paint0_linear" x1="10.5322" y1="4.54079" x2="16.1206" y2="11.9531" gradientUnits="userSpaceOnUse">
      <stop stop-color="#77B7FF"/>
      <stop offset="1" stop-color="#0359B8"/>
    </linearGradient>
    <linearGradient id="paint1_linear" x1="12.5046" y1="9.00795" x2="15.6462" y2="18.335" gradientUnits="userSpaceOnUse">
      <stop stop-color="#FFC909"/>
      <stop offset="1" stop-color="#C49B06"/>
    </linearGradient>
  </defs>
  <path d="M12.1406 19.9688C16.5675 19.9688 20.1562 16.38 20.1562 11.9531C20.1562 7.52622 16.5675 3.9375 12.1406 3.9375C7.71372 3.9375 4.125 7.52622 4.125 11.9531C4.125 16.38 7.71372 19.9688 12.1406 19.9688Z" fill="url(#paint0_linear)"/>
  <path d="M12.1406 19.4829C16.2992 19.4829 19.6704 16.1117 19.6704 11.9531C19.6704 7.7945 16.2992 4.42328 12.1406 4.42328C7.982 4.42328 4.61078 7.7945 4.61078 11.9531C4.61078 16.1117 7.982 19.4829 12.1406 19.4829Z" fill="#007AFF"/>
  <path fill-rule="evenodd" clip-rule="evenodd" d="M9.2161 19.4185C9.02833 17.7609 9.47344 16.5222 10.5514 15.7026C12.5321 14.1966 13.9363 14.9732 15.1682 13.2665C16.3653 11.608 15.5719 8.0299 18.44 6.99597C19.5149 8.36003 20.1563 10.0817 20.1563 11.9531C20.1563 16.38 16.5675 19.9687 12.1406 19.9687C11.1086 19.9687 10.1222 19.7737 9.2161 19.4185Z" fill="#0359B8"/>
  <path d="M12.1406 18.0256C15.4943 18.0256 18.2131 15.3068 18.2131 11.9531C18.2131 8.5994 15.4943 5.88068 12.1406 5.88068C8.7869 5.88068 6.06818 8.5994 6.06818 11.9531C6.06818 15.3068 8.7869 18.0256 12.1406 18.0256Z" fill="#FFC909"/>
  <path fill-rule="evenodd" clip-rule="evenodd" d="M8.09649 16.483C6.85175 15.371 6.06818 13.7536 6.06818 11.9531C6.06818 8.5994 8.7869 5.88068 12.1406 5.88068C13.9411 5.88068 15.5585 6.66425 16.6706 7.90898C15.5967 6.94965 14.1797 6.36647 12.6264 6.36647C9.2727 6.36647 6.55397 9.08519 6.55397 12.4389C6.55397 13.9922 7.13715 15.4092 8.09649 16.483Z" fill="#D6AA0C"/>
  <path fill-rule="evenodd" clip-rule="evenodd" d="M10.6733 15.4813C12.5063 14.1171 13.8058 14.8205 14.9457 13.2746C15.8521 12.0454 15.6248 9.55288 16.9296 8.21027C17.7936 9.23664 18.2131 10.6511 18.2131 12.0848C18.2131 15.3658 15.4959 18.0256 12.144 18.0256C11.1839 18.0256 10.2758 17.8073 9.46875 17.4187C9.62106 16.6114 10.0226 15.9656 10.6733 15.4813Z" fill="url(#paint1_linear)"/>
  <path fill-rule="evenodd" clip-rule="evenodd" d="M10.5513 12.84L9.47249 9.09446C9.4502 9.01708 9.49486 8.93629 9.57224 8.91401C9.61036 8.90303 9.65131 8.90805 9.68564 8.92793L13.0589 10.8808C13.0893 10.8983 13.1122 10.9262 13.1237 10.9593L14.5922 15.2036C14.6185 15.2797 14.5781 15.3628 14.502 15.3891C14.4595 15.4038 14.4125 15.398 14.3748 15.3735L10.6118 12.9218C10.5824 12.9027 10.561 12.8737 10.5513 12.84Z" fill="#18B860"/>
  <path fill-rule="evenodd" clip-rule="evenodd" d="M13.0982 10.914L10.574 12.8861C10.5638 12.8723 10.5561 12.8567 10.5513 12.84L9.4725 9.09442C9.45021 9.01704 9.49487 8.93625 9.57225 8.91396C9.61037 8.90298 9.65132 8.90801 9.68565 8.92788L13.059 10.8807C13.074 10.8895 13.0873 10.9008 13.0982 10.914Z" fill="#108E49"/>

</svg>
