<svg width="24" height="24" viewBox="0 0 24 24" fill="none"
  xmlns="http://www.w3.org/2000/svg">
  <defs>
    <linearGradient id="paint0_linear" x1="9.45675" y1="9.69719" x2="5.75298" y2="6.81197" gradientUnits="userSpaceOnUse">
      <stop stop-color="#FFE47F"/>
      <stop offset="1" stop-color="#FFC909"/>
    </linearGradient>
    <linearGradient id="paint1_linear" x1="18.9907" y1="9.87049" x2="13.8029" y2="5.85926" gradientUnits="userSpaceOnUse">
      <stop stop-color="#77DEA5"/>
      <stop offset="1" stop-color="#18B860"/>
    </linearGradient>
    <linearGradient id="paint2_linear" x1="11.0175" y1="16.9922" x2="5.8122" y2="14.4733" gradientUnits="userSpaceOnUse">
      <stop stop-color="#77DEA5"/>
      <stop offset="1" stop-color="#18B860"/>
    </linearGradient>
    <linearGradient id="paint3_linear" x1="17.8357" y1="16.8885" x2="14.5655" y2="14.7982" gradientUnits="userSpaceOnUse">
      <stop stop-color="#FFE47F"/>
      <stop offset="1" stop-color="#FFC909"/>
    </linearGradient>
  </defs>
  <path d="M7.75875 11.4062C9.55851 11.4062 11.0175 9.94418 11.0175 8.14062C11.0175 6.33707 9.55851 4.875 7.75875 4.875C5.95899 4.875 4.5 6.33707 4.5 8.14062C4.5 9.94418 5.95899 11.4062 7.75875 11.4062Z" fill="#FFC909"/>
  <path fill-rule="evenodd" clip-rule="evenodd" d="M5.32752 5.96606C6.13888 8.21206 7.74557 9.67731 10.1476 10.3618C9.55246 11.0042 8.70245 11.4062 7.75875 11.4062C5.95899 11.4062 4.5 9.94416 4.5 8.14061C4.5 7.30545 4.81285 6.54351 5.32752 5.96606Z" fill="url(#paint0_linear)"/>
  <path d="M17.9215 5.25H14.1942C13.6037 5.25 13.125 5.7287 13.125 6.3192V10.0589C13.125 10.6494 13.6037 11.1281 14.1942 11.1281H17.9215C18.5121 11.1281 18.9907 10.6494 18.9907 10.0589V6.3192C18.9907 5.7287 18.5121 5.25 17.9215 5.25Z" fill="#18B860"/>
  <path fill-rule="evenodd" clip-rule="evenodd" d="M18.9907 9.62618V10.0589C18.9907 10.6494 18.5121 11.1281 17.9215 11.1281H14.1942C13.6037 11.1281 13.125 10.6494 13.125 10.0589V6.3192C13.125 5.97388 13.2887 5.66679 13.5427 5.47131C14.7477 7.78881 16.5637 9.17376 18.9907 9.62618Z" fill="url(#paint1_linear)"/>
  <path fill-rule="evenodd" clip-rule="evenodd" d="M8.03275 12.7589L10.9736 18.027C11.0626 18.1863 11.012 18.3914 10.8607 18.4851C10.8118 18.5153 10.7562 18.5313 10.6996 18.5313H4.81785C4.64231 18.5313 4.5 18.3814 4.5 18.1966C4.5 18.1369 4.51513 18.0784 4.54383 18.027L7.4847 12.7589C7.57366 12.5995 7.76845 12.5463 7.91979 12.64C7.96645 12.6688 8.00533 12.7098 8.03275 12.7589Z" fill="#18B860"/>
  <path fill-rule="evenodd" clip-rule="evenodd" d="M10.6542 17.4548L10.9736 18.027C11.0626 18.1863 11.012 18.3914 10.8607 18.4851C10.8118 18.5153 10.7562 18.5313 10.6996 18.5313H4.81785C4.64231 18.5313 4.5 18.3814 4.5 18.1966C4.5 18.137 4.51513 18.0784 4.54383 18.027L6.45833 14.5975C7.28784 16.0486 8.68646 17.0011 10.6542 17.4548Z" fill="url(#paint2_linear)"/>
  <path fill-rule="evenodd" clip-rule="evenodd" d="M16.4034 12.8484L18.8047 14.5967C19.0125 14.748 19.0994 15.0157 19.0201 15.2601L18.1024 18.0906C18.023 18.3355 17.7948 18.5014 17.5374 18.5014H14.5702C14.3127 18.5014 14.0845 18.3355 14.0051 18.0906L13.0874 15.2601C13.0081 15.0157 13.095 14.748 13.3028 14.5967L15.7041 12.8484C15.9125 12.6966 16.195 12.6966 16.4034 12.8484Z" fill="#FFC909"/>
  <path fill-rule="evenodd" clip-rule="evenodd" d="M18.5015 16.8597L18.1024 18.0905C18.023 18.3354 17.7948 18.5013 17.5374 18.5013H14.5702C14.3127 18.5013 14.0845 18.3354 14.0051 18.0905L13.0874 15.26C13.0081 15.0156 13.095 14.7479 13.3028 14.5966L13.8488 14.1991C14.8017 15.6285 16.3526 16.5154 18.5015 16.8597Z" fill="url(#paint3_linear)"/>

</svg>
