<svg width="24" height="24" viewBox="0 0 24 24" fill="none"
  xmlns="http://www.w3.org/2000/svg">
  <defs>
    <linearGradient id="paint0_linear" x1="10.4072" y1="4.60329" x2="15.15" y2="9.6427" gradientUnits="userSpaceOnUse">
      <stop stop-color="#77DEA5"/>
      <stop offset="1" stop-color="#18B860"/>
    </linearGradient>
    <linearGradient id="paint1_linear" x1="14.5403" y1="7.05847" x2="14.5403" y2="20.0312" gradientUnits="userSpaceOnUse">
      <stop stop-color="#18B860"/>
      <stop offset="1" stop-color="#13954D"/>
    </linearGradient>
    <linearGradient id="paint2_linear" x1="12.305" y1="9.03826" x2="15.4807" y2="18.4063" gradientUnits="userSpaceOnUse">
      <stop stop-color="#FFC909"/>
      <stop offset="1" stop-color="#C49B06"/>
    </linearGradient>
  </defs>
  <path d="M12.0156 20.0312C16.4425 20.0312 20.0312 16.4425 20.0312 12.0156C20.0312 7.58872 16.4425 4 12.0156 4C7.58872 4 4 7.58872 4 12.0156C4 16.4425 7.58872 20.0312 12.0156 20.0312Z" fill="url(#paint0_linear)"/>
  <path d="M12.0156 19.5454C16.1742 19.5454 19.5454 16.1742 19.5454 12.0156C19.5454 7.857 16.1742 4.48578 12.0156 4.48578C7.857 4.48578 4.48578 7.857 4.48578 12.0156C4.48578 16.1742 7.857 19.5454 12.0156 19.5454Z" fill="#18B860"/>
  <path fill-rule="evenodd" clip-rule="evenodd" d="M9.0911 19.481C8.90333 17.8234 9.34844 16.5847 10.4264 15.7651C12.4071 14.2591 13.8113 15.0357 15.0432 13.329C16.2403 11.6705 15.4469 8.0924 18.315 7.05847C19.3899 8.42253 20.0313 10.1442 20.0313 12.0156C20.0313 16.4425 16.4425 20.0312 12.0156 20.0312C10.9836 20.0312 9.99716 19.8362 9.0911 19.481Z" fill="url(#paint1_linear)"/>
  <path d="M12.0156 18.0881C15.3693 18.0881 18.0881 15.3693 18.0881 12.0156C18.0881 8.6619 15.3693 5.94318 12.0156 5.94318C8.6619 5.94318 5.94318 8.6619 5.94318 12.0156C5.94318 15.3693 8.6619 18.0881 12.0156 18.0881Z" fill="#FFC909"/>
  <path fill-rule="evenodd" clip-rule="evenodd" d="M7.97148 16.5455C6.72675 15.4335 5.94318 13.8161 5.94318 12.0156C5.94318 8.6619 8.6619 5.94318 12.0156 5.94318C13.8161 5.94318 15.4335 6.72675 16.5456 7.97148C15.4717 7.01215 14.0547 6.42897 12.5014 6.42897C9.1477 6.42897 6.42897 9.14769 6.42897 12.5014C6.42897 14.0547 7.01215 15.4717 7.97148 16.5455Z" fill="#D6AA0C"/>
  <path fill-rule="evenodd" clip-rule="evenodd" d="M10.5483 15.5438C12.3812 14.1796 13.6807 14.8831 14.8207 13.3371C15.7271 12.1079 15.465 9.58035 16.7699 8.23773C17.6338 9.2641 18.088 10.6107 18.088 12.1474C18.088 15.4283 15.3708 18.0881 12.019 18.0881C11.0804 18.0881 10.1916 17.8795 9.39824 17.5072C9.38002 17.4986 9.27426 17.4325 9.25613 17.4238C9.47444 16.6658 9.89755 16.0281 10.5483 15.5438Z" fill="url(#paint2_linear)"/>
  <path d="M11.5015 7.95027V12.2268C11.5015 12.4904 11.719 12.7042 11.9873 12.7042C12.2556 12.7042 12.4731 12.4904 12.4731 12.2268V7.95027C12.4731 7.68662 12.2556 7.4729 11.9873 7.4729C11.719 7.4729 11.5015 7.68662 11.5015 7.95027Z" fill="white"/>
  <path d="M11.9611 12.7057L14.6315 12.6957C14.8727 12.6957 15.0682 12.4782 15.0682 12.2099C15.0682 11.9416 14.8727 11.7241 14.6315 11.7241L11.9611 11.7341C11.7199 11.7341 11.5244 11.9516 11.5244 12.2199C11.5244 12.4882 11.7199 12.7057 11.9611 12.7057Z" fill="white"/>

</svg>
