<svg width="32" height="32" viewBox="0 0 32 32" fill="none"
  xmlns="http://www.w3.org/2000/svg">
  <path d="M24.25 19H7.75C7.33579 19 7 19.3358 7 19.75V24.25C7 24.6642 7.33579 25 7.75 25H24.25C24.6642 25 25 24.6642 25 24.25V19.75C25 19.3358 24.6642 19 24.25 19Z" fill="#8B8D8F"/>
  <path d="M25.5025 13.4275L23.95 12.4C23.828 12.318 23.6845 12.2736 23.5375 12.2725H8.5C8.35374 12.2714 8.21036 12.3131 8.0875 12.3925L6.505 13.4275C6.19582 13.6329 5.94226 13.9116 5.76691 14.2387C5.59155 14.5659 5.49986 14.9313 5.5 15.3025V18.25C5.5 18.8467 5.73705 19.419 6.15901 19.841C6.58097 20.2629 7.15326 20.5 7.75 20.5H24.25C24.8467 20.5 25.419 20.2629 25.841 19.841C26.2629 19.419 26.5 18.8467 26.5 18.25V15.3025C26.501 14.932 26.4104 14.567 26.2364 14.2399C26.0624 13.9128 25.8103 13.6337 25.5025 13.4275V13.4275Z" fill="#BBBBBB"/>
  <path d="M23.5 17.875H21.25C21.1505 17.875 21.0552 17.8355 20.9848 17.7652C20.9145 17.6948 20.875 17.5995 20.875 17.5C20.875 17.4005 20.9145 17.3052 20.9848 17.2348C21.0552 17.1645 21.1505 17.125 21.25 17.125H23.125V16C23.125 15.9005 23.1645 15.8052 23.2348 15.7348C23.3052 15.6645 23.4005 15.625 23.5 15.625C23.5995 15.625 23.6948 15.6645 23.7652 15.7348C23.8355 15.8052 23.875 15.9005 23.875 16V17.5C23.875 17.5995 23.8355 17.6948 23.7652 17.7652C23.6948 17.8355 23.5995 17.875 23.5 17.875Z" fill="#8B8D8F"/>
  <path d="M10.75 17.875H8.5C8.40054 17.875 8.30516 17.8355 8.23484 17.7652C8.16451 17.6948 8.125 17.5995 8.125 17.5V16C8.125 15.9005 8.16451 15.8052 8.23484 15.7348C8.30516 15.6645 8.40054 15.625 8.5 15.625C8.59946 15.625 8.69484 15.6645 8.76516 15.7348C8.83549 15.8052 8.875 15.9005 8.875 16V17.125H10.75C10.8495 17.125 10.9448 17.1645 11.0152 17.2348C11.0855 17.3052 11.125 17.4005 11.125 17.5C11.125 17.5995 11.0855 17.6948 11.0152 17.7652C10.9448 17.8355 10.8495 17.875 10.75 17.875Z" fill="#8B8D8F"/>
  <path d="M19.75 20.5H12.25C11.8358 20.5 11.5 20.8358 11.5 21.25V25.75C11.5 26.1642 11.8358 26.5 12.25 26.5H19.75C20.1642 26.5 20.5 26.1642 20.5 25.75V21.25C20.5 20.8358 20.1642 20.5 19.75 20.5Z" fill="#BBBBBB"/>
  <path d="M22.27 19.2325L21.52 15.76C21.4032 15.2075 21.1631 14.6885 20.8177 14.2418C20.4722 13.795 20.0303 13.4321 19.525 13.18L18.1675 12.505C18.0653 12.4526 17.9524 12.4244 17.8375 12.4225H14.155C14.0387 12.4251 13.924 12.4506 13.8175 12.4975L12.46 13.18C11.9547 13.4321 11.5128 13.795 11.1673 14.2418C10.8219 14.6885 10.5818 15.2075 10.465 15.76L9.715 19.2025C9.63127 19.5362 9.62517 19.8846 9.69716 20.221C9.76915 20.5574 9.91731 20.8728 10.1303 21.1429C10.3432 21.4131 10.6153 21.6308 10.9255 21.7794C11.2358 21.928 11.576 22.0035 11.92 22H20.08C20.4195 22 20.7546 21.9233 21.0602 21.7754C21.3658 21.6275 21.634 21.4124 21.8447 21.1462C22.0554 20.88 22.2031 20.5695 22.2767 20.2381C22.3504 19.9067 22.3481 19.5629 22.27 19.2325Z" fill="#D1D1D1"/>
  <path d="M24.25 10H19.75C19.5511 10 19.3603 10.079 19.2197 10.2197C19.079 10.3603 19 10.5511 19 10.75C19 12.61 20.0275 14.5 22 14.5C23.9725 14.5 25 12.61 25 10.75C25 10.5511 24.921 10.3603 24.7803 10.2197C24.6397 10.079 24.4489 10 24.25 10Z" fill="#F0AB00"/>
  <path d="M12.25 10H7.75C7.55109 10 7.36032 10.079 7.21967 10.2197C7.07902 10.3603 7 10.5511 7 10.75C7 12.61 8.0275 14.5 10 14.5C11.9725 14.5 13 12.61 13 10.75C13 10.5511 12.921 10.3603 12.7803 10.2197C12.6397 10.079 12.4489 10 12.25 10Z" fill="#F0AB00"/>
  <path d="M25 10.57L24.25 7.57C24.2089 7.40359 24.1121 7.25627 23.9756 7.15256C23.8392 7.04885 23.6713 6.99501 23.5 7H20.5C20.3286 6.99501 20.1608 7.04885 20.0243 7.15256C19.8879 7.25627 19.791 7.40359 19.75 7.57L19 10.57C18.9719 10.6807 18.9694 10.7963 18.9928 10.9081C19.0162 11.0199 19.0648 11.1249 19.135 11.215C19.2079 11.3075 19.3016 11.3814 19.4084 11.4309C19.5153 11.4805 19.6323 11.5041 19.75 11.5H24.25C24.3639 11.5006 24.4765 11.4753 24.5791 11.4259C24.6818 11.3765 24.7718 11.3044 24.8425 11.215C24.9165 11.1268 24.9692 11.0227 24.9965 10.9109C25.0238 10.799 25.025 10.6824 25 10.57V10.57Z" fill="#292E34"/>
  <path d="M12.25 7.57C12.2089 7.40359 12.1121 7.25627 11.9756 7.15256C11.8392 7.04885 11.6713 6.99501 11.5 7H8.49997C8.32864 6.99501 8.16078 7.04885 8.02432 7.15256C7.88785 7.25627 7.79103 7.40359 7.74997 7.57L6.99997 10.57C6.97188 10.6807 6.96944 10.7963 6.99284 10.9081C7.01623 11.0199 7.06485 11.1249 7.13497 11.215C7.20791 11.3075 7.30159 11.3814 7.40844 11.4309C7.51528 11.4805 7.63228 11.5041 7.74997 11.5H12.25C12.3639 11.5006 12.4765 11.4753 12.5791 11.4259C12.6818 11.3765 12.7718 11.3044 12.8425 11.215C12.9165 11.1268 12.9692 11.0227 12.9965 10.9109C13.0238 10.799 13.025 10.6824 13 10.57L12.25 7.57Z" fill="#292E34"/>
  <path d="M19 9.25H13C12.8011 9.25 12.6103 9.32902 12.4697 9.46967C12.329 9.61032 12.25 9.80109 12.25 10C12.25 12.82 13.6525 14.5 16 14.5C18.3475 14.5 19.75 12.82 19.75 10C19.75 9.80109 19.671 9.61032 19.5303 9.46967C19.3897 9.32902 19.1989 9.25 19 9.25Z" fill="#F5C12E"/>
  <path d="M19 6.1C18.9649 5.92804 18.8707 5.77383 18.7336 5.6642C18.5966 5.55456 18.4254 5.49646 18.25 5.5H13.75C13.5745 5.49646 13.4034 5.55456 13.2663 5.6642C13.1293 5.77383 13.0351 5.92804 13 6.1L12.25 9.85C12.2285 9.95895 12.2315 10.0713 12.2588 10.179C12.286 10.2866 12.3368 10.3869 12.4075 10.4725C12.4789 10.5605 12.5693 10.6312 12.6719 10.6793C12.7745 10.7273 12.8867 10.7515 13 10.75H19C19.1108 10.7493 19.22 10.724 19.3199 10.676C19.4197 10.628 19.5077 10.5585 19.5775 10.4725C19.6508 10.3881 19.7043 10.2885 19.7342 10.1808C19.764 10.0731 19.7694 9.96006 19.75 9.85L19 6.1Z" fill="#393F44"/>
  <path d="M18.865 19.6525C18.8062 19.4944 18.7254 19.3455 18.625 19.21V16.75C18.625 16.6505 18.5855 16.5552 18.5152 16.4848C18.4448 16.4145 18.3495 16.375 18.25 16.375C18.1505 16.375 18.0552 16.4145 17.9848 16.4848C17.9145 16.5552 17.875 16.6505 17.875 16.75V18.6925C17.7336 18.6512 17.5873 18.6285 17.44 18.625H14.125V16.75C14.125 16.6505 14.0855 16.5552 14.0152 16.4848C13.9448 16.4145 13.8495 16.375 13.75 16.375C13.6505 16.375 13.5552 16.4145 13.4848 16.4848C13.4145 16.5552 13.375 16.6505 13.375 16.75V18.625H13C12.9005 18.625 12.8052 18.6645 12.7348 18.7348C12.6645 18.8052 12.625 18.9005 12.625 19C12.625 19.0995 12.6645 19.1948 12.7348 19.2652C12.8052 19.3355 12.9005 19.375 13 19.375H17.44C17.5774 19.3756 17.712 19.414 17.8291 19.4859C17.9462 19.5579 18.0413 19.6606 18.104 19.7828C18.1666 19.9051 18.1945 20.0423 18.1846 20.1793C18.1746 20.3164 18.1272 20.4481 18.0475 20.56C17.9785 20.6569 17.8874 20.7361 17.7818 20.7908C17.6761 20.8456 17.559 20.8744 17.44 20.875C17.3405 20.875 17.2452 20.9145 17.1748 20.9848C17.1045 21.0552 17.065 21.1505 17.065 21.25C17.065 21.3495 17.1045 21.4448 17.1748 21.5152C17.2452 21.5855 17.3405 21.625 17.44 21.625C17.6773 21.6248 17.9112 21.5682 18.1224 21.46C18.3336 21.3518 18.5162 21.195 18.655 21.0025C18.7944 20.8102 18.8861 20.5875 18.9226 20.3528C18.9591 20.1181 18.9394 19.8781 18.865 19.6525Z" fill="#BBBBBB"/>
</svg>
