<svg width="32" height="32" viewBox="0 0 32 32" fill="none"
  xmlns="http://www.w3.org/2000/svg">
  <path d="M26.4999 9.25V22.75C26.5071 22.9164 26.4586 23.0804 26.3622 23.2162C26.2658 23.352 26.1269 23.4519 25.9675 23.5L16.2175 26.5C16.0752 26.5401 15.9247 26.5401 15.7825 26.5L6.03245 23.5C5.87302 23.4519 5.73415 23.352 5.63773 23.2162C5.54131 23.0804 5.49284 22.9164 5.49995 22.75V9.25C5.49917 9.16052 5.51441 9.07162 5.54495 8.9875L16 12.25L26.455 8.9875C26.4855 9.07162 26.5007 9.16052 26.4999 9.25V9.25Z" fill="#4D5258"/>
  <path d="M25.9674 8.5L16.2174 5.5H16.1274C16.0149 5.46623 15.8949 5.46623 15.7824 5.5L6.03242 8.5C5.92132 8.53336 5.81947 8.59204 5.73488 8.67143C5.65029 8.75081 5.58526 8.84874 5.54492 8.9575L15.9999 12.25L26.4549 8.9875C26.4186 8.87318 26.3553 8.76924 26.2705 8.68442C26.1857 8.59959 26.0817 8.53635 25.9674 8.5Z" fill="#72767B"/>
  <path d="M26.5 9.25V22.75C26.5071 22.9164 26.4586 23.0804 26.3622 23.2162C26.2658 23.352 26.1269 23.4519 25.9675 23.5L16.2175 26.5C16.1455 26.5115 16.072 26.5115 16 26.5V12.25L26.455 8.9875C26.4855 9.07162 26.5008 9.16052 26.5 9.25V9.25Z" fill="#292E34"/>
  <path d="M15.9999 15.25L5.49988 12.25V15.25L15.9999 18.25L26.4999 15.25V12.25L15.9999 15.25Z" fill="#F5C12E"/>
  <path d="M16 15.25V18.25L26.5 15.25V12.25L16 15.25Z" fill="#B58100"/>
</svg>
