<svg width="48" height="48" viewBox="0 0 48 48" fill="none"
  xmlns="http://www.w3.org/2000/svg">
  <defs>
    <linearGradient id="paint0_linear" x1="48.4055" y1="20.3847" x2="28.9169" y2="-0.0361266" gradientUnits="userSpaceOnUse">
      <stop stop-color="#FFC909"/>
      <stop offset="1" stop-color="#C49B06"/>
    </linearGradient>
    <linearGradient id="paint1_linear" x1="6.97831" y1="16.093" x2="34.6904" y2="40.4485" gradientUnits="userSpaceOnUse">
      <stop stop-color="#FFC909"/>
      <stop offset="1" stop-color="#9C7C09"/>
    </linearGradient>
    <linearGradient id="paint2_linear" x1="23.7756" y1="5.32879" x2="-15.38" y2="3.01627" gradientUnits="userSpaceOnUse">
      <stop stop-color="#FFC909"/>
      <stop offset="1" stop-color="#C49B06"/>
    </linearGradient>
    <linearGradient id="paint3_linear" x1="27.9815" y1="25.3445" x2="22.9575" y2="33.3607" gradientUnits="userSpaceOnUse">
      <stop stop-color="#FFC909"/>
      <stop offset="1" stop-color="#B79210"/>
    </linearGradient>
    <linearGradient id="paint4_linear" x1="26.2671" y1="18.9349" x2="20.7608" y2="28.4376" gradientUnits="userSpaceOnUse">
      <stop stop-color="#FFC909"/>
      <stop offset="1" stop-color="#B79210"/>
    </linearGradient>
    <linearGradient id="paint5_linear" x1="28.6785" y1="21.9492" x2="20.6969" y2="32.9467" gradientUnits="userSpaceOnUse">
      <stop stop-color="#FFC909"/>
      <stop offset="1" stop-color="#B79210"/>
    </linearGradient>
  </defs>
  <path fill-rule="evenodd" clip-rule="evenodd" d="M27.5828 30.9297L31.8827 34.6642C31.8827 34.6642 40.683 26.5311 39.589 25.6678C36.7981 23.4654 32.5797 19.7951 32.5797 19.7951C32.5797 19.7951 30.4969 15.6253 29.1908 14.317C27.8848 13.0088 25.7346 11.7642 24.0778 11.7642C22.421 11.7642 20.7292 11.8344 18.3514 11.2896C15.9736 10.7448 14.0632 9.78556 13.6058 10.2808C13.1484 10.776 11.7741 13.2956 17.8838 15.914C23.9935 18.5325 20.7049 18.1584 22.6219 21.601C24.5389 25.0436 23.226 26.5764 22.3838 27.4734C21.5416 28.3704 22.1343 30.2496 23.3097 30.5897C24.4851 30.9297 27.5828 30.9297 27.5828 30.9297Z" fill="#FFC909"/>
  <path fill-rule="evenodd" clip-rule="evenodd" d="M14.9312 15.9141H20.1281C25.8636 16.1394 26.2382 17.4784 27.195 18.5084C28.4607 19.8711 30.6862 25.3027 34.5516 26.3637C36.4691 26.8901 38.1463 26.6565 39.583 25.6631C39.583 25.6631 31.8239 34.0673 30.7076 33.2414C29.666 32.4709 27.5828 30.9298 27.5828 30.9298C25.5176 30.9298 24.0932 30.8164 23.3096 30.5897C22.1342 30.2497 21.5416 28.3705 22.3838 27.4735C23.226 26.5765 24.5388 25.0436 22.6219 21.601C21.2068 19.0598 16.9387 17.1415 14.9312 15.9141Z" fill="url(#paint0_linear)"/>
  <path fill-rule="evenodd" clip-rule="evenodd" d="M23.3096 30.5897C22.1342 30.2497 21.5416 28.3705 22.3838 27.4735C23.226 26.5765 24.5388 25.0436 22.6218 21.601C22.5977 21.5576 22.5727 21.5144 22.5469 21.4714L24.6853 18.7819C26.9708 19.5399 27.832 21.4064 28.1136 24.2256C28.681 29.9065 24.0932 30.8164 23.3096 30.5897Z" fill="url(#paint1_linear)"/>
  <path d="M15.1003 17.0362C15.8578 17.0362 16.4719 16.4221 16.4719 15.6647C16.4719 14.9072 15.8578 14.2931 15.1003 14.2931C14.3428 14.2931 13.7288 14.9072 13.7288 15.6647C13.7288 16.4221 14.3428 17.0362 15.1003 17.0362Z" fill="#18B860"/>
  <path d="M15.3496 19.53C16.1071 19.53 16.7212 18.9159 16.7212 18.1584C16.7212 17.4009 16.1071 16.7869 15.3496 16.7869C14.5922 16.7869 13.9781 17.4009 13.9781 18.1584C13.9781 18.9159 14.5922 19.53 15.3496 19.53Z" fill="#18B860"/>
  <path d="M12.8559 15.54C13.6134 15.54 14.2275 14.9259 14.2275 14.1684C14.2275 13.4109 13.6134 12.7969 12.8559 12.7969C12.0984 12.7969 11.4844 13.4109 11.4844 14.1684C11.4844 14.9259 12.0984 15.54 12.8559 15.54Z" fill="#18B860"/>
  <path d="M10.3622 16.2881C11.1197 16.2881 11.7338 15.674 11.7338 14.9165C11.7338 14.1591 11.1197 13.545 10.3622 13.545C9.60473 13.545 8.99067 14.1591 8.99067 14.9165C8.99067 15.674 9.60473 16.2881 10.3622 16.2881Z" fill="#18B860"/>
  <path d="M9.36478 18.7819C10.1223 18.7819 10.7363 18.1678 10.7363 17.4103C10.7363 16.6528 10.1223 16.0388 9.36478 16.0388C8.60729 16.0388 7.99322 16.6528 7.99322 17.4103C7.99322 18.1678 8.60729 18.7819 9.36478 18.7819Z" fill="#18B860"/>
  <path d="M9.36478 21.2756C10.1223 21.2756 10.7363 20.6615 10.7363 19.904C10.7363 19.1465 10.1223 18.5325 9.36478 18.5325C8.60729 18.5325 7.99322 19.1465 7.99322 19.904C7.99322 20.6615 8.60729 21.2756 9.36478 21.2756Z" fill="#18B860"/>
  <path d="M11.3597 26.0138C12.1172 26.0138 12.7312 25.3997 12.7312 24.6422C12.7312 23.8847 12.1172 23.2706 11.3597 23.2706C10.6022 23.2706 9.98811 23.8847 9.98811 24.6422C9.98811 25.3997 10.6022 26.0138 11.3597 26.0138Z" fill="#18B860"/>
  <path d="M12.3571 28.2581C13.1146 28.2581 13.7287 27.6441 13.7287 26.8866C13.7287 26.1291 13.1146 25.515 12.3571 25.515C11.5996 25.515 10.9856 26.1291 10.9856 26.8866C10.9856 27.6441 11.5996 28.2581 12.3571 28.2581Z" fill="#18B860"/>
  <path d="M13.8534 30.2531C14.6109 30.2531 15.2249 29.639 15.2249 28.8815C15.2249 28.124 14.6109 27.5099 13.8534 27.5099C13.0959 27.5099 12.4818 28.124 12.4818 28.8815C12.4818 29.639 13.0959 30.2531 13.8534 30.2531Z" fill="#18B860"/>
  <path d="M15.5992 32.2481C16.3567 32.2481 16.9707 31.6341 16.9707 30.8766C16.9707 30.1191 16.3567 29.505 15.5992 29.505C14.8417 29.505 14.2276 30.1191 14.2276 30.8766C14.2276 31.6341 14.8417 32.2481 15.5992 32.2481Z" fill="#18B860"/>
  <path d="M17.8434 33.495C18.6009 33.495 19.2149 32.8809 19.2149 32.1234C19.2149 31.3659 18.6009 30.7518 17.8434 30.7518C17.0859 30.7518 16.4718 31.3659 16.4718 32.1234C16.4718 32.8809 17.0859 33.495 17.8434 33.495Z" fill="#18B860"/>
  <path d="M20.3373 33.495C21.0948 33.495 21.7088 32.8809 21.7088 32.1234C21.7088 31.3659 21.0948 30.7518 20.3373 30.7518C19.5798 30.7518 18.9657 31.3659 18.9657 32.1234C18.9657 32.8809 19.5798 33.495 20.3373 33.495Z" fill="#18B860"/>
  <path d="M22.0828 31.7493C22.8403 31.7493 23.4544 31.1353 23.4544 30.3778C23.4544 29.6203 22.8403 29.0062 22.0828 29.0062C21.3254 29.0062 20.7113 29.6203 20.7113 30.3778C20.7113 31.1353 21.3254 31.7493 22.0828 31.7493Z" fill="#18B860"/>
  <path fill-rule="evenodd" clip-rule="evenodd" d="M7.09003 25.8411C8.08645 27.6254 8.35937 29.0995 7.90877 30.2632C7.54818 31.1945 7.24869 32.0633 7.01029 32.8695C6.99107 32.9345 6.94619 32.9889 6.88601 33.0202C6.76376 33.0836 6.61323 33.0359 6.54979 32.9137L6.5498 32.9137C5.45627 30.8063 5.05273 29.2162 5.3392 28.1435C5.64998 26.9798 6.23359 26.2123 7.09003 25.8411Z" fill="#FFC909"/>
  <path d="M9.03091 21.6598C9.03091 21.6598 6.43135 25.5403 6.92066 26.337C7.40997 27.1336 10.6746 23.8693 11.2243 23.2314C11.774 22.5936 11.2866 21.367 10.4025 21.0934C9.51832 20.8199 9.03091 21.6598 9.03091 21.6598Z" fill="#007AFF"/>
  <path d="M28.9402 33.2931C28.3978 32.7507 28.3978 31.8712 28.9402 31.3288L36.5483 23.7207C37.0908 23.1782 37.9702 23.1782 38.5127 23.7207L41.5865 26.7945C42.1289 27.3369 42.1289 28.2164 41.5865 28.7588L33.9783 36.367C33.4359 36.9094 32.5565 36.9094 32.014 36.367L28.9402 33.2931Z" fill="#18B860"/>
  <path d="M34.5902 25.6788L36.6309 23.6381C37.1734 23.0957 38.0528 23.0957 38.5952 23.6381L41.6691 26.7119C42.2115 27.2544 42.2115 28.1338 41.6691 28.6762L39.6283 30.717L34.5902 25.6788Z" fill="#12964D"/>
  <path fill-rule="evenodd" clip-rule="evenodd" d="M13.0866 15.7087C12.2908 15.6063 11.4924 15.99 11.274 16.762C11.1226 17.2977 11.0324 17.9384 11.1854 18.5324C11.5386 19.904 11.7838 19.753 11.9675 20.2321C11.7755 21.0262 11.9675 22.9972 13.7288 23.7438C13.1471 24.8439 14.1462 26.8024 16.0165 27.4235C16.4187 29.2225 17.1615 29.7556 18.0552 30.1043C21.2504 31.3512 25.427 28.8968 26.3756 28.5056C27.3242 28.1143 28.0493 25.7495 26.1342 25.7495C26.2479 25.5345 27.0985 25.2107 27.3242 24.8439C27.8688 23.9586 27.7468 22.847 26.3756 22.5862C27.4455 21.4675 26.7039 20.1932 26.1342 19.9543C25.5644 19.7154 24.6478 19.5713 24.5077 19.5299C25.7856 18.7818 24.936 17.2195 23.4545 17.0362C22.3033 16.8938 15.8894 16.0692 13.0866 15.7087Z" fill="url(#paint2_linear)"/>
  <path fill-rule="evenodd" clip-rule="evenodd" d="M16.1811 27.4235C16.281 27.3225 18.7218 27.3771 20.7113 27.1319C22.7008 26.8866 25.8338 25.7177 25.8338 26.0138C25.8338 26.3098 23.7038 26.97 20.3372 27.51C16.9707 28.05 16.0813 27.5245 16.1811 27.4235Z" fill="url(#paint3_linear)"/>
  <path fill-rule="evenodd" clip-rule="evenodd" d="M12.0146 21.6698C12.0145 21.581 12.0111 21.4818 12.0075 21.3783C12.0036 21.2636 11.9995 21.1435 11.9995 21.0262C11.9995 20.563 14.011 20.6084 15.9567 20.6523C16.5221 20.6651 17.0819 20.6777 17.5851 20.6777C19.8205 20.6777 22.3173 20.2292 23.2485 19.9041C24.1796 19.5789 23.4544 19.53 20.3372 19.9041C17.22 20.2781 12.1242 19.9798 12.1242 19.9798C12.1242 19.9798 11.9281 19.852 11.7475 19.8652C11.7508 19.8695 11.7541 19.8737 11.7574 19.878C11.8357 19.9796 11.9051 20.0696 11.9674 20.2321C11.8872 20.5641 11.874 21.1018 12.0146 21.6698Z" fill="url(#paint4_linear)"/>
  <path fill-rule="evenodd" clip-rule="evenodd" d="M13.8472 25.5668C13.8494 25.5503 13.8515 25.533 13.8535 25.515C13.963 24.484 16.5453 24.3205 19.0069 24.1646C19.3479 24.143 19.6866 24.1216 20.0161 24.098C22.724 23.9041 25.5351 23.2706 25.8338 22.9972C26.013 22.8331 25.7697 22.866 24.9435 22.9776C24.3931 23.052 23.5841 23.1613 22.4691 23.2706C21.6151 23.3543 21.0245 23.4311 20.5148 23.4974C19.3599 23.6477 18.6204 23.7438 16.1737 23.7438C14.613 23.7438 13.7839 23.6512 13.3445 23.5478C13.4634 23.6199 13.5913 23.6856 13.7288 23.7438C13.4647 24.2431 13.5263 24.9192 13.8472 25.5668Z" fill="url(#paint5_linear)"/>

</svg>
