<svg xmlns="http://www.w3.org/2000/svg" viewBox="0 0 32 32">
  <path d="M30 7v18a1 1 0 01-.71 1l-13 4a1.07 1.07 0 01-.58 0l-13-4A1 1 0 012 25V7a1 1 0 01.06-.35L16 11l13.94-4.35A1 1 0 0130 7z" fill="#4d5258"/>
  <path d="M29.29 6l-13-4h-.12a.8.8 0 00-.46 0l-13 4a1 1 0 00-.65.61L16 11l13.94-4.35a1 1 0 00-.65-.65z" fill="#72767b"/>
  <path d="M30 7v18a1 1 0 01-.71 1l-13 4a.92.92 0 01-.29 0V11l13.94-4.35A1 1 0 0130 7z" fill="#292e34"/>
  <path fill="#f5c12e" d="M16 15L2 11v4l14 4 14-4v-4l-14 4z"/>
  <path fill="#b58100" d="M16 15v4l14-4v-4l-14 4z"/>
</svg>