<svg width="24" height="24" viewBox="0 0 24 24" fill="none"
  xmlns="http://www.w3.org/2000/svg">
  <path d="M21.6751 14.6648L20.1399 13.3523C20.2126 12.907 20.2501 12.4523 20.2501 11.9976C20.2501 11.5429 20.2126 11.0883 20.1399 10.6429L21.6751 9.33044C21.7908 9.23132 21.8737 9.09929 21.9127 8.95193C21.9516 8.80456 21.9447 8.64883 21.893 8.50544L21.8719 8.44451C21.4493 7.26332 20.8165 6.16834 20.004 5.21248L19.9618 5.16326C19.8632 5.04736 19.7318 4.96405 19.585 4.92431C19.4381 4.88456 19.2827 4.89024 19.1391 4.9406L17.2336 5.61794C16.5305 5.04138 15.7454 4.58669 14.8969 4.26794L14.529 2.27576C14.5012 2.12586 14.4285 1.98795 14.3205 1.88036C14.2125 1.77277 14.0743 1.70059 13.9243 1.67341L13.861 1.66169C12.6399 1.44138 11.3555 1.44138 10.1344 1.66169L10.0711 1.67341C9.92114 1.70059 9.78295 1.77277 9.67494 1.88036C9.56694 1.98795 9.49422 2.12586 9.46646 2.27576L9.09615 4.27732C8.25448 4.59614 7.47068 5.05058 6.77584 5.62263L4.8563 4.9406C4.71279 4.88984 4.55722 4.88395 4.41028 4.92372C4.26333 4.9635 4.13197 5.04704 4.03365 5.16326L3.99146 5.21248C3.17993 6.16902 2.54718 7.26381 2.12349 8.44451L2.1024 8.50544C1.99693 8.79841 2.08365 9.12654 2.32037 9.33044L3.87427 10.657C3.80162 11.0976 3.76646 11.5476 3.76646 11.9953C3.76646 12.4453 3.80162 12.8953 3.87427 13.3336L2.32037 14.6601C2.20457 14.7593 2.1217 14.8913 2.08277 15.0387C2.04383 15.186 2.05068 15.3418 2.1024 15.4851L2.12349 15.5461C2.54771 16.7273 3.17583 17.8172 3.99146 18.7781L4.03365 18.8273C4.13221 18.9432 4.26358 19.0265 4.41043 19.0663C4.55729 19.106 4.71274 19.1003 4.8563 19.05L6.77584 18.3679C7.47427 18.9422 8.25474 19.3969 9.09615 19.7133L9.46646 21.7148C9.49422 21.8647 9.56694 22.0026 9.67494 22.1102C9.78295 22.2178 9.92114 22.29 10.0711 22.3172L10.1344 22.3289C11.3667 22.5504 12.6287 22.5504 13.861 22.3289L13.9243 22.3172C14.0743 22.29 14.2125 22.2178 14.3205 22.1102C14.4285 22.0026 14.5012 21.8647 14.529 21.7148L14.8969 19.7226C15.745 19.4047 16.5346 18.9485 17.2336 18.3726L19.1391 19.05C19.2826 19.1007 19.4382 19.1066 19.5851 19.0669C19.7321 19.0271 19.8634 18.9435 19.9618 18.8273L20.004 18.7781C20.8196 17.8148 21.4477 16.7273 21.8719 15.5461L21.893 15.4851C21.9985 15.1969 21.9118 14.8687 21.6751 14.6648V14.6648ZM18.4758 10.9195C18.5344 11.2734 18.5649 11.6367 18.5649 12C18.5649 12.3633 18.5344 12.7265 18.4758 13.0804L18.3211 14.0203L20.0719 15.5179C19.8065 16.1294 19.4715 16.7082 19.0735 17.2429L16.8985 16.4719L16.1626 17.0765C15.6024 17.5359 14.979 17.8969 14.304 18.15L13.411 18.4851L12.9915 20.7586C12.3295 20.8336 11.6612 20.8336 10.9993 20.7586L10.5797 18.4804L9.6938 18.1406C9.02583 17.8875 8.40474 17.5265 7.84927 17.0695L7.11334 16.4625L4.92427 17.2406C4.52583 16.7039 4.19302 16.125 3.92583 15.5156L5.69537 14.0039L5.54302 13.0664C5.48677 12.7172 5.4563 12.3562 5.4563 12C5.4563 11.6414 5.48443 11.2828 5.54302 10.9336L5.69537 9.99607L3.92583 8.48435C4.19068 7.87263 4.52583 7.29607 4.92427 6.75935L7.11334 7.53748L7.84927 6.93044C8.40474 6.47341 9.02583 6.11248 9.6938 5.85935L10.5821 5.52419L11.0016 3.24607C11.6602 3.17107 12.3329 3.17107 12.9938 3.24607L13.4133 5.51951L14.3063 5.85466C14.979 6.10779 15.6047 6.46873 16.1649 6.9281L16.9008 7.53279L19.0758 6.76169C19.4743 7.29841 19.8071 7.87732 20.0743 8.48669L18.3235 9.98435L18.4758 10.9195ZM12.0001 7.6406C9.72193 7.6406 7.87505 9.48748 7.87505 11.7656C7.87505 14.0437 9.72193 15.8906 12.0001 15.8906C14.2782 15.8906 16.1251 14.0437 16.1251 11.7656C16.1251 9.48748 14.2782 7.6406 12.0001 7.6406ZM13.8563 13.6219C13.6128 13.866 13.3235 14.0596 13.0049 14.1916C12.6864 14.3235 12.3449 14.3911 12.0001 14.3906C11.2993 14.3906 10.6407 14.1164 10.1438 13.6219C9.89964 13.3784 9.70602 13.089 9.57409 12.7705C9.44216 12.4519 9.37452 12.1104 9.37505 11.7656C9.37505 11.0648 9.64927 10.4062 10.1438 9.90935C10.6407 9.41248 11.2993 9.1406 12.0001 9.1406C12.7008 9.1406 13.3594 9.41248 13.8563 9.90935C14.1005 10.1528 14.2941 10.4422 14.426 10.7607C14.5579 11.0793 14.6256 11.4208 14.6251 11.7656C14.6251 12.4664 14.3508 13.125 13.8563 13.6219Z" fill="black"/>
</svg>
