<svg xmlns="http://www.w3.org/2000/svg"
	xmlns:xlink="http://www.w3.org/1999/xlink" viewBox="0 0 1745 1742">
	<g id="Layer_2">
		<path d="M-.39.29H1745V1744H-.39z" class="st17" fill="#11ad54"/>
		<defs>
			<path id="SVGID_5_" d="M1690.59 1741.88H52.32c-28.64 0-51.86-23.22-51.86-51.86V53.42c0-28.64 23.22-51.86 51.86-51.86h1638.27c28.64 0 51.86 23.22 51.86 51.86v1636.6c0 28.64-23.22 51.86-51.86 51.86z"/>
		</defs>
		<clipPath id="SVGID_2_">
			<use overflow="visible" xlink:href="#SVGID_5_"/>
		</clipPath>
		<path d="M293.91 522.47l-51.03-88.38 88.46-54.39-30.62-117.26-122.48 32.29v96.87l-107.18 5.1-28.92 125.77 120.79 32.29 50.18-90.93 90.16 49.29 90.16-88.38-90.16-88.37-85.06 45.88-56.14-86.67-120.78 37.39 28.92 113.87 107.17 5.09-1.7 101.98 120.79 28.89 35.72-117.27-91.86-52.68 52.73-86.68-86.76-91.77-90.16 90.07 52.74 90.08-90.16 50.98 30.62 122.37 122.48-35.69 1.7-101.97h102.07l32.32-122.37-122.48-30.59-52.73 88.37-86.76-49.28-90.16 90.07 88.46 84.98 91.86-52.69 47.63 86.68 124.18-25.49-32.32-125.77-103.77 3.4 1.7-103.67-122.48-30.59-34.02 118.96 86.76 49.29-47.64 90.08 88.46 93.47z" class="st18" fill="none" stroke="#fed800" stroke-miterlimit="10" clip-path="url(#SVGID_2_)"/>
		<path d="M283.83 287.94l38.15-11.06 24.52-23.57-29.41-26.84-33.97-10.39-8.68 38.19zM-13.87 457.89l38.15-11.05 24.52-23.58-29.42-26.83-33.97-10.4-8.67 38.19zM124.46 287.94l-38.15-11.06-24.52-23.57 29.42-26.84 33.97-10.39 8.67 38.19zM124.46 631.24l-38.15-11.05-24.52-23.58 29.42-26.83 33.97-10.39 8.67 38.18zM283.83 631.24l38.15-11.05 24.52-23.58-29.41-26.83-33.97-10.39-8.68 38.18zM423.86 457.89l-38.15-11.05-24.51-23.58 29.41-26.83 33.97-10.4 8.68 38.19z" class="st18" fill="none" stroke="#fed800" stroke-miterlimit="10" clip-path="url(#SVGID_2_)"/>
		<path d="M591.69 352.45l-51.1-88.34 88.42-54.45-30.7-117.24-122.46 32.37.06 96.88-107.16 5.17-28.84 125.79 120.81 32.2 50.12-90.96 90.2 49.23 90.09-88.44-90.22-88.32-85.03 45.95-56.19-86.63-120.76 37.47 29 113.85L475.11 282l-1.63 101.97 120.8 28.81 35.64-117.29-91.9-52.62 52.68-86.72-86.83-91.71-90.1 90.14 52.8 90.04-90.12 51.05 30.71 122.34 122.45-35.78 1.63-101.97 102.07-.07 32.24-122.39-122.51-30.5-52.67 88.41-86.79-49.23-90.1 90.14L402 341.54l91.82-52.75 47.7 86.64 124.16-25.58-32.41-125.74-103.77 3.47 1.63-103.67-122.5-30.51-33.94 118.99 86.79 49.23-47.57 90.11 88.53 93.41z" class="st18" fill="none" stroke="#fed800" stroke-miterlimit="10" clip-path="url(#SVGID_2_)"/>
		<path d="M581.53 117.99l38.16-11.06 24.51-23.58-29.41-26.83-33.97-10.39-8.68 38.18zM581.53 461.29l38.16-11.05 24.51-23.58-29.41-26.84-33.97-10.39-8.68 38.19zM721.57 287.94l-38.16-11.06-24.51-23.57 29.41-26.84 33.97-10.39 8.68 38.19zM1193.83 347.41l-51.04-88.37 88.46-54.39-30.62-117.26-122.48 32.29v96.87l-107.18 5.1-28.92 125.76 120.79 32.29 50.18-90.92 90.16 49.29 90.16-88.38-90.16-88.37-85.06 45.88-56.13-86.67-120.79 37.39 28.92 113.86 107.18 5.1-1.7 101.98 120.78 28.89 35.72-117.27-91.86-52.69 52.73-86.67-86.75-91.78-90.17 90.08 52.74 90.07-90.16 50.99 30.62 122.37 122.48-35.69 1.7-101.98h102.07l32.33-122.36-122.49-30.59-52.73 88.37-86.76-49.28-90.16 90.07 88.46 84.98 91.86-52.69 47.63 86.68 124.19-25.5-32.33-125.76-103.77 3.4 1.7-103.67-122.48-30.59-34.02 118.96 86.76 49.29-47.64 90.07 88.46 93.48zM-3.79 692.42l-51.03-88.38 88.46-54.38L3.02 432.39l-122.49 32.29v96.87l-107.17 5.1-28.92 125.77 120.78 32.29 50.19-90.93 90.16 49.29 90.16-88.37-90.16-88.38-85.06 45.89-56.14-86.68-120.78 37.39 28.92 113.87 107.17 5.1-1.7 101.97 120.78 28.89 35.73-117.27-91.86-52.68 52.73-86.68-86.76-91.77-90.16 90.07 52.74 90.08-90.16 50.98 30.62 122.37 122.48-35.69 1.7-101.97H37.89l32.32-122.37-122.48-30.59-52.74 88.38-86.76-49.29-90.16 90.07 88.46 84.98 91.87-52.68 47.63 86.67 124.18-25.49L37.89 564.1l-103.77 3.4 1.7-103.67-122.48-30.59-34.03 118.97 86.76 49.28-47.63 90.08 88.46 93.47z" class="st18" fill="none" stroke="#fed800" stroke-miterlimit="10" clip-path="url(#SVGID_2_)"/>
		<path d="M-5.49 1037.42l-51.03-88.37 88.46-54.39L1.32 777.39l-122.49 32.3v96.87l-107.17 5.1-28.92 125.76 120.78 32.29 50.19-90.92 90.16 49.28 90.16-88.37-90.16-88.38-85.06 45.89-56.14-86.68-120.78 37.39 28.92 113.87 107.17 5.1-1.7 101.97 120.78 28.89 35.73-117.26-91.87-52.69 52.74-86.67-86.76-91.78-90.16 90.08 52.74 90.07-90.17 50.99 30.63 122.36 122.48-35.69 1.7-101.97H36.19l32.32-122.36-122.48-30.6-52.74 88.38-86.76-49.29-90.16 90.08 88.46 84.97 91.86-52.68 47.64 86.68 124.18-25.5-32.32-125.76-103.77 3.4 1.7-103.67-122.48-30.6-34.03 118.97 86.76 49.29-47.63 90.07 88.46 93.48z" class="st18" fill="none" stroke="#fed800" stroke-miterlimit="10" clip-path="url(#SVGID_2_)"/>
		<path d="M-5.49 1380.73l-51.03-88.38 88.46-54.38L1.32 1120.7l-122.49 32.29v96.87l-107.17 5.1-28.92 125.77 120.78 32.29 50.19-90.93 90.16 49.29L94.03 1283l-90.16-88.37-85.06 45.89-56.14-86.68-120.78 37.39 28.92 113.87 107.17 5.1-1.7 101.97 120.78 28.89 35.73-117.27-91.87-52.68 52.74-86.68-86.76-91.77-90.16 90.07 52.74 90.08-90.17 50.98 30.63 122.37 122.48-35.69 1.7-101.97H36.19l32.32-122.37-122.48-30.59-52.74 88.37-86.76-49.28-90.16 90.07 88.46 84.98 91.86-52.69 47.64 86.68 124.18-25.49-32.32-125.77-103.77 3.4 1.7-103.67-122.48-30.59-34.03 118.97 86.76 49.28-47.63 90.08 88.46 93.47z" class="st18" fill="none" stroke="#fed800" stroke-miterlimit="10" clip-path="url(#SVGID_2_)"/>
		<path d="M-5.49 1730.83l-51.03-88.38 88.46-54.38L1.32 1470.8l-122.49 32.29v96.88l-107.17 5.09-28.92 125.77 120.78 32.29 50.19-90.93 90.16 49.29 90.16-88.37-90.16-88.38-85.06 45.89-56.14-86.68-120.78 37.39 28.92 113.87 107.17 5.1-1.7 101.97 120.78 28.89 35.73-117.27-91.87-52.68 52.74-86.68-86.76-91.77-90.16 90.07 52.74 90.08-90.17 50.98 30.63 122.37 122.48-35.69 1.7-101.97H36.19l32.32-122.37-122.48-30.59-52.74 88.38-86.76-49.29-90.16 90.08 88.46 84.97 91.86-52.68 47.64 86.67 124.18-25.49-32.32-125.77-103.77 3.4 1.7-103.67-122.48-30.59-34.03 118.97 86.76 49.28-47.63 90.08 88.46 93.47zM595.02 1382.43l-51.04-88.38 88.46-54.38-30.62-117.27-122.48 32.29v96.87l-107.17 5.1-28.92 125.77 120.78 32.29 50.18-90.93 90.17 49.29 90.16-88.38-90.16-88.37-85.06 45.88-56.14-86.67-120.78 37.39 28.92 113.87 107.17 5.1-1.7 101.97 120.78 28.89 35.72-117.27-91.86-52.68 52.74-86.68-86.76-91.77-90.16 90.07 52.73 90.08-90.16 50.98 30.62 122.37 122.49-35.69 1.7-101.97H636.7l32.32-122.37-122.48-30.59-52.74 88.37-86.76-49.28-90.16 90.07 88.46 84.98 91.86-52.69 47.63 86.68 124.19-25.49-32.32-125.77-103.77 3.4 1.7-103.67-122.49-30.59-34.02 118.96 86.76 49.29-47.63 90.08 88.46 93.47zM889.32 1895.68l-51.04-88.37 88.46-54.39-30.62-117.26-122.48 32.29v96.87l-107.17 5.1-28.92 125.76 120.78 32.29 50.18-90.92 90.16 49.29 90.17-88.38-90.17-88.38-85.05 45.89-56.14-86.67-120.78 37.39 28.92 113.86 107.17 5.1-1.7 101.97 120.78 28.9 35.72-117.27-91.86-52.69 52.74-86.67-86.76-91.78-90.16 90.08 52.73 90.07-90.16 50.99 30.62 122.36 122.49-35.69 1.7-101.97H931l32.32-122.36-122.48-30.59-52.74 88.37-86.76-49.29-90.16 90.08 88.46 84.98 91.86-52.69 47.63 86.68 124.19-25.5L931 1767.37l-103.77 3.4 1.7-103.67-122.49-30.6-34.02 118.97 86.76 49.29-47.63 90.07 88.46 93.48zM1192.12 1382.43l-51.03-88.38 88.46-54.38-30.62-117.27-122.48 32.29v96.87l-107.18 5.1-28.92 125.77 120.79 32.29 50.18-90.93 90.16 49.29 90.16-88.38-90.16-88.37-85.06 45.88-56.14-86.67-120.78 37.39 28.92 113.87 107.18 5.1-1.71 101.97 120.79 28.89 35.72-117.27-91.86-52.68 52.73-86.68-86.76-91.77-90.16 90.07 52.74 90.08-90.16 50.98 30.62 122.37 122.48-35.69 1.7-101.97h102.07l32.32-122.37-122.48-30.59-52.73 88.37-86.76-49.28-90.16 90.07 88.46 84.98 91.86-52.69 47.63 86.68 124.18-25.49-32.32-125.77-103.77 3.4 1.7-103.67-122.48-30.59-34.02 118.96 86.76 49.29-47.64 90.08 88.46 93.47zM1489.83 1900.78l-51.04-88.37 88.46-54.39-30.62-117.27-122.48 32.29v96.88l-107.17 5.1-28.92 125.76 120.78 32.29 50.18-90.92 90.16 49.28 90.16-88.37-90.16-88.38-85.05 45.89-56.14-86.68-120.79 37.39 28.92 113.87 107.18 5.1-1.7 101.97 120.78 28.89 35.72-117.26-91.86-52.69 52.74-86.67-86.76-91.78-90.16 90.08 52.73 90.07-90.16 50.99 30.62 122.36 122.48-35.69 1.71-101.97h102.06l32.33-122.36-122.49-30.6-52.73 88.38-86.76-49.29-90.16 90.08 88.46 84.97 91.86-52.68 47.63 86.67 124.19-25.49-32.33-125.76-103.77 3.4 1.71-103.68-122.49-30.59-34.02 118.97 86.76 49.29-47.63 90.07 88.46 93.48z" class="st18" fill="none" stroke="#fed800" stroke-miterlimit="10" clip-path="url(#SVGID_2_)"/>
		<path d="M1787.53 1727.43l-51.04-88.38 88.46-54.38-30.62-117.27-122.48 32.29v96.88l-107.17 5.09-28.92 125.77 120.78 32.29 50.18-90.92 90.17 49.28 90.16-88.37-90.16-88.38-85.06 45.89-56.14-86.68-120.78 37.39 28.92 113.87 107.17 5.1-1.7 101.97 120.78 28.89 35.72-117.26-91.86-52.69 52.74-86.68-86.76-91.77-90.16 90.07 52.73 90.08-90.16 50.99 30.62 122.36 122.49-35.69 1.7-101.97h102.07l32.32-122.37-122.48-30.59-52.74 88.38-86.76-49.29-90.16 90.08 88.46 84.97 91.86-52.68 47.63 86.67 124.19-25.49-32.32-125.76-103.77 3.39 1.7-103.67-122.49-30.59-34.02 118.97 86.76 49.28-47.63 90.08 88.46 93.47zM1789.23 4.11l-51.03-88.38 88.46-54.38-30.63-117.27-122.48 32.29v96.88l-107.17 5.09-28.92 125.77 120.78 32.29 50.19-90.92 90.16 49.28 90.16-88.37-90.16-88.38-85.06 45.89-56.14-86.68-120.78 37.39 28.92 113.87 107.17 5.1-1.7 101.97 120.78 28.89 35.73-117.26-91.87-52.69 52.74-86.68-86.76-91.77-90.16 90.07 52.74 90.08-90.17 50.99 30.62 122.36 122.49-35.69 1.7-101.97h102.07l32.32-122.37-122.48-30.59-52.74 88.38-86.76-49.29-90.16 90.08 88.46 84.97 91.86-52.68 47.64 86.67 124.18-25.49-32.32-125.76-103.77 3.39 1.7-103.67-122.48-30.59-34.03 118.97 86.76 49.28-47.63 90.08 88.46 93.47zM1489.83 1212.47l-51.04-88.37 88.46-54.39-30.62-117.26-122.48 32.29v96.87l-107.17 5.1-28.92 125.76 120.78 32.29 50.18-90.92 90.16 49.29 90.16-88.38-90.16-88.38-85.05 45.89-56.14-86.67-120.79 37.39 28.92 113.86 107.18 5.1-1.7 101.97 120.78 28.9 35.72-117.27-91.86-52.69 52.74-86.67-86.76-91.78-90.16 90.08 52.73 90.07-90.16 50.99 30.62 122.36 122.48-35.69 1.71-101.97h102.06l32.33-122.36-122.49-30.59-52.73 88.37-86.76-49.29-90.16 90.08 88.46 84.98 91.86-52.69 47.63 86.68 124.19-25.5-32.33-125.76-103.77 3.4 1.71-103.67-122.49-30.59-34.02 118.96 86.76 49.29-47.63 90.07 88.46 93.48z" class="st18" fill="none" stroke="#fed800" stroke-miterlimit="10" clip-path="url(#SVGID_2_)"/>
		<path d="M1489.83 864.07l-51.04-88.38 88.46-54.38-30.62-117.27-122.48 32.29v96.88l-107.17 5.09-28.92 125.77 120.78 32.29 50.18-90.92 90.16 49.28 90.16-88.37-90.16-88.38-85.05 45.89-56.14-86.68-120.79 37.39 28.92 113.87 107.18 5.1-1.7 101.97 120.78 28.89 35.72-117.26-91.86-52.69 52.74-86.68-86.76-91.77-90.16 90.08 52.73 90.07-90.16 50.99 30.62 122.36 122.48-35.69 1.71-101.97h102.06l32.33-122.37-122.49-30.59-52.73 88.38-86.76-49.29-90.16 90.08 88.46 84.97 91.86-52.68 47.63 86.67 124.19-25.49-32.33-125.76-103.77 3.39 1.71-103.67-122.49-30.59-34.02 118.97 86.76 49.29-47.63 90.07 88.46 93.47z" class="st18" fill="none" stroke="#fed800" stroke-miterlimit="10" clip-path="url(#SVGID_2_)"/>
		<path d="M1489.83 519.07l-51.04-88.38 88.46-54.38-30.62-117.27-122.48 32.29v96.87l-107.17 5.1-28.92 125.77 120.78 32.29 50.18-90.93 90.16 49.29 90.16-88.38-90.16-88.37-85.05 45.89-56.14-86.68-120.79 37.39 28.92 113.87 107.18 5.1-1.7 101.97 120.78 28.89 35.72-117.27-91.86-52.68 52.74-86.68-86.76-91.77-90.16 90.07 52.73 90.08-90.16 50.98 30.62 122.37 122.48-35.69 1.71-101.97h102.06l32.33-122.37-122.49-30.59-52.73 88.37-86.76-49.28-90.16 90.07 88.46 84.98 91.86-52.69 47.63 86.68 124.19-25.49-32.33-125.77-103.77 3.4 1.71-103.67-122.49-30.59-34.02 118.97 86.76 49.28-47.63 90.08 88.46 93.47z" class="st18" fill="none" stroke="#fed800" stroke-miterlimit="10" clip-path="url(#SVGID_2_)"/>
		<path d="M1489.83 172.36l-51.04-88.37 88.46-54.39-30.62-117.27-122.48 32.3V41.5l-107.17 5.1-28.92 125.76 120.78 32.29 50.18-90.92 90.16 49.29 90.16-88.38-90.16-88.38-85.05 45.89-56.14-86.67-120.79 37.39 28.92 113.86 107.18 5.1-1.7 101.97 120.78 28.9 35.72-117.27-91.86-52.69 52.74-86.67-86.76-91.78-90.16 90.08 52.73 90.07-90.16 50.99 30.62 122.36 122.48-35.69 1.71-101.97h102.06l32.33-122.36-122.49-30.59-52.73 88.37-86.76-49.29-90.16 90.08 88.46 84.98 91.86-52.69 47.63 86.68 124.19-25.5-32.33-125.76-103.77 3.4 1.71-103.67-122.49-30.6-34.02 118.97 86.76 49.29-47.63 90.07 88.46 93.48z" class="st18" fill="none" stroke="#fed800" stroke-miterlimit="10" clip-path="url(#SVGID_2_)"/>
		<path d="M1190.42 4.11l-51.03-88.38 88.46-54.38-30.62-117.27-122.49 32.29v96.88l-107.17 5.09L938.65 4.11l120.78 32.29 50.19-90.92 90.16 49.28 90.16-88.37-90.16-88.38-85.06 45.89-56.14-86.68-120.78 37.39 28.92 113.87 107.17 5.1-1.7 101.97 120.78 28.89 35.73-117.26-91.86-52.69 52.73-86.68-86.76-91.77-90.16 90.07 52.74 90.08-90.16 50.99 30.62 122.36 122.48-35.69 1.7-101.97h102.07l32.32-122.37-122.48-30.59-52.74 88.38-86.75-49.29-90.17 90.08 88.46 84.97 91.87-52.68 47.63 86.67 124.18-25.49-32.32-125.76-103.77 3.39 1.7-103.67-122.48-30.59-34.02 118.97 86.75 49.28-47.63 90.08 88.46 93.47zM891.02 520.77l-51.03-88.38 88.46-54.38-30.63-117.27-122.48 32.29v96.87L668.17 395l-28.92 125.77 120.78 32.29 50.18-90.93 90.17 49.29 90.16-88.38-90.16-88.37-85.06 45.88-56.14-86.67-120.78 37.39 28.92 113.87 107.17 5.1-1.7 101.97 120.78 28.89 35.73-117.27-91.87-52.68 52.74-86.68-86.76-91.77-90.16 90.07 52.73 90.08-90.16 50.98 30.62 122.37 122.49-35.69 1.7-101.97H932.7l32.32-122.37-122.48-30.59-52.74 88.37-86.76-49.28-90.16 90.07 88.46 84.98 91.86-52.69 47.64 86.68 124.18-25.49-32.32-125.77-103.77 3.4 1.7-103.67-122.48-30.59-34.03 118.96 86.76 49.29-47.63 90.08 88.46 93.47z" class="st18" fill="none" stroke="#fed800" stroke-miterlimit="10" clip-path="url(#SVGID_2_)"/>
		<path d="M593.32 692.42l-51.04-88.38 88.46-54.38-30.62-117.27-122.48 32.29v96.87l-107.17 5.1-28.92 125.77 120.78 32.29 50.18-90.93 90.16 49.29 90.17-88.37-90.17-88.38-85.05 45.89-56.14-86.68-120.78 37.39 28.92 113.87 107.17 5.1-1.7 101.97 120.78 28.89 35.72-117.27-91.86-52.68 52.74-86.68-86.76-91.77-90.16 90.07 52.73 90.08-90.16 50.98 30.62 122.37 122.49-35.69 1.7-101.97H635l32.32-122.37-122.49-30.59-52.73 88.38-86.76-49.29-90.16 90.07 88.46 84.98 91.86-52.68 47.63 86.67 124.19-25.49L635 564.1l-103.77 3.4 1.7-103.67-122.49-30.59-34.02 118.97 86.76 49.28-47.63 90.08 88.46 93.47zM-3.79 350.81l-51.03-88.37 88.46-54.39L3.02 90.79l-122.49 32.29v96.87l-107.17 5.1-28.92 125.76 120.78 32.29 50.19-90.92 90.16 49.29 90.16-88.38-90.16-88.38-85.06 45.89-56.14-86.67-120.78 37.39 28.92 113.86 107.17 5.1-1.7 101.97 120.78 28.9 35.73-117.27-91.86-52.69 52.73-86.67-86.76-91.78-90.16 90.08 52.74 90.07-90.16 50.99 30.62 122.36 122.48-35.69 1.7-101.97H37.89l32.32-122.36-122.48-30.59-52.74 88.37-86.76-49.29-90.16 90.08 88.46 84.98 91.87-52.69 47.63 86.68 124.18-25.5L37.89 222.5l-103.77 3.4 1.7-103.67-122.48-30.59-34.03 118.96 86.76 49.29-47.63 90.07 88.46 93.48zM593.32 5.81l-51.04-88.38 88.46-54.38-30.62-117.27-122.48 32.29v96.88l-107.17 5.09L341.55 5.81 462.33 38.1l50.18-90.92 90.16 49.28 90.17-88.37-90.17-88.38-85.05 45.89-56.14-86.68-120.78 37.39 28.92 113.87 107.17 5.1-1.7 101.97 120.78 28.89 35.72-117.27-91.86-52.68 52.74-86.68-86.76-91.77-90.16 90.07 52.73 90.08-90.16 50.98 30.62 122.37 122.49-35.69 1.7-101.97H635l32.32-122.37-122.49-30.59L492.1-131l-86.76-49.29-90.16 90.08 88.46 84.97 91.86-52.68 47.63 86.67L667.32 3.26 635-122.51l-103.77 3.4 1.7-103.67-122.49-30.59-34.02 118.97 86.76 49.28-47.63 90.08 88.46 93.47z" class="st18" fill="none" stroke="#fed800" stroke-miterlimit="10" clip-path="url(#SVGID_2_)"/>
		<path d="M892.72 175.76l-51.03-88.37L930.15 33 899.53-84.27l-122.49 32.3V44.9L669.87 50l-28.92 125.76 120.78 32.29 50.19-90.92 90.16 49.28 90.16-88.37-90.16-88.38-85.06 45.89-56.14-86.68L640.1-13.74l28.92 113.87 107.17 5.1-1.7 101.97 120.78 28.89L931 118.83l-91.87-52.69 52.74-86.67-86.76-91.78-90.16 90.08 52.74 90.07-90.17 50.99 30.63 122.36 122.48-35.69 1.7-101.97H934.4l32.32-122.36-122.48-30.6-52.74 88.38-86.76-49.29-90.16 90.08 88.46 84.97 91.86-52.68 47.64 86.68 124.18-25.5L934.4 47.45l-103.77 3.4 1.7-103.67-122.48-30.6-34.03 118.97 86.76 49.29-47.63 90.07 88.46 93.48zM1183.74 112.89l38.15-11.06 24.52-23.58L1217 51.42l-33.97-10.39-8.68 38.18z" class="st18" fill="none" stroke="#fed800" stroke-miterlimit="10" clip-path="url(#SVGID_2_)"/>
		<path d="M886.04 282.84l38.15-11.06 24.52-23.57-29.41-26.84-33.97-10.39-8.68 38.19zM1024.37 112.89l-38.15-11.06-24.51-23.58 29.41-26.83 33.97-10.39 8.67 38.18zM1024.37 456.19l-38.15-11.05-24.51-23.58 29.41-26.83 33.97-10.4 8.67 38.19zM1183.74 456.19l38.15-11.05 24.52-23.58-29.41-26.83-33.97-10.4-8.68 38.19zM1323.78 282.84l-38.16-11.06-24.51-23.57 29.41-26.84 33.97-10.39 8.68 38.19zM293.91 179.16l-51.03-88.37 88.46-54.39-30.62-117.27-122.48 32.29V48.3L71.06 53.4 42.14 179.16l120.79 32.29 50.18-90.92 90.16 49.28 90.16-88.37-90.16-88.38-85.06 45.89-56.14-86.68L41.29-10.34l28.92 113.87 107.17 5.1-1.7 101.97 120.79 28.89 35.72-117.26-91.86-52.69 52.73-86.67-86.76-91.78-90.16 90.08 52.74 90.07-90.16 50.99 30.62 122.36 122.48-35.69 1.7-101.97h102.07l32.32-122.37-122.48-30.59-52.73 88.38-86.76-49.29-90.16 90.08 88.46 84.97 91.86-52.68 47.63 86.67 124.18-25.49-32.32-125.76-103.77 3.4 1.7-103.68-122.48-30.59L77.02 38.95l86.76 49.29-47.64 90.07 88.46 93.47z" class="st18" fill="none" stroke="#fed800" stroke-miterlimit="10" clip-path="url(#SVGID_2_)"/>
		<path d="M-13.87 114.59l38.15-11.06L48.8 79.95 19.38 53.12l-33.97-10.39-8.67 38.18z" class="st18" fill="none" stroke="#fed800" stroke-miterlimit="10" clip-path="url(#SVGID_2_)"/>
		<g class="st20">
			<path d="M293.91 865.77l-51.03-88.38 88.46-54.38-30.62-117.27-122.48 32.29v96.88L71.06 740 42.14 865.77l120.79 32.29 50.18-90.92 90.16 49.28 90.16-88.37-90.16-88.38-85.06 45.89-56.14-86.68-120.78 37.39 28.92 113.87 107.17 5.1-1.7 101.97 120.79 28.89 35.72-117.26-91.86-52.69 52.73-86.68-86.76-91.77-90.16 90.07 52.74 90.08-90.16 50.99 30.62 122.36 122.48-35.69 1.7-101.97h102.07l32.32-122.37-122.48-30.59-52.73 88.38-86.76-49.29-90.16 90.08 88.46 84.97 91.86-52.68 47.63 86.67 124.18-25.49-32.32-125.76-103.77 3.39 1.7-103.67-122.48-30.59-34.02 118.97 86.76 49.28-47.64 90.08 88.46 93.47z" class="st21" fill="none" stroke="#fed800" stroke-miterlimit="10"/>
			<path d="M-13.87 801.2l38.15-11.06 24.52-23.58-29.42-26.83-33.97-10.39-8.67 38.18zM124.46 974.55l-38.15-11.06-24.52-23.58 29.42-26.83 33.97-10.39 8.67 38.18zM283.83 974.55l38.15-11.06 24.52-23.58-29.41-26.83-33.97-10.39-8.68 38.18zM423.86 801.2l-38.15-11.06-24.51-23.58 29.41-26.83 33.97-10.39 8.68 38.18z" class="st21" fill="none" stroke="#fed800" stroke-miterlimit="10"/>
		</g>
		<path d="M423.86 114.59l-38.15-11.06-24.51-23.58 29.41-26.83 33.97-10.39 8.68 38.18z" class="st18" fill="none" stroke="#fed800" stroke-miterlimit="10" clip-path="url(#SVGID_2_)"/>
		<g class="st20" clip-path="url(#SVGID_2_)">
			<path d="M293.91 1552.38L242.88 1464l88.46-54.38-30.62-117.27-122.48 32.29v96.87l-107.18 5.1-28.92 125.77 120.79 32.29 50.18-90.93 90.16 49.29 90.16-88.37-90.16-88.38-85.06 45.89-56.14-86.68-120.78 37.39 28.92 113.87 107.17 5.1-1.7 101.97 120.79 28.89 35.72-117.27-91.86-52.68 52.73-86.68-86.76-91.77-90.16 90.07 52.74 90.08-90.16 50.98 30.62 122.37 122.48-35.69 1.7-101.97h102.07l32.32-122.37-122.48-30.59-52.73 88.38-86.76-49.29-90.16 90.08 88.46 84.97 91.86-52.68 47.63 86.67 124.18-25.49-32.32-125.77-103.77 3.4 1.7-103.67-122.48-30.59-34.02 118.97 86.76 49.28-47.64 90.08L204.6 1645z" class="st21" fill="none" stroke="#fed800" stroke-miterlimit="10"/>
			<path d="M-13.87 1487.81l38.15-11.06 24.52-23.58-29.42-26.83-33.97-10.39-8.67 38.18zM124.46 1661.16l-38.15-11.06-24.52-23.58 29.42-26.83 33.97-10.39 8.67 38.18zM283.83 1661.16l38.15-11.06 24.52-23.58-29.41-26.83-33.97-10.39-8.68 38.18zM423.86 1487.81l-38.15-11.06-24.51-23.58 29.41-26.83 33.97-10.39 8.68 38.18zM124.46 1317.85l-38.15-11.05-24.52-23.58 29.42-26.83 33.97-10.4 8.67 38.19zM283.83 1317.85l38.15-11.05 24.52-23.58-29.41-26.83-33.97-10.4-8.68 38.19z" class="st21" fill="none" stroke="#fed800" stroke-miterlimit="10"/>
		</g>
		<g class="st20" clip-path="url(#SVGID_2_)">
			<path d="M293.91 1895.68l-51.03-88.37 88.46-54.39-30.62-117.26-122.48 32.29v96.87l-107.18 5.1-28.92 125.76 120.79 32.29 50.18-90.92 90.16 49.29 90.16-88.38-90.16-88.38-85.06 45.89-56.14-86.67-120.78 37.39 28.92 113.86 107.17 5.1-1.7 101.97 120.79 28.9 35.72-117.27-91.86-52.69 52.73-86.67-86.76-91.78-90.16 90.08 52.74 90.07-90.16 50.99 30.62 122.36 122.48-35.69 1.7-101.97h102.07l32.32-122.36-122.48-30.59-52.73 88.37-86.76-49.29-90.16 90.08 88.46 84.98 91.86-52.69 47.63 86.68 124.18-25.5-32.32-125.76-103.77 3.4 1.7-103.67-122.48-30.6-34.02 118.97 86.76 49.29-47.64 90.07 88.46 93.48z" class="st21" fill="none" stroke="#fed800" stroke-miterlimit="10"/>
		</g>
		<g class="st20" clip-path="url(#SVGID_2_)">
			<path d="M591.62 1724.03l-51.04-88.37 88.46-54.39L598.42 1464l-122.48 32.29v96.88l-107.18 5.1-28.91 125.76 120.78 32.29 50.18-90.92 90.16 49.28 90.16-88.37-90.16-88.38-85.06 45.89-56.13-86.68-120.79 37.39 28.92 113.87 107.18 5.1-1.7 101.97 120.78 28.89 35.72-117.26-91.86-52.69 52.74-86.67-86.76-91.78-90.16 90.08 52.73 90.07-90.16 50.99 30.62 122.36 122.48-35.69 1.71-101.97h102.06l32.33-122.37-122.49-30.59-52.73 88.38-86.76-49.29-90.16 90.08 88.46 84.97 91.86-52.68 47.63 86.67 124.19-25.49-32.33-125.76-103.77 3.4 1.71-103.68-122.49-30.59-34.02 118.97 86.76 49.29-47.63 90.07 88.46 93.47z" class="st21" fill="none" stroke="#fed800" stroke-miterlimit="10"/>
		</g>
		<g class="st20" clip-path="url(#SVGID_2_)">
			<path d="M889.32 1550.68l-51.04-88.38 88.46-54.38-30.62-117.27-122.48 32.29v96.88l-107.17 5.09-28.92 125.77 120.78 32.29 50.18-90.92 90.16 49.28 90.17-88.37-90.17-88.38-85.05 45.89-56.14-86.68-120.78 37.39 28.92 113.87 107.17 5.1-1.7 101.97 120.78 28.89 35.72-117.27-91.86-52.68 52.74-86.68-86.76-91.77-90.16 90.07 52.73 90.08-90.16 50.98 30.62 122.37 122.49-35.69 1.7-101.97H931l32.32-122.37-122.48-30.59-52.74 88.38-86.76-49.29-90.16 90.08 88.46 84.97 91.86-52.68 47.63 86.67 124.19-25.49L931 1422.36l-103.77 3.4 1.7-103.67-122.49-30.59-34.02 118.97 86.76 49.28-47.63 90.08 88.46 93.47z" class="st21" fill="none" stroke="#fed800" stroke-miterlimit="10"/>
			<path d="M581.53 1486.11l38.16-11.06 24.51-23.58-29.41-26.83-33.97-10.39-8.68 38.18zM719.87 1659.46l-38.16-11.06-24.51-23.58 29.41-26.83 33.97-10.39 8.68 38.18zM879.24 1659.46l38.15-11.06 24.51-23.58-29.41-26.83-33.97-10.39-8.68 38.18zM1019.27 1486.11l-38.15-11.06-24.52-23.58 29.41-26.83 33.97-10.39 8.68 38.18zM719.87 1316.15l-38.16-11.05-24.51-23.58 29.41-26.83 33.97-10.39 8.68 38.18zM879.24 1316.15l38.15-11.05 24.51-23.58-29.41-26.83-33.97-10.39-8.68 38.18z" class="st21" fill="none" stroke="#fed800" stroke-miterlimit="10"/>
		</g>
		<g class="st20" clip-path="url(#SVGID_2_)">
			<path d="M1188.72 1720.63l-51.03-88.37 88.46-54.39-30.62-117.27-122.49 32.29v96.88l-107.17 5.1-28.92 125.76 120.78 32.29 50.19-90.92 90.16 49.28 90.16-88.37-90.16-88.38-85.06 45.89-56.14-86.68-120.78 37.39L965.02 1645l107.17 5.1-1.7 101.97 120.78 28.89L1227 1663.7l-91.86-52.69 52.73-86.67-86.76-91.78-90.16 90.08 52.74 90.07-90.16 50.99 30.62 122.36 122.48-35.69 1.7-101.97h102.07l32.32-122.36-122.48-30.6-52.74 88.38-86.76-49.29-90.16 90.08 88.46 84.97 91.87-52.68 47.63 86.68 124.18-25.5-32.32-125.76-103.77 3.4 1.7-103.67-122.48-30.6-34.03 118.97 86.76 49.29-47.63 90.07 88.46 93.48z" class="st21" fill="none" stroke="#fed800" stroke-miterlimit="10"/>
			<path d="M1019.27 1486.11l-38.15-11.06-24.52-23.58 29.41-26.83 33.97-10.39 8.68 38.18z" class="st21" fill="none" stroke="#fed800" stroke-miterlimit="10"/>
		</g>
		<g class="st20" clip-path="url(#SVGID_2_)">
			<path d="M1486.42 1548.98l-51.03-88.38 88.46-54.38-30.62-117.27-122.48 32.29v96.88l-107.18 5.09-28.92 125.77 120.79 32.29 50.18-90.92 90.16 49.28 90.16-88.37-90.16-88.38-85.06 45.89-56.14-86.68-120.78 37.39 28.92 113.87 107.18 5.1-1.71 101.97 120.79 28.89 35.72-117.26-91.86-52.69 52.73-86.68-86.76-91.77-90.16 90.07 52.74 90.08-90.16 50.99 30.62 122.36 122.48-35.69 1.7-101.97h102.07l32.32-122.37-122.48-30.59-52.73 88.38-86.76-49.29-90.16 90.08 88.46 84.97 91.86-52.68 47.63 86.67 124.18-25.49-32.32-125.76-103.77 3.39 1.7-103.67-122.48-30.59-34.02 118.97 86.76 49.28-47.64 90.08 88.46 93.47z" class="st21" fill="none" stroke="#fed800" stroke-miterlimit="10"/>
			<path d="M1178.64 1484.41l38.15-11.06 24.52-23.58-29.42-26.83-33.97-10.39-8.67 38.18zM1316.97 1657.76l-38.15-11.06-24.52-23.58 29.42-26.83 33.97-10.39 8.67 38.18zM1476.34 1657.76l38.15-11.06 24.52-23.58-29.41-26.83-33.97-10.39-8.68 38.18zM1616.37 1484.41l-38.15-11.06-24.51-23.58 29.41-26.83 33.97-10.39 8.68 38.18zM1316.97 1314.45l-38.15-11.05-24.52-23.58 29.42-26.83 33.97-10.39 8.67 38.18zM1476.34 1314.45l38.15-11.05 24.52-23.58-29.41-26.83-33.97-10.39-8.68 38.18z" class="st21" fill="none" stroke="#fed800" stroke-miterlimit="10"/>
		</g>
		<g class="st20" clip-path="url(#SVGID_2_)">
			<path d="M1784.13 1375.63l-51.04-88.38 88.46-54.38-30.62-117.27-122.48 32.29v96.87l-107.17 5.1-28.92 125.77 120.78 32.29 50.18-90.93 90.16 49.29 90.16-88.38-90.16-88.37-85.05 45.89-56.14-86.68-120.79 37.39 28.92 113.87 107.18 5.1-1.7 101.97 120.78 28.89 35.72-117.27-91.86-52.68 52.74-86.68-86.76-91.77-90.16 90.07 52.73 90.08-90.16 50.98 30.62 122.37 122.48-35.69 1.71-101.97h102.06l32.33-122.37-122.49-30.59-52.73 88.38-86.76-49.29-90.16 90.07 88.46 84.98 91.86-52.68 47.63 86.67 124.19-25.49-32.33-125.77-103.77 3.4 1.71-103.67-122.49-30.59-34.02 118.97 86.76 49.28-47.63 90.08 88.46 93.47z" class="st21" fill="none" stroke="#fed800" stroke-miterlimit="10"/>
			<path d="M1614.67 1141.1l-38.15-11.05-24.51-23.58 29.41-26.83 33.97-10.4 8.68 38.19z" class="st21" fill="none" stroke="#fed800" stroke-miterlimit="10"/>
		</g>
		<g class="st20" clip-path="url(#SVGID_2_)">
			<path d="M1784.13 1032.32l-51.04-88.37 88.46-54.39-30.62-117.26-122.48 32.29v96.87l-107.17 5.1-28.92 125.76 120.78 32.29 50.18-90.92 90.16 49.29 90.16-88.38-90.16-88.38-85.05 45.89-56.14-86.67-120.79 37.39 28.92 113.86 107.18 5.1-1.7 101.97 120.78 28.9 35.72-117.27-91.86-52.69 52.74-86.67-86.76-91.78-90.16 90.08 52.73 90.07-90.16 50.99 30.62 122.36 122.48-35.69 1.71-101.97h102.06l32.33-122.36-122.49-30.59-52.73 88.37-86.76-49.29-90.16 90.08 88.46 84.98 91.86-52.69 47.63 86.68 124.19-25.5-32.33-125.76-103.77 3.4 1.71-103.67-122.49-30.59-34.02 118.96 86.76 49.29-47.63 90.07 88.46 93.48z" class="st21" fill="none" stroke="#fed800" stroke-miterlimit="10"/>
			<path d="M1476.34 967.75l38.15-11.06 24.52-23.57-29.41-26.84-33.97-10.39-8.68 38.19zM1614.67 797.8l-38.15-11.06-24.51-23.58 29.41-26.83 33.97-10.39 8.68 38.18z" class="st21" fill="none" stroke="#fed800" stroke-miterlimit="10"/>
		</g>
		<g class="st20" clip-path="url(#SVGID_2_)">
			<path d="M1787.53 692.42l-51.04-88.38 88.46-54.38-30.62-117.27-122.48 32.29v96.87l-107.17 5.1-28.92 125.77 120.78 32.29 50.18-90.93 90.17 49.29 90.16-88.37-90.16-88.38-85.06 45.89-56.14-86.68-120.78 37.39 28.92 113.87 107.17 5.1-1.7 101.97 120.78 28.89 35.72-117.27-91.86-52.68 52.74-86.68-86.76-91.77-90.16 90.07 52.73 90.08-90.16 50.98 30.62 122.37 122.49-35.69 1.7-101.97h102.07l32.32-122.37-122.48-30.59-52.74 88.38-86.76-49.29-90.16 90.07 88.46 84.98 91.86-52.68 47.63 86.67 124.19-25.49-32.32-125.77-103.77 3.4 1.7-103.67-122.49-30.59-34.02 118.97 86.76 49.28-47.63 90.08 88.46 93.47z" class="st21" fill="none" stroke="#fed800" stroke-miterlimit="10"/>
			<path d="M1479.74 627.84l38.16-11.05 24.51-23.58-29.41-26.83-33.97-10.39-8.68 38.18zM1618.08 457.89l-38.16-11.05-24.51-23.58 29.41-26.83 33.97-10.4 8.68 38.19z" class="st21" fill="none" stroke="#fed800" stroke-miterlimit="10"/>
		</g>
		<g class="st20" clip-path="url(#SVGID_2_)">
			<path d="M1787.53 349.11l-51.04-88.37 88.46-54.39-30.62-117.26-122.48 32.29v96.87l-107.17 5.1-28.92 125.76 120.78 32.29 50.18-90.92 90.17 49.29 90.16-88.38-90.16-88.37-85.06 45.88-56.14-86.67-120.78 37.39 28.92 113.86 107.17 5.1-1.7 101.97 120.78 28.9 35.72-117.27-91.86-52.69 52.74-86.67-86.76-91.78-90.16 90.08 52.73 90.07-90.16 50.99 30.62 122.37 122.49-35.69 1.7-101.98h102.07l32.32-122.36-122.48-30.59-52.74 88.37-86.76-49.28-90.16 90.07 88.46 84.98 91.86-52.69 47.63 86.68 124.19-25.5-32.32-125.76-103.77 3.4 1.7-103.67-122.49-30.59-34.02 118.96 86.76 49.29-47.63 90.07 88.46 93.48z" class="st21" fill="none" stroke="#fed800" stroke-miterlimit="10"/>
			<path d="M1479.74 284.54l38.16-11.06 24.51-23.57-29.41-26.84-33.97-10.39-8.68 38.19zM1618.08 114.59l-38.16-11.06-24.51-23.58 29.41-26.83 33.97-10.39 8.68 38.18z" class="st21" fill="none" stroke="#fed800" stroke-miterlimit="10"/>
		</g>
		<g class="st20" clip-path="url(#SVGID_2_)">
			<path d="M293.91 1209.07l-51.03-88.37 88.46-54.39-30.62-117.26-122.48 32.29v96.87l-107.18 5.1-28.92 125.76 120.79 32.29 50.18-90.92 90.16 49.29 90.16-88.38-90.16-88.37-85.06 45.88-56.14-86.67-120.78 37.39 28.92 113.86 107.17 5.1-1.7 101.98 120.79 28.89 35.72-117.27-91.86-52.69 52.73-86.67L206.3 921l-90.16 90.08 52.74 90.07-90.16 50.99 30.62 122.37 122.48-35.69 1.7-101.98h102.07l32.32-122.36-122.48-30.59-52.73 88.37-86.76-49.28-90.16 90.07 88.46 84.98 91.86-52.69 47.63 86.68 124.18-25.5-32.32-125.76-103.77 3.4 1.7-103.67-122.48-30.59-34.02 118.96 86.76 49.29-47.64 90.07 88.46 93.48z" class="st21" fill="none" stroke="#fed800" stroke-miterlimit="10"/>
			<path d="M-13.87 1144.5l38.15-11.06 24.52-23.57-29.42-26.84-33.97-10.39-8.67 38.19zM423.86 1144.5l-38.15-11.06-24.51-23.57 29.41-26.84 33.97-10.39 8.68 38.19zM283.83 974.55l38.15-11.06 24.52-23.58-29.41-26.83-33.97-10.39-8.68 38.18z" class="st21" fill="none" stroke="#fed800" stroke-miterlimit="10"/>
		</g>
		<path d="M583.96 355.91L422.35 546.26l-193.93 56.08 39.13 244.73-120.79 202.25 217.75 151.26 40.83 193.74 251.77-32.29 161.61 91.78 144.6-8.5 148-93.48 231.36 42.49 52.73-205.64 199.04-180.15-98.67-164.85 18.71-207.35-227.95-98.57-112.28-163.15-323.22 76.47z" class="st17" fill="#11ad54"/>
		<g>
			<path d="M1284.44 1025.29s20.9-47.56 53.41-76.55c32.51-29 65.02-40.6 89.4-41.76 24.38-1.16 67.34 1.16 83.59 30.16s-7.55 69.02-10.45 73.08c-6.49 9.08-46.44 63.8-84.76 75.4s-70.82 18.56-105.65 10.44c-34.83-8.12-48.76-31.32-53.41-39.44s-11.07-32.5-10.45-41.76c.58-8.7 1.16-11.6 1.74-17.98l2.9-26.1s-13.93 11.6-23.22 33.64-12.77 34.8-15.09 40.6c-2.32 5.8-15.09 34.8-18.58 41.76-3.48 6.96-12.77 25.52-16.25 30.16-3.48 4.64-16.25 27.84-19.74 32.48-3.48 4.64-22.06 33.64-51.09 35.96s-76.63 4.64-103.33-8.12c0 0 35.99-5.8 49.92-10.44s34.83-10.44 51.09-20.88 35.99-23.2 47.6-38.28c11.61-15.08 37.15-47.56 42.96-68.44 5.81-20.88 32.51-77.71 37.15-84.67 4.64-6.96 19.74-26.68 38.31-30.16 0 0-12.77 46.4-12.77 60.32s-1.16 34.8 25.54 51.04c26.7 16.24 83.59 19.72 103.33 16.24 19.74-3.48 82.43-11.6 91.72-39.44 9.29-27.84 2.32-42.92-3.48-48.72s-26.7-20.88-48.76-20.88-52.16 3.91-75.47 20.88c-34.24 24.92-65 61.46-66.16 61.46z" class="st22" fill="#fed800"/>
			<path d="M1292.56 756.18c-17.42-5.8-78.95 1.16-78.95 1.16 0-17.4-12.77-86.99-17.42-110.19s-6.97-48.72-9.29-88.15c-2.32-39.44 27.28-100.33 27.28-100.33s-44.12 45.24-51.09 88.15c-6.97 42.92-5.81 85.83 4.64 138.03s15.73 66.06 13.93 85.83c-.58 6.38-26.12 19.14-49.34 37.7-23.22 18.56-24.38 11.6-24.38 11.6 19.74-73.08-8.13-184.43-15.09-233.14-6.97-48.72 15.09-120.63 15.09-120.63-24.38 27.84-41.8 77.71-45.28 114.83-3.48 37.12 16.25 107.87 20.9 138.03s4.64 80.03-3.48 120.63c-7.35 36.73-47.03 78.23-54.51 85.78-59.32 5.5-105.71 7.02-105.71 7.02 149.77 68.44 280.97-1.16 280.97-1.16-3.43 23.98-13.61 62.57-13.92 63.77.64-1.14 21.05-37.44 31.34-59.13 10.45-22.04 46.44-39.44 63.86-52.2 17.42-12.76 39.48-49.88 46.44-77.71s-18.57-44.09-35.99-49.89zm-246.19 167.24c33.11-76.54 139.52-119.6 145.19-116.2 5.81 3.48 10.45 89.31 10.45 89.31-45 12.99-103.55 21.46-155.64 26.89zm242.71-70.96c-10.45 26.68-61.53 31.32-61.53 31.32 4.64-26.68 0-82.35 0-82.35 16.25-1.16 20.9-2.32 37.15 0 16.25 2.31 34.83 24.35 24.38 51.03z" class="st22" fill="#fed800"/>
			<path d="M1173.56 964.39s-47.6 95.11-99.85 136.87c-52.25 41.76-106.82 55.68-124.23 54.52s-35.99-11.6-48.76-31.32c-12.77-19.72-9.29-9.28-15.09-1.16s-22.06 30.16-31.35 27.84c-9.29-2.32-23.22-22.04-24.38-38.28s-5.81-6.96-11.61 4.64-13.93 31.32-29.03 32.48c-15.09 1.16-16.25-6.96-24.38-18.56s-6.97-4.64-15.09 5.8-12.77 13.92-22.06 13.92-22.06-6.96-30.19-34.8c-8.13-27.84-5.81-22.04-17.42-5.8-11.61 16.24-22.06 37.12-41.8 38.28-19.74 1.16-56.31-5.22-71.4-72.5s18.58-151.95 18.58-151.95-12.77 110.19 0 139.19 35.99 46.4 65.02 37.12c29.03-9.28 59.21-64.96 59.21-64.96s-12.77 39.44 0 55.68c12.77 16.24 45.28 24.36 63.86-24.36 0 0 1.16 30.16 16.25 32.48 15.09 2.32 41.8-24.36 49.92-54.52 0 0-2.32 52.2 20.9 54.52s46.44-45.24 48.76-52.2c0 0-9.29 53.36 30.19 54.52s84.76-10.44 98.69-19.72c13.93-9.28 0-8.12-6.97-8.12s-13.93-9.28-2.32-30.16c11.61-20.88 15.09-30.16 37.15-31.32s81.27-12.75 107.4-48.13z" class="st22" fill="#fed800"/>
			<path d="M1026.11 711.53c-30.19-45.24-40.64-45.24-61.53-47.56-20.9-2.32-34.83 20.88-45.28 42.92s-17.42 70.76 0 83.51c17.42 12.76 50.89 8.37 62.7 9.28 7.55.58 22.64 7.54 24.96 28.42 2.32 20.88-25.54 32.48-62.7 44.08s-149.77 12.76-196.22 11.6c-46.44-1.16-84.76-18.56-109.14-56.84-24.38-38.28 1.16-92.79-3.48-133.39-4.64-40.6-23.22-56.84-89.4-60.32-66.18-3.48-98.69 88.15-98.69 88.15-99.85 40.6-107.98 146.15-106.82 179.79 1.16 33.64 41.8 193.71 65.02 269.1 23.22 75.4 3.48 179.79 3.48 179.79 9.29-11.6 29.03-55.68 38.31-105.55 9.29-49.88-44.12-216.91-44.12-216.91-51.09-148.47-33.67-211.11-33.67-211.11 59.21-51.04 71.98-45.24 71.98-45.24 8.13 93.95 70.82 88.15 94.04 80.03 23.22-8.12 24.38-58 20.9-97.43s-77.79-37.12-77.79-37.12c18.58-42.92 89.4-41.76 121.91-25.52 32.51 16.24 23.22 45.24 22.06 64.96-1.16 19.72-13.93 74.24 12.77 119.47 26.7 45.24 73.15 56.84 183.44 60.32 110.3 3.48 158.48-40.02 184.02-67.86 25.57-27.82 53.43-111.34 23.25-156.57zm-49.35 40.02c-30.19 0-39.48 3.48-51.09-9.28s5.81-32.48 27.86-33.64c22.06-1.16 53.41 42.92 53.41 42.92h-30.18zM549.5 794.46s-5.81 22.04-32.51 17.4c-26.7-4.64-60.37-13.92-62.7-41.76.01 0 67.35-18.55 95.21 24.36z" class="st22" fill="#fed800"/>
			<path d="M447.91 915.67l20.9-39.44s87.08 18.56 22.06 84.67c0 .01 1.74-31.89-42.96-45.23zM527.75 1032.83l-20.9 39.44s-87.08-18.56-22.06-84.67c0-.01-1.74 31.89 42.96 45.23zM711.46 726.61l30.19-34.8s48.76 32.48 32.51 58c-16.25 25.52-18.58 25.52-18.58 25.52s-15.67-23.78-44.12-48.72zM798.54 726.61l30.19-34.8s48.76 32.48 32.51 58c-16.25 25.52-18.58 25.52-18.58 25.52s-15.67-23.78-44.12-48.72z" class="st22" fill="#fed800"/>
		</g>
	</g>
</svg>