<svg xmlns="http://www.w3.org/2000/svg" id="Layer_1" x="0" y="0" version="1.1" viewBox="0 0 1745 3551" xml:space="preserve">
	<style>.st0{}.st2,.st3{fill="none";stroke="#fed800";stroke-width="3";stroke-miterlimit="10"}.st3{stroke="#f9f9f9"}.st4{fill="#fed800"}</style>
	<path d="M5 5h1740v3559H5z" class="st0" fill="#11ad54"/>
	<g opacity=".14">
		<path d="M1773.73 144.56l100.55-58.01 61.87 100.55 133.41-34.81-36.74-139.21h-110.21l-5.8-121.81-143.08-32.87L1737-4.32l103.44 57.04-56.07 102.47 100.54 102.48 100.54-102.48-52.2-96.67 98.61-63.81-42.54-137.28-129.54 32.87-5.81 121.81-116.01-1.93-32.87 137.28 133.42 40.6 59.94-104.41 98.6 59.94 104.41-98.61-102.47-102.47-102.48 59.94-58-102.48-139.22 34.8 40.61 139.22 116.01 1.93v116.01l139.21 36.74 34.8-139.22-100.54-59.94 56.07-98.6-102.47-102.48-96.68 100.54 59.94 104.41-98.61 54.14 29 141.15 143.08-36.74-3.86-117.94 117.94 1.93 34.8-139.21-135.34-38.67-56.07 98.6-102.48-54.13-106.34 100.54z" class="st2" fill="none" stroke="#fed800" stroke-width="3" stroke-miterlimit="10" fill="none" stroke="#fed800" stroke-width="3" stroke-miterlimit="10"/>
		<path d="M1649.98 133.1l12.58 43.36 26.82 27.86 30.53-33.42 11.82-38.61-43.44-9.87z" class="st2" fill="none" stroke="#fed800" stroke-width="3" stroke-miterlimit="10" fill="none" stroke="#fed800" stroke-width="3" stroke-miterlimit="10"/>
		<path d="M1576.72 485.39l100.86-58.19 62.07 100.86 133.84-34.92-36.86-139.65h-110.56l-5.82-122.2-143.53-32.97-36.85 137.71 103.77 57.22-56.25 102.8 100.86 102.8 100.86-102.8-52.37-96.98 98.92-64.01-42.67-137.71-129.96 32.97-5.81 122.2-116.38-1.94-32.98 137.71 133.84 40.74 60.13-104.74 98.92 60.13 104.74-98.93-102.8-102.8-102.8 60.13-58.19-102.8-139.66 34.91 40.74 139.66 116.38 1.94v116.38l139.65 36.85 34.91-139.65-100.86-60.13 56.25-98.93-102.8-102.8-96.98 100.86 60.13 104.75-98.92 54.31 29.09 141.59 143.53-36.85-3.88-118.32 118.32 1.94 34.92-139.66-135.78-38.79-56.25 98.92-102.8-54.31-106.68 100.86z" class="st2" fill="none" stroke="#fed800" stroke-width="3" stroke-miterlimit="10" fill="none" stroke="#fed800" stroke-width="3" stroke-miterlimit="10"/>
		<path d="M1452.57 292.18l12.62-43.5 26.91-27.96 30.62 33.54 11.86 38.73-43.58 9.89zM1452.57 473.89l12.62 43.5 26.91 27.95 30.62-33.53 11.86-38.74-43.58-9.89zM1650.42 633.55l12.61-43.5 26.91-27.95 30.63 33.54 11.86 38.73-43.58 9.89z" class="st2" fill="none" stroke="#fed800" stroke-width="3" stroke-miterlimit="10" fill="none" stroke="#fed800" stroke-width="3" stroke-miterlimit="10"/>
		<path d="M1380.81 825.07l100.86-58.19 62.07 100.86 133.84-34.91-36.85-139.66h-110.56l-5.82-122.2L1380.81 538l-36.85 137.72 103.77 57.22-56.25 102.8 100.86 102.8 100.86-102.8-52.37-96.99 98.93-64-42.68-137.72-129.95 32.98-5.82 122.19-116.38-1.94-32.97 137.72 133.83 40.73 60.13-104.74 98.92 60.13 104.74-98.92-102.8-102.8-102.8 60.12-58.19-102.8-139.65 34.92 40.73 139.65 116.38 1.94v116.38l139.65 36.85 34.92-139.65-100.87-60.13 56.25-98.92-102.8-102.8-96.98 100.86 60.13 104.74-98.92 54.31 29.09 141.59 143.54-36.85-3.88-118.32 118.32 1.94 34.91-139.65-135.78-38.8-56.25 98.93-102.8-54.31-106.68 100.86z" class="st2" fill="none" stroke="#fed800" stroke-width="3" stroke-miterlimit="10" fill="none" stroke="#fed800" stroke-width="3" stroke-miterlimit="10"/>
		<path d="M1256.66 813.57l12.62 43.5 26.91 27.95 30.63-33.53 11.86-38.73-43.58-9.9zM1454.51 973.24l12.62-43.5 26.91-27.95 30.62 33.53 11.86 38.73-43.58 9.9zM1648.47 813.57l12.62 43.5 26.91 27.95 30.62-33.53 11.86-38.73-43.57-9.9z" class="st2" fill="none" stroke="#fed800" stroke-width="3" stroke-miterlimit="10" fill="none" stroke="#fed800" stroke-width="3" stroke-miterlimit="10"/>
		<path d="M1184.9 1164.75l100.87-58.19 62.07 100.86 133.83-34.91-36.85-139.65h-110.56l-5.82-122.2-143.54-32.98-36.85 137.72 103.77 57.22-56.25 102.8 100.86 102.8 100.87-102.8-52.37-96.98 98.92-64.01-42.67-137.72-129.96 32.98-5.82 122.2-116.38-1.94-32.97 137.71 133.83 40.73 60.13-104.74 98.92 60.13 104.75-98.92-102.81-102.8-102.8 60.13-58.19-102.8-139.65 34.91 40.73 139.65 116.38 1.94v116.38l139.65 36.86 34.92-139.66-100.86-60.13 56.25-98.92-102.81-102.8-96.98 100.86 60.13 104.74-98.92 54.31 29.09 141.6 143.54-36.86-3.88-118.32 118.32 1.94 34.91-139.65-135.77-38.79-56.25 98.92-102.81-54.31-106.68 100.86z" class="st2" fill="none" stroke="#fed800" stroke-width="3" stroke-miterlimit="10" fill="none" stroke="#fed800" stroke-width="3" stroke-miterlimit="10"/>
		<path d="M1060.76 971.54l12.62-43.5 26.9-27.95 30.63 33.53 11.86 38.74-43.58 9.89zM1060.76 1153.26l12.62 43.5 26.9 27.95 30.63-33.54 11.86-38.73-43.58-9.89zM1258.6 1312.92l12.62-43.5 26.91-27.95 30.62 33.53 11.86 38.73-43.58 9.9zM1452.57 1153.26l12.61 43.5 26.91 27.95 30.63-33.54 11.86-38.73-43.58-9.89z" class="st2" fill="none" stroke="#fed800" stroke-width="3" stroke-miterlimit="10" fill="none" stroke="#fed800" stroke-width="3" stroke-miterlimit="10"/>
		<path d="M989 1504.44l100.86-58.19 62.07 100.86 133.83-34.92-36.85-139.65h-110.56l-5.82-122.2L989 1217.37l-36.86 137.71 103.77 57.22-56.24 102.8 100.86 102.8 100.86-102.8-52.37-96.98 98.92-64.01-42.67-137.71-129.96 32.97-5.82 122.2-116.38-1.94-32.97 137.71 133.84 40.74 60.12-104.74 98.93 60.13 104.74-98.93-102.8-102.8-102.81 60.13-58.18-102.8-139.66 34.91 40.73 139.66 116.38 1.94v116.38l139.66 36.85 34.91-139.65-100.86-60.13 56.25-98.93-102.8-102.8-96.99 100.86 60.13 104.75-98.92 54.31 29.1 141.59 143.53-36.85-3.88-118.32 118.32 1.94 34.91-139.66-135.77-38.79-56.25 98.92-102.8-54.31-106.68 100.86z" class="st2" fill="none" stroke="#fed800" stroke-width="3" stroke-miterlimit="10"/>
		<path d="M864.85 1311.23l12.62-43.51 26.91-27.95 30.62 33.54 11.86 38.73-43.58 9.89zM864.85 1492.94l12.62 43.5 26.91 27.95 30.62-33.53 11.86-38.74-43.58-9.89zM1062.69 1652.6l12.62-43.5 26.91-27.95 30.62 33.54 11.86 38.73-43.58 9.89zM1256.66 1492.94l12.62 43.5 26.9 27.95 30.63-33.53 11.86-38.74-43.58-9.89z" class="st2" fill="none" stroke="#fed800" stroke-width="3" stroke-miterlimit="10"/>
		<path d="M793.09 1844.12l100.86-58.19 62.07 100.86 133.84-34.91-36.86-139.66H942.44l-5.82-122.2-143.53-32.97-36.85 137.72 103.77 57.22-56.25 102.8 100.86 102.8 100.86-102.8-52.37-96.99 98.92-64-42.67-137.72-129.96 32.97-5.82 122.2-116.37-1.94-32.98 137.72 133.84 40.73 60.13-104.74 98.92 60.13 104.74-98.92-102.8-102.8-102.8 60.12-58.19-102.8-139.66 34.92 40.74 139.65 116.37 1.94v116.38l139.66 36.85 34.91-139.65-100.86-60.13 56.25-98.92-102.8-102.8-96.98 100.86 60.13 104.74-98.93 54.31 29.1 141.59 143.53-36.85-3.88-118.32 118.32 1.94 34.92-139.65-135.78-38.8-56.25 98.93-102.8-54.31-106.68 100.86z" class="st3" fill="none" stroke="#fed800" stroke-width="3" stroke-miterlimit="10" stroke="#f9f9f9"/>
		<path d="M668.94 1650.91l12.62-43.5 26.91-27.95 30.62 33.53 11.86 38.73-43.58 9.9zM668.94 1832.62l12.62 43.5 26.91 27.95 30.62-33.53 11.86-38.73-43.58-9.9zM866.79 1992.29l12.61-43.5 26.91-27.96 30.63 33.54 11.86 38.73-43.58 9.9zM1060.75 1832.62l12.62 43.5 26.91 27.95 30.62-33.53 11.86-38.73-43.58-9.9z" class="st3" fill="none" stroke="#fed800" stroke-width="3" stroke-miterlimit="10" stroke="#f9f9f9"/>
		<path d="M597.18 2183.8l100.86-58.19 62.07 100.86 133.84-34.91-36.86-139.65H746.53l-5.81-122.2-143.54-32.98-36.85 137.72 103.77 57.22-56.25 102.8 100.86 102.8 100.86-102.8-52.37-96.98 98.92-64.01-42.67-137.72-129.95 32.98-5.82 122.2L561.3 2049l-32.98 137.71 133.84 40.73 60.13-104.74 98.92 60.13 104.74-98.92-102.8-102.8-102.8 60.13-58.19-102.8-139.65 34.91L563.24 2113l116.38 1.94v116.38l139.65 36.86 34.91-139.66-100.86-60.13 56.25-98.92-102.8-102.8-96.98 100.86 60.13 104.74-98.92 54.31 29.09 141.6 143.53-36.86-3.87-118.32 118.31 1.94 34.92-139.65-135.78-38.79-56.25 98.92-102.8-54.31-106.68 100.86z" class="st2" fill="none" stroke="#fed800" stroke-width="3" stroke-miterlimit="10"/>
		<path d="M473.03 1990.59l12.62-43.5 26.91-27.95 30.62 33.53 11.86 38.74-43.57 9.89zM473.03 2172.3l12.62 43.51 26.91 27.95 30.62-33.54 11.86-38.73-43.57-9.89zM670.88 2331.97l12.62-43.5 26.9-27.95 30.63 33.53 11.86 38.73-43.58 9.9zM864.84 1990.59l12.62-43.5 26.91-27.95 30.62 33.53 11.86 38.74-43.58 9.89zM864.84 2172.3l12.62 43.51 26.91 27.95 30.62-33.54 11.86-38.73-43.58-9.89z" class="st2" fill="none" stroke="#fed800" stroke-width="3" stroke-miterlimit="10"/>
		<path d="M401.27 2523.48l100.87-58.18 62.06 100.86 133.84-34.92-36.85-139.65H550.63l-5.82-122.2-143.54-32.97-36.85 137.71 103.77 57.22-56.25 102.8 100.86 102.8 100.87-102.8-52.38-96.98 98.93-64.01-42.68-137.71-129.95 32.97-5.82 122.2-116.38-1.94-32.97 137.71 133.83 40.74 60.13-104.74 98.92 60.13 104.74-98.93-102.8-102.8-102.8 60.13-58.19-102.8-139.65 34.91 40.73 139.66 116.38 1.94v116.38l139.65 36.85 34.92-139.66-100.86-60.12 56.25-98.93-102.81-102.8-96.98 100.86 60.13 104.75-98.92 54.31 29.09 141.59 143.54-36.85-3.88-118.32 118.32 1.94 34.91-139.66-135.78-38.79-56.25 98.92-102.8-54.31-106.68 100.86z" class="st2" fill="none" stroke="#fed800" stroke-width="3" stroke-miterlimit="10"/>
		<path d="M277.13 2330.28l12.61-43.51 26.91-27.95 30.63 33.54 11.86 38.73-43.58 9.89zM277.13 2511.99l12.61 43.5 26.91 27.95 30.63-33.53 11.86-38.74-43.58-9.89zM474.97 2671.65l12.62-43.5 26.91-27.95 30.62 33.54 11.86 38.73-43.58 9.89zM668.93 2511.99l12.62 43.5 26.91 27.95 30.63-33.53 11.86-38.74-43.58-9.89z" class="st2" fill="none" stroke="#fed800" stroke-width="3" stroke-miterlimit="10"/>
		<path d="M205.37 2863.17l100.86-58.19 62.07 100.86 133.83-34.91-36.85-139.66H354.72l-5.82-122.2-143.53-32.97-36.86 137.72 103.77 57.21-56.25 102.81 100.87 102.8 100.86-102.8-52.37-96.99 98.92-64-42.67-137.72-129.96 32.97-5.82 122.2-116.38-1.94-32.97 137.72 133.83 40.73 60.13-104.74 98.93 60.13 104.74-98.92-102.81-102.8-102.8 60.12-58.19-102.8-139.65 34.92 40.73 139.65 116.38 1.94v116.38l139.66 36.85 34.91-139.65-100.86-60.13 56.25-98.92-102.8-102.8-96.99 100.86 60.13 104.74-98.92 54.31 29.1 141.59 143.53-36.85-3.88-118.32 118.32 1.94 34.91-139.65-135.77-38.8-56.25 98.93-102.8-54.31-106.68 100.86z" class="st2" fill="none" stroke="#fed800" stroke-width="3" stroke-miterlimit="10"/>
		<path d="M81.22 2669.96l12.62-43.5 26.9-27.95 30.63 33.53 11.86 38.73-43.58 9.9zM81.22 2851.67l12.62 43.5 26.9 27.95 30.63-33.53 11.86-38.73-43.58-9.9zM279.06 3011.34l12.62-43.5 26.91-27.96 30.62 33.54 11.86 38.73-43.58 9.9zM473.03 2851.67l12.61 43.5 26.91 27.95 30.63-33.53 11.86-38.73-43.58-9.9z" class="st2" fill="none" stroke="#fed800" stroke-width="3" stroke-miterlimit="10"/>
		<path d="M9.46 3202.85l100.86-58.19 62.07 100.86 133.83-34.91-36.85-139.65H158.81l-5.82-122.2-143.53-32.98-36.86 137.72 103.78 57.22-56.25 102.8 100.86 102.8 100.86-102.8-52.37-96.98 98.92-64.01-42.67-137.72-129.96 32.98-5.82 122.2-116.38-1.94-32.97 137.71 133.84 40.73 60.13-104.74 98.92 60.13 104.74-98.92-102.8-102.8-102.8 60.13-58.19-102.8-139.66 34.91 40.73 139.65 116.38 1.94v116.38l139.66 36.86 34.91-139.66-100.86-60.13 56.25-98.92-102.8-102.8-96.98 100.86 60.12 104.74-98.92 54.31 29.1 141.6 143.53-36.86-3.88-118.32 118.32 1.94 34.91-139.65-135.77-38.79-56.25 98.92-102.8-54.31-106.68 100.86z" class="st2" fill="none" stroke="#fed800" stroke-width="3" stroke-miterlimit="10"/>
		<path d="M83.15 3351.02l12.62-43.5 26.91-27.95 30.63 33.53 11.85 38.73-43.57 9.9zM277.12 3191.35l12.62 43.51 26.91 27.95 30.62-33.54 11.86-38.73-43.58-9.89z" class="st2" fill="none" stroke="#fed800" stroke-width="3" stroke-miterlimit="10"/>
		<path d="M-186.45 3542.53l100.86-58.18 62.07 100.86 133.84-34.92-36.86-139.65H-37.1l-5.82-122.2-143.53-32.97-36.85 137.71 103.77 57.22-56.25 102.8L-74.92 3656l100.86-102.8-52.37-96.98 98.92-64.01-42.67-137.71-129.96 32.97-5.81 122.2-116.38-1.94-32.98 137.71 133.84 40.74 60.13-104.74 98.92 60.12 104.74-98.92-102.8-102.8-102.8 60.13-58.19-102.8-139.66 34.91 40.74 139.66 116.38 1.94v116.38l139.65 36.85 34.91-139.66-100.86-60.12 56.25-98.93-102.8-102.8-96.98 100.86 60.13 104.74-98.92 54.31 29.09 141.6 143.53-36.85-3.88-118.32 118.32 1.94 34.92-139.66-135.78-38.79-56.25 98.92-102.8-54.31-106.68 100.86z" class="st2" fill="none" stroke="#fed800" stroke-width="3" stroke-miterlimit="10"/>
		<path d="M81.21 3531.04l12.62 43.5 26.91 27.95 30.62-33.53 11.86-38.74-43.58-9.89zM1385.75 137.47l100.86-58.19 62.07 100.86 133.84-34.91-36.86-139.66H1535.1l-5.81-122.19-143.54-32.98-36.85 137.72 103.77 57.22-56.25 102.8 100.86 102.8 100.86-102.8-52.37-96.98 98.92-64.01-42.67-137.72-129.95 32.98-5.82 122.19-116.38-1.93-32.98 137.71 133.84 40.73 60.13-104.74 98.92 60.13 104.74-98.92-102.8-102.8-102.8 60.13-58.19-102.8-139.65 34.91 40.73 139.65 116.38 1.94v116.38l139.65 36.86 34.91-139.66-100.86-60.13 56.25-98.92-102.8-102.8-96.98 100.86 60.13 104.74-98.92 54.31 29.09 141.6 143.53-36.86-3.87-118.32 118.31 1.94 34.92-139.65-135.78-38.79-56.25 98.92-102.8-54.31-106.68 100.86z" class="st2" fill="none" stroke="#fed800" stroke-width="3" stroke-miterlimit="10"/>
		<path d="M1261.6 125.97l12.62 43.5 26.91 27.96 30.62-33.54 11.86-38.73-43.57-9.89z" class="st2" fill="none" stroke="#fed800" stroke-width="3" stroke-miterlimit="10"/>
		<path d="M1189.84 477.15l100.87-58.19 62.06 100.87 133.84-34.92-36.85-139.65H1339.2l-5.82-122.2-143.54-32.97-36.85 137.71 103.77 57.22-56.25 102.8 100.86 102.8 100.87-102.8-52.38-96.98 98.93-64.01-42.68-137.71-129.95 32.97-5.82 122.2-116.38-1.94-32.97 137.71 133.83 40.74 60.13-104.74 98.92 60.12 104.74-98.92-102.8-102.8-102.8 60.13-58.19-102.8-139.65 34.91 40.73 139.66 116.38 1.94v116.38l139.65 36.85 34.92-139.66-100.86-60.12 56.25-98.93-102.81-102.8-96.98 100.86 60.13 104.74-98.92 54.31 29.09 141.6 143.54-36.85-3.88-118.32 118.32 1.94 34.91-139.66-135.78-38.79-56.25 98.92-102.8-54.31-106.68 100.86z" class="st2" fill="none" stroke="#fed800" stroke-width="3" stroke-miterlimit="10"/>
		<path d="M1065.7 283.94l12.61-43.5 26.91-27.95 30.63 33.54 11.86 38.73-43.58 9.89zM1065.7 465.66l12.61 43.5 26.91 27.95 30.63-33.53 11.86-38.74-43.58-9.89zM1263.54 625.32l12.62-43.5 26.91-27.95 30.62 33.53 11.86 38.74-43.58 9.89z" class="st2" fill="none" stroke="#fed800" stroke-width="3" stroke-miterlimit="10"/>
		<path d="M993.94 816.84l100.86-58.19 62.07 100.86 133.83-34.91-36.85-139.66h-110.56l-5.82-122.2-143.53-32.97-36.86 137.71 103.77 57.22-56.25 102.81 100.87 102.8 100.86-102.8-52.37-96.99 98.92-64.01-42.67-137.71-129.96 32.97-5.82 122.2-116.38-1.94-32.97 137.72 133.83 40.73 60.13-104.74 98.93 60.13 104.74-98.92-102.81-102.81-102.8 60.13-58.19-102.8-139.65 34.92 40.73 139.65 116.38 1.94v116.38l139.66 36.85 34.91-139.65-100.86-60.13 56.25-98.92-102.8-102.8-96.99 100.86 60.13 104.74-98.92 54.31 29.1 141.59 143.53-36.85-3.88-118.32 118.32 1.94 34.91-139.65-135.77-38.8-56.25 98.92-102.8-54.31-106.68 100.87z" class="st2" fill="none" stroke="#fed800" stroke-width="3" stroke-miterlimit="10"/>
		<path d="M1067.63 465.9l12.62 43.5 26.91 27.95 30.62-33.53 11.86-38.73-43.58-9.9zM869.79 805.34l12.62 43.5 26.9 27.95 30.63-33.53 11.86-38.73-43.58-9.9z" class="st2" fill="none" stroke="#fed800" stroke-width="3" stroke-miterlimit="10"/>
		<path d="M798.03 1156.52l100.86-58.19 62.07 100.86 133.83-34.91-36.85-139.66H947.38l-5.82-122.19-143.53-32.98-36.86 137.72 103.78 57.22-56.25 102.8 100.86 102.8 100.86-102.8-52.37-96.98 98.92-64.01-42.67-137.72-129.96 32.98-5.82 122.19-116.38-1.93-32.97 137.71 133.84 40.73 60.13-104.74 98.92 60.13 104.74-98.92-102.8-102.8-102.8 60.13-58.19-102.8-139.66 34.91 40.73 139.65 116.38 1.94v116.38l139.66 36.86 34.91-139.66-100.86-60.13 56.25-98.92-102.8-102.8-96.98 100.86 60.12 104.74-98.92 54.31 29.1 141.6 143.53-36.86-3.88-118.32 118.32 1.94 34.91-139.65-135.77-38.79-56.25 98.92L799 953.83l-106.68 100.86z" class="st2" fill="none" stroke="#fed800" stroke-width="3" stroke-miterlimit="10"/>
		<path d="M673.88 963.31l12.62-43.5 26.91-27.95 30.62 33.53 11.86 38.74-43.58 9.89zM673.88 1145.02l12.62 43.5 26.91 27.96 30.62-33.54 11.86-38.73-43.58-9.89z" class="st2" fill="none" stroke="#fed800" stroke-width="3" stroke-miterlimit="10"/>
		<path d="M602.12 1496.2l100.86-58.19 62.07 100.87 133.84-34.92-36.86-139.65H751.47l-5.82-122.2-143.53-32.97-36.85 137.71 103.77 57.22-56.25 102.8 100.86 102.8 100.86-102.8-52.37-96.98 98.92-64.01-42.67-137.71-129.96 32.97-5.81 122.2-116.38-1.94-32.98 137.71 133.84 40.74 60.13-104.75 98.92 60.13 104.74-98.92-102.8-102.8-102.8 60.13-58.19-102.8-139.66 34.91 40.74 139.66 116.38 1.94v116.38l139.65 36.85 34.91-139.66-100.86-60.13 56.25-98.92-102.8-102.8-96.98 100.86 60.13 104.74-98.92 54.31 29.09 141.6 143.53-36.85-3.88-118.32 118.32 1.94 34.92-139.66-135.78-38.79-56.25 98.92-102.8-54.31-106.68 100.86z" class="st2" fill="none" stroke="#fed800" stroke-width="3" stroke-miterlimit="10"/>
		<path d="M477.97 1484.71l12.62 43.5 26.91 27.95 30.62-33.53 11.86-38.74-43.58-9.89z" class="st2" fill="none" stroke="#fed800" stroke-width="3" stroke-miterlimit="10"/>
		<path d="M406.21 1835.89l100.86-58.19 62.07 100.86 133.84-34.91-36.85-139.66H555.57l-5.82-122.2-143.54-32.97-36.85 137.71 103.77 57.22-56.25 102.81 100.86 102.8 100.86-102.8-52.37-96.99 98.93-64.01-42.68-137.71-129.95 32.97-5.82 122.2-116.38-1.94-32.97 137.72 133.83 40.73 60.13-104.74 98.92 60.13L734.98 1736l-102.8-102.81-102.8 60.13-58.19-102.8-139.65 34.92 40.73 139.65 116.38 1.94v116.38l139.65 36.85 34.92-139.65-100.87-60.13 56.25-98.92-102.8-102.81-96.98 100.87 60.13 104.74-98.92 54.31 29.09 141.59 143.54-36.85-3.88-118.32 118.32 1.94 34.91-139.65-135.78-38.8-56.25 98.92-102.8-54.31-106.68 100.87z" class="st2" fill="none" stroke="#fed800" stroke-width="3" stroke-miterlimit="10"/>
		<path d="M282.06 1824.39l12.62 43.5 26.91 27.95 30.63-33.53 11.86-38.73-43.58-9.9z" class="st2" fill="none" stroke="#fed800" stroke-width="3" stroke-miterlimit="10"/>
		<g>
			<path d="M210.3 2175.57l100.87-58.19 62.07 100.86 133.83-34.91-36.85-139.66H359.66l-5.82-122.19-143.54-32.98-36.85 137.72 103.77 57.22-56.25 102.8 100.86 102.8 100.87-102.8-52.37-96.98 98.92-64.01-42.67-137.72-129.96 32.98-5.82 122.19-116.38-1.94-32.97 137.72 133.83 40.73 60.13-104.74 98.92 60.13 104.75-98.92-102.81-102.8-102.8 60.13-58.19-102.81-139.65 34.92 40.73 139.65 116.38 1.94v116.38l139.65 36.85 34.92-139.65-100.86-60.13 56.25-98.92-102.81-102.8-96.98 100.86 60.13 104.74-98.92 54.31 29.09 141.59 143.54-36.85-3.88-118.32 118.32 1.94 34.91-139.65-135.77-38.79-56.25 98.92-102.81-54.31-106.68 100.86z" class="st2" fill="none" stroke="#fed800" stroke-width="3" stroke-miterlimit="10"/>
			<path d="M86.16 1982.36l12.62-43.5 26.9-27.95 30.63 33.53 11.86 38.74-43.58 9.89zM86.16 2164.07l12.62 43.5 26.9 27.96 30.63-33.54 11.86-38.73-43.58-9.9z" class="st2" fill="none" stroke="#fed800" stroke-width="3" stroke-miterlimit="10"/>
		</g>
		<g>
			<path d="M14.4 2515.25l100.86-58.19 62.07 100.87 133.83-34.92-36.85-139.65H163.75l-5.82-122.2-143.53-32.97-36.86 137.71 103.77 57.22-56.24 102.8 100.86 102.8 100.86-102.8-52.37-96.98 98.92-64.01-42.67-137.71-129.96 32.97-5.82 122.2-116.38-1.94-32.97 137.71 133.84 40.74 60.12-104.75 98.93 60.13 104.74-98.92-102.8-102.8-102.81 60.13-58.18-102.8-139.66 34.91 40.73 139.66 116.38 1.94v116.37l139.66 36.86 34.91-139.66-100.86-60.13 56.25-98.92-102.8-102.8L27 2298.98l60.13 104.74-98.92 54.31 29.1 141.6 143.53-36.86-3.88-118.31 118.32 1.94 34.91-139.66-135.77-38.79-56.25 98.92-102.8-54.31-106.68 100.86z" class="st2" fill="none" stroke="#fed800" stroke-width="3" stroke-miterlimit="10"/>
		</g>
		<g>
			<path d="M-181.51 2854.94l100.86-58.19 62.07 100.86 133.84-34.91-36.86-139.66H-32.16l-5.82-122.2-143.53-32.97-36.85 137.71 103.77 57.22-56.25 102.8 100.86 102.81L30.88 2865.6l-52.37-96.98 98.92-64.01-42.67-137.71-129.96 32.97-5.82 122.2-116.37-1.94-32.98 137.72 133.84 40.73 60.13-104.74 98.92 60.13 104.74-98.93-102.8-102.8-102.8 60.13-58.19-102.8-139.66 34.92 40.74 139.65 116.37 1.94v116.38l139.66 36.85 34.91-139.65-100.86-60.13 56.25-98.92-102.8-102.81-96.98 100.87 60.13 104.74-98.93 54.31 29.1 141.59 143.53-36.85-3.88-118.32 118.32 1.94 34.92-139.66-135.78-38.79-56.25 98.92-102.8-54.31-106.68 100.87z" class="st2" fill="none" stroke="#fed800" stroke-width="3" stroke-miterlimit="10"/>
		</g>
		<g>
			<path d="M-168.88 119.86l100.54-58L-6.47 162.4l133.42-34.8L90.21-11.61H-20l-5.8-121.82-143.08-32.87-36.74 137.28 103.45 57.04-56.08 102.48L-57.7 232.97 42.84 130.5-9.37 33.82l98.61-63.8-42.53-137.28-129.55 32.87-5.8 121.81-116.01-1.93-32.87 137.27 133.41 40.61 59.94-104.41 98.61 59.94 104.41-98.61L56.37-82.19-46.1-22.25l-58.01-102.48-139.21 34.81 40.6 139.21 116.01 1.93v116.02l139.22 36.73 34.8-139.21L-13.23 4.82l56.07-98.61-102.48-102.48-96.67 100.55L-96.37 8.69l-98.61 54.14 29 141.14 143.08-36.73-3.87-117.95 117.95 1.93 34.8-139.21-135.35-38.67-56.07 98.61-102.47-54.14-106.35 100.54z" class="st2" fill="none" stroke="#fed800" stroke-width="3" stroke-miterlimit="10"/>
			<path d="M97.93 108.4l12.58 43.37 26.83 27.86 30.52-33.43 11.82-38.61-43.44-9.86z" class="st2" fill="none" stroke="#fed800" stroke-width="3" stroke-miterlimit="10"/>
		</g>
		<g>
			<path d="M998.87 129.24l100.87-58.19 62.07 100.86L1295.64 137 1258.79-2.66h-110.56l-5.82-122.19-143.54-32.98-36.85 137.72 103.77 57.22-56.25 102.8 100.86 102.8 100.87-102.8-52.37-96.98 98.92-64.01-42.67-137.72-129.96 32.98-5.82 122.19-116.38-1.94-32.97 137.72 133.83 40.73 60.13-104.74 98.92 60.13 104.75-98.92-102.81-102.8-102.8 60.13-58.19-102.81L924.2-81.21l40.73 139.65 116.38 1.94v116.38l139.65 36.85 34.92-139.65-100.86-60.13 56.25-98.92-102.81-102.8-96.98 100.86 60.13 104.74-98.92 54.31 29.09 141.59 143.54-36.85-3.88-118.32 118.32 1.94 34.91-139.65-135.77-38.8-56.25 98.93-102.81-54.31L893.16 27.41z" class="st2" fill="none" stroke="#fed800" stroke-width="3" stroke-miterlimit="10"/>
			<path d="M874.73 117.74l12.62 43.5 26.9 27.95 30.63-33.53 11.86-38.73-43.58-9.9z" class="st2" fill="none" stroke="#fed800" stroke-width="3" stroke-miterlimit="10"/>
		</g>
		<g>
			<path d="M802.97 468.92l100.86-58.19 62.07 100.86 133.83-34.91-36.85-139.65H952.32l-5.82-122.2-143.53-32.98-36.86 137.72 103.77 57.22-56.24 102.8 100.86 102.8 100.86-102.8-52.37-96.98 98.92-64.01-42.67-137.71-129.96 32.97-5.82 122.2-116.38-1.94-32.97 137.71 133.84 40.73 60.12-104.74 98.93 60.13 104.74-98.92-102.8-102.8-102.81 60.13-58.18-102.8-139.66 34.91 40.73 139.66 116.38 1.94v116.37l139.66 36.86 34.91-139.66-100.86-60.13 56.25-98.92-102.8-102.8-96.99 100.86 60.13 104.74-98.92 54.31 29.1 141.6 143.53-36.86-3.88-118.31 118.32 1.94 34.91-139.66-135.77-38.79-56.25 98.92-102.8-54.31-106.68 100.86z" class="st2" fill="none" stroke="#fed800" stroke-width="3" stroke-miterlimit="10"/>
			<path d="M678.82 275.71l12.62-43.5 26.91-27.95 30.62 33.54 11.86 38.73-43.58 9.89zM678.82 457.43l12.62 43.5 26.91 27.95 30.62-33.54 11.86-38.73-43.58-9.89zM876.66 617.09l12.62-43.5 26.91-27.95 30.62 33.53 11.86 38.74-43.58 9.89zM1070.63 457.43l12.62 43.5 26.9 27.95 30.63-33.54 11.86-38.73-43.58-9.89z" class="st2" fill="none" stroke="#fed800" stroke-width="3" stroke-miterlimit="10"/>
		</g>
		<g>
			<path d="M607.06 808.61l100.86-58.19 62.07 100.86 133.84-34.92-36.86-139.65H756.41l-5.82-122.2-143.53-32.97-36.85 137.71 103.77 57.22-56.25 102.8 100.86 102.81 100.86-102.81-52.37-96.98L866 658.28l-42.67-137.71-129.96 32.97-5.82 122.2-116.37-1.94-32.98 137.72 133.84 40.73 60.13-104.74 98.92 60.13 104.74-98.93-102.8-102.8-102.8 60.13-58.19-102.8-139.66 34.91 40.74 139.66 116.37 1.94v116.38l139.66 36.85 34.91-139.65L763.2 693.2l56.25-98.93-102.8-102.8-96.98 100.87 60.13 104.74-98.93 54.31 29.1 141.59 143.53-36.85-3.88-118.32 118.32 1.94 34.92-139.66-135.78-38.79-56.25 98.92-102.8-54.31-106.68 100.86z" class="st2" fill="none" stroke="#fed800" stroke-width="3" stroke-miterlimit="10"/>
			<path d="M482.91 615.4l12.62-43.5 26.91-27.96 30.62 33.54 11.86 38.73-43.58 9.9zM482.91 797.11l12.62 43.5 26.91 27.95 30.62-33.53 11.86-38.74-43.58-9.89z" class="st2" fill="none" stroke="#fed800" stroke-width="3" stroke-miterlimit="10"/>
		</g>
		<g>
			<path d="M411.15 1148.29l100.86-58.19 62.07 100.86 133.84-34.91-36.86-139.66H560.5l-5.81-122.19-143.54-32.98-36.85 137.72 103.77 57.22-56.25 102.8 100.86 102.8 100.86-102.8-52.37-96.99 98.92-64-42.67-137.72-129.95 32.98-5.82 122.19-116.38-1.94-32.98 137.72 133.84 40.73 60.13-104.74 98.92 60.13 104.74-98.92-102.8-102.8-102.8 60.13-58.19-102.81-139.65 34.92 40.73 139.65 116.38 1.94v116.38l139.65 36.85 34.91-139.65-100.86-60.13 56.25-98.92-102.8-102.8-96.98 100.86 60.13 104.74-98.92 54.31 29.09 141.59 143.53-36.85-3.87-118.32 118.31 1.94 34.92-139.65-135.78-38.8-56.25 98.93-102.8-54.31-106.68 100.86z" class="st2" fill="none" stroke="#fed800" stroke-width="3" stroke-miterlimit="10"/>
			<path d="M287 955.08l12.62-43.5 26.91-27.95 30.62 33.53 11.86 38.73-43.57 9.9zM287 1136.79l12.62 43.5 26.91 27.95 30.62-33.53 11.86-38.73-43.57-9.9zM484.85 1296.46l12.62-43.5 26.9-27.95 30.63 33.53 11.86 38.73-43.58 9.9z" class="st2" fill="none" stroke="#fed800" stroke-width="3" stroke-miterlimit="10"/>
		</g>
		<g>
			<path d="M215.24 1487.97l100.87-58.19 62.06 100.86 133.84-34.91-36.85-139.65H364.6l-5.82-122.2-143.54-32.98-36.85 137.72 103.77 57.22-56.25 102.8 100.86 102.8 100.87-102.8-52.38-96.98 98.93-64.01-42.68-137.72-129.95 32.98-5.82 122.2-116.38-1.94-32.97 137.71 133.83 40.73 60.13-104.74 98.92 60.13 104.74-98.92-102.8-102.8-102.8 60.13-58.19-102.8-139.65 34.91 40.73 139.66 116.38 1.93v116.38l139.65 36.86 34.92-139.66-100.86-60.13 56.25-98.92-102.81-102.8-96.98 100.86 60.13 104.74-98.92 54.31 29.09 141.6 143.54-36.86-3.88-118.31 118.32 1.93 34.91-139.65-135.78-38.79-56.25 98.92-102.8-54.31-106.68 100.86z" class="st2" fill="none" stroke="#fed800" stroke-width="3" stroke-miterlimit="10"/>
			<path d="M91.1 1294.76l12.61-43.5 26.91-27.95 30.63 33.53 11.86 38.74-43.58 9.89zM91.1 1476.48l12.61 43.5 26.91 27.95 30.63-33.54 11.86-38.73-43.58-9.89zM288.94 1636.14l12.62-43.5 26.91-27.95 30.62 33.53 11.86 38.74-43.58 9.89z" class="st2" fill="none" stroke="#fed800" stroke-width="3" stroke-miterlimit="10"/>
		</g>
		<g>
			<path d="M19.34 1827.66l100.86-58.19 62.07 100.86 133.83-34.92-36.85-139.65H168.69l-5.82-122.2-143.53-32.97-36.86 137.71 103.77 57.22L30 1838.32l100.87 102.8 100.86-102.8-52.37-96.98 98.92-64.01-14.44 222.83-129.96 32.97-34.05-238.34-116.38-1.94-32.97 137.72 133.83 40.73 60.13-104.74 98.93 60.13 104.74-98.93-102.81-102.8-102.8 60.13-58.19-102.8-139.65 34.91 40.73 139.66 116.38 1.94v116.38l139.66 36.85 34.91-139.65-100.86-60.13 56.25-98.93-102.8-102.8-96.99 100.86 60.13 104.75-98.92 54.31 29.1 141.59 143.53-36.85-3.88-118.32 118.32 1.94 34.91-139.66-135.77-38.79-56.25 98.92-102.8-54.31-106.68 100.86z" class="st2" fill="none" stroke="#fed800" stroke-width="3" stroke-miterlimit="10"/>
		</g>
		<g>
			<path d="M-176.57 2167.34l100.86-58.19 62.07 100.86 133.83-34.91-36.85-139.66H-27.22l-5.82-122.19-143.53-32.98-36.86 137.72 103.78 57.22-56.25 102.8 100.86 102.8 100.86-102.8-52.37-96.99 98.92-64L39.7 1879.3l-129.96 32.98-5.82 122.19-116.38-1.94-32.97 137.72 133.84 40.73 60.13-104.74 98.92 60.13 104.74-98.92-102.8-102.8-102.8 60.12-58.19-102.8-139.66 34.92 40.73 139.65 116.38 1.94v116.38l139.66 36.85 34.91-139.65-100.86-60.13 56.25-98.92-102.8-102.8-96.98 100.86 60.12 104.74-98.92 54.31 29.1 141.59 143.53-36.85-3.88-118.32 118.32 1.94 34.91-139.65-135.77-38.8-56.25 98.93-102.8-54.31-106.68 100.86z" class="st2" fill="none" stroke="#fed800" stroke-width="3" stroke-miterlimit="10"/>
		</g>
		<g>
			<path d="M219.09 120.41l100.55-58 61.87 100.54 133.41-34.8-36.74-139.22H367.97l-5.8-121.81-143.08-32.87-36.73 137.28L285.8 28.57l-56.07 102.48 100.54 102.47 100.54-102.47-52.2-96.68 98.61-63.8-42.54-137.28-129.55 32.87-5.8 121.81-116.01-1.94-32.87 137.28 133.42 40.61L343.8 59.51l98.61 59.94 104.41-98.61L444.35-81.64 341.87-21.7l-58-102.48-139.22 34.81 40.61 139.21 116.01 1.93v116.01l139.21 36.74 34.8-139.21L374.74 5.37l56.07-98.61-102.47-102.48-96.68 100.55L291.6 9.24l-98.61 54.13 29 141.15 143.08-36.74-3.86-117.94 117.94 1.93 34.8-139.21-135.34-38.67-56.07 98.61-102.48-54.14L113.72 18.9z" class="st2" fill="none" stroke="#fed800" stroke-width="3" stroke-miterlimit="10"/>
			<path d="M292.56 268.11l12.57-43.36 26.83-27.86 30.53 33.42 11.82 38.61-43.44 9.87zM485.91 108.95l12.58 43.37 26.82 27.86 30.53-33.43 11.82-38.61-43.44-9.86z" class="st2" fill="none" stroke="#fed800" stroke-width="3" stroke-miterlimit="10"/>
		</g>
		<g>
			<path d="M26.47 460.14l100.86-58.19 62.07 100.86 133.84-34.91-36.86-139.65H175.82L170 206.05 26.47 173.07l-36.85 137.72 103.77 57.22-56.25 102.8L138 573.61l100.86-102.8-52.37-96.98 98.92-64.01-42.67-137.72-129.96 32.98-5.81 122.2-116.38-1.94-32.98 137.71 133.84 40.73 60.13-104.74 98.92 60.13 104.74-98.92-102.8-102.8-102.8 60.13-58.19-102.8-139.66 34.91 40.74 139.66 116.37 1.93v116.38l139.66 36.86 34.91-139.66-100.86-60.13 56.25-98.92-102.8-102.8-96.98 100.86 60.13 104.74L.28 402.92l29.1 141.6 143.53-36.86-3.88-118.31 118.32 1.93 34.92-139.65-135.78-38.79-56.25 98.92-102.8-54.31-106.68 100.86z" class="st2" fill="none" stroke="#fed800" stroke-width="3" stroke-miterlimit="10"/>
			<path d="M100.17 608.31l12.61-43.5 26.91-27.95 30.63 33.53 11.86 38.74-43.58 9.89zM294.13 448.65l12.62 43.5 26.91 27.95 30.62-33.54 11.86-38.73-43.58-9.89z" class="st2" fill="none" stroke="#fed800" stroke-width="3" stroke-miterlimit="10"/>
		</g>
		<g>
			<path d="M612 121.01l100.86-58.19 62.07 100.86 133.83-34.91-36.85-139.66H761.35l-5.82-122.2L612-166.06 575.14-28.34l103.78 57.21-56.25 102.81 100.86 102.8 100.86-102.8-52.37-96.99 98.92-64-42.67-137.72-129.96 32.97-5.82 122.2-116.38-1.94-32.97 137.72 133.84 40.73 60.13-104.74 98.92 60.13 104.74-98.92-102.8-102.81-102.8 60.13-58.19-102.8-139.66 34.92 40.73 139.65 116.38 1.94v116.38l139.66 36.85L869 65.73 768.14 5.6l56.25-98.92-102.8-102.8-96.98 100.86L684.73 9.48l-98.92 54.31 29.1 141.59 143.53-36.85-3.88-118.32 118.32 1.94L907.79-87.5l-135.77-38.8-56.25 98.92-102.8-54.31L506.29 19.18z" class="st2" fill="none" stroke="#fed800" stroke-width="3" stroke-miterlimit="10"/>
		</g>
		<g>
			<path d="M416.09 460.69l100.86-58.19 62.07 100.86 133.84-34.91L676 328.8H565.44l-5.82-122.2-143.53-32.98-36.85 137.72 103.77 57.22-56.25 102.8 100.86 102.8 100.86-102.8-52.37-96.98 98.92-64.01-42.67-137.72-129.96 32.98-5.81 122.2-116.38-1.94-32.98 137.71 133.84 40.73 60.13-104.74 98.92 60.13 104.74-98.92L642.06 258l-102.8 60.13-58.19-102.8-139.66 34.91 40.74 139.65 116.38 1.94v116.38l139.65 36.86 34.91-139.66-100.86-60.13 56.25-98.92-102.8-102.8-96.98 100.86 60.13 104.74-98.92 54.31L419 545.07l143.53-36.86-3.88-118.32 118.32 1.94 34.92-139.65-135.78-38.79-56.25 98.92L417.06 258 310.38 358.86z" class="st2" fill="none" stroke="#fed800" stroke-width="3" stroke-miterlimit="10"/>
		</g>
		<g>
			<path d="M220.18 800.37l100.86-58.19 62.07 100.87 133.84-34.92-36.85-139.65H369.54l-5.82-122.2-143.54-32.97-36.85 137.71 103.77 57.22-56.25 102.8 100.86 102.8 100.86-102.8-52.37-96.98 98.93-64.01-42.68-137.71-129.95 32.97-5.82 122.2-116.38-1.94-32.97 137.71 133.83 40.74 60.13-104.74 98.92 60.12 104.74-98.92-102.8-102.8-102.8 60.13-58.19-102.8-139.65 34.91 40.73 139.66 116.38 1.94V847.9l139.65 36.85 34.92-139.66-100.87-60.12 56.25-98.93-102.8-102.8-96.98 100.86 60.13 104.74L194 743.15l29.09 141.6 143.54-36.85-3.88-118.32 118.32 1.94 34.91-139.66-135.78-38.79-56.25 98.92-102.8-54.31-106.68 100.86z" class="st2" fill="none" stroke="#fed800" stroke-width="3" stroke-miterlimit="10"/>
			<path d="M96.03 788.88l12.62 43.5 26.91 27.95 30.63-33.53 11.86-38.74-43.58-9.89z" class="st2" fill="none" stroke="#fed800" stroke-width="3" stroke-miterlimit="10"/>
		</g>
		<g>
			<path d="M24.27 1140.06l100.87-58.19 62.07 100.86 133.83-34.91-36.85-139.66H173.63l-5.82-122.2-143.54-32.97-36.85 137.71 103.77 57.22-56.25 102.81 100.86 102.8 100.87-102.8-52.37-96.99 98.92-64-42.67-137.72-129.96 32.97-5.82 122.2-116.38-1.94-32.97 137.72 133.83 40.73 60.13-104.74 98.92 60.13 104.74-98.92-102.8-102.81-102.8 60.13-58.19-102.8-139.65 34.92 40.73 139.65 116.38 1.94v116.38l139.65 36.85 34.92-139.65-100.86-60.13 56.25-98.92-102.81-102.8-96.98 100.86 60.13 104.74-98.92 54.31 29.09 141.59 143.54-36.85-3.88-118.32 118.32 1.94 34.91-139.65-135.77-38.8-56.25 98.92-102.81-54.31-106.68 100.87z" class="st2" fill="none" stroke="#fed800" stroke-width="3" stroke-miterlimit="10"/>
		</g>
		<g>
			<path d="M-171.63 1479.74l100.86-58.19 62.07 100.86 133.83-34.91-36.85-139.66H-22.28l-5.82-122.19-143.53-32.98-36.86 137.72 103.77 57.22-56.24 102.8 100.86 102.8 100.86-102.8-52.37-96.98 98.92-64.01-42.67-137.72-129.96 32.98-5.82 122.2-116.38-1.94-32.97 137.71 133.84 40.73 60.12-104.74 98.93 60.13 104.74-98.92-102.8-102.8-102.81 60.13-58.18-102.8-139.66 34.91 40.73 139.65 116.38 1.94v116.38l139.66 36.86 34.91-139.66-100.86-60.13 56.25-98.92-102.8-102.8-96.99 100.86 60.13 104.74-98.92 54.31 29.1 141.6 143.53-36.86-3.88-118.32 118.32 1.94 34.91-139.65-135.77-38.79-56.25 98.92-102.8-54.31-106.68 100.86z" class="st2" fill="none" stroke="#fed800" stroke-width="3" stroke-miterlimit="10"/>
		</g>
		<g>
			<path d="M-166.69 799.83l100.86-58.19L-3.76 842.5l133.83-34.92-36.85-139.65H-17.34l-5.82-122.2-143.53-32.97-36.86 137.71 103.77 57.22-56.25 102.8 100.87 102.8L45.7 810.49l-52.37-96.98 98.92-64.01-42.67-137.71-129.96 32.97-5.82 122.2-116.38-1.94-32.97 137.72 133.83 40.73 60.13-104.74 98.93 60.13 104.74-98.93-102.81-102.8-102.8 60.13-58.19-102.8-139.65 34.91 40.73 139.66 116.38 1.94v116.38L55.4 884.2l34.91-139.65-100.86-60.13 56.25-98.93-102.8-102.8-96.99 100.87 60.13 104.74-98.92 54.31 29.1 141.59 143.53-36.85-3.88-118.32 118.32 1.94 34.91-139.66-135.77-38.79-56.25 98.92-102.8-54.31-106.68 100.86z" class="st2" fill="none" stroke="#fed800" stroke-width="3" stroke-miterlimit="10"/>
		</g>
		<g>
			<path d="M1773.18 825.07l100.86-58.19 62.07 100.86 133.83-34.91-36.85-139.66h-110.56l-5.82-122.2L1773.18 538l-36.86 137.72 103.77 57.22-56.24 102.8 100.86 102.8 100.86-102.8-52.37-96.99 98.92-64-42.67-137.72-129.96 32.98-5.82 122.19-116.38-1.94-32.97 137.72 133.84 40.73 60.12-104.74 98.93 60.13 104.74-98.92-102.8-102.8-102.81 60.12-58.18-102.8-139.66 34.92 40.73 139.65 116.38 1.94v116.38l139.66 36.85 34.91-139.65-100.86-60.13 56.25-98.92-102.8-102.8-96.99 100.86 60.13 104.74-98.92 54.31 29.1 141.59 143.53-36.85-3.88-118.32 118.32 1.94 34.91-139.65-135.77-38.8-56.25 98.93-102.8-54.31-106.68 100.86z" class="st2" fill="none" stroke="#fed800" stroke-width="3" stroke-miterlimit="10"/>
		</g>
		<g>
			<path d="M1577.27 1164.75l100.86-58.19 62.07 100.86 133.84-34.91-36.86-139.65h-110.56l-5.82-122.2-143.53-32.98-36.85 137.72 103.77 57.22-56.25 102.8 100.86 102.8 100.86-102.8-52.37-96.98 98.92-64.01-42.67-137.72-129.96 32.98-5.82 122.2-116.37-1.94-32.98 137.71 133.84 40.73 60.13-104.74 98.92 60.13 104.74-98.92-102.8-102.8-102.8 60.13-58.19-102.8-139.66 34.91 40.74 139.65 116.37 1.94v116.38l139.66 36.86 34.91-139.66-100.86-60.13 56.25-98.92-102.8-102.8-96.98 100.86 60.13 104.74-98.93 54.31 29.1 141.6 143.53-36.86-3.88-118.32 118.32 1.94 34.92-139.65-135.78-38.79-56.25 98.92-102.8-54.31-106.68 100.86z" class="st2" fill="none" stroke="#fed800" stroke-width="3" stroke-miterlimit="10"/>
			<path d="M1650.97 1312.92l12.61-43.5 26.91-27.95 30.63 33.53 11.86 38.73-43.58 9.9z" class="st2" fill="none" stroke="#fed800" stroke-width="3" stroke-miterlimit="10"/>
		</g>
		<g>
			<path d="M1381.36 1504.44l100.86-58.19 62.07 100.86 133.84-34.92-36.86-139.65h-110.56l-5.81-122.2-143.54-32.97-36.85 137.71 103.77 57.22-56.25 102.8 100.86 102.8 100.86-102.8-52.37-96.98 98.92-64.01-42.67-137.71-129.95 32.97-5.82 122.2-116.38-1.94-32.98 137.71 133.84 40.74 60.13-104.74 98.92 60.13 104.74-98.93-102.8-102.8-102.8 60.13-58.19-102.8-139.65 34.91 40.73 139.66 116.38 1.94v116.38l139.65 36.85 34.91-139.65-100.86-60.13 56.25-98.93-102.8-102.8-96.98 100.86 60.13 104.75-98.92 54.31 29.09 141.59 143.53-36.85-3.87-118.32 118.31 1.94 34.92-139.66-135.78-38.79-56.25 98.92-102.8-54.31-106.68 100.86z" class="st2" fill="none" stroke="#fed800" stroke-width="3" stroke-miterlimit="10"/>
			<path d="M1455.06 1652.6l12.62-43.5 26.9-27.95 30.63 33.54 11.86 38.73-43.58 9.89zM1649.02 1492.94l12.62 43.5 26.91 27.95 30.62-33.53 11.86-38.74-43.58-9.89z" class="st2" fill="none" stroke="#fed800" stroke-width="3" stroke-miterlimit="10"/>
		</g>
		<g>
			<path d="M1185.45 1844.12l100.87-58.19 62.06 100.86 133.84-34.91-36.85-139.66h-110.56l-5.82-122.2-143.54-32.97-36.85 137.72 103.77 57.22-56.25 102.8 100.86 102.8 100.86-102.8-52.37-96.99 98.93-64-42.68-137.72-129.95 32.97-5.82 122.2-116.38-1.94-32.97 137.72 133.83 40.73 60.13-104.74 98.92 60.13 104.74-98.92-102.8-102.8-102.8 60.12-58.19-102.8-139.65 34.92 40.73 139.65 116.38 1.94v116.38l139.65 36.85 34.92-139.65-100.86-60.13 56.24-98.92-102.8-102.8-96.98 100.86 60.13 104.74-98.92 54.31 29.09 141.59 143.54-36.85-3.88-118.32 118.32 1.94 34.91-139.65-135.78-38.8-56.25 98.93-102.8-54.31-106.68 100.86z" class="st2" fill="none" stroke="#fed800" stroke-width="3" stroke-miterlimit="10"/>
			<path d="M1259.15 1992.29l12.62-43.5 26.91-27.96 30.62 33.54 11.86 38.73-43.58 9.9zM1453.11 1832.62l12.62 43.5 26.91 27.95 30.63-33.53 11.86-38.73-43.58-9.9z" class="st2" fill="none" stroke="#fed800" stroke-width="3" stroke-miterlimit="10"/>
		</g>
		<g>
			<path d="M989.55 2183.8l100.86-58.19 62.07 100.86 133.83-34.91-36.85-139.65H1138.9l-5.82-122.2-143.53-32.98-36.86 137.72 103.77 57.22-56.25 102.8 100.87 102.8 100.86-102.8-52.37-96.98 98.92-64.01-42.67-137.72-129.96 32.98-5.82 122.2-116.38-1.94-32.97 137.71 133.83 40.73 60.13-104.74 98.93 60.13 104.74-98.92-102.81-102.8-102.8 60.13-58.19-102.8-139.65 34.91L955.6 2113l116.38 1.94v116.38l139.66 36.86 34.91-139.66-100.86-60.13 56.25-98.92-102.8-102.8-96.99 100.86 60.13 104.74-98.92 54.31 29.1 141.6 143.53-36.86-3.88-118.32 118.32 1.94 34.91-139.65-135.77-38.79-56.25 98.92-102.8-54.31-106.68 100.86z" class="st2" fill="none" stroke="#fed800" stroke-width="3" stroke-miterlimit="10"/>
			<path d="M865.4 2172.3l12.62 43.51 26.9 27.95 30.63-33.54 11.86-38.73-43.58-9.89zM1063.24 2331.97l12.62-43.5 26.91-27.95 30.62 33.53 11.86 38.73-43.58 9.9zM1257.21 2172.3l12.61 43.51 26.91 27.95 30.63-33.54 11.86-38.73-43.58-9.89z" class="st2" fill="none" stroke="#fed800" stroke-width="3" stroke-miterlimit="10"/>
		</g>
		<g>
			<path d="M793.64 2523.48l100.86-58.18 62.07 100.86 133.83-34.92-36.85-139.65H942.99l-5.82-122.2-143.53-32.97-36.86 137.71 103.78 57.22-56.25 102.8 100.86 102.8 100.86-102.8-52.37-96.98 98.92-64.01-42.67-137.71-129.96 32.97-5.82 122.2-116.38-1.94-32.97 137.71 133.84 40.74 60.13-104.74 98.92 60.13 104.74-98.93-102.8-102.8-102.8 60.13-58.19-102.8-139.66 34.91 40.73 139.66 116.38 1.94v116.38l139.66 36.85 34.91-139.66-100.86-60.12 56.25-98.93-102.8-102.8-96.98 100.86 60.12 104.75-98.92 54.31 29.1 141.59 143.53-36.85-3.88-118.32 118.32 1.94 34.91-139.66-135.77-38.79-56.25 98.92-102.8-54.31-106.68 100.86z" class="st2" fill="none" stroke="#fed800" stroke-width="3" stroke-miterlimit="10"/>
			<path d="M867.33 2671.65l12.62-43.5 26.91-27.95 30.63 33.54 11.85 38.73-43.57 9.89zM1061.3 2330.28l12.62-43.51 26.91-27.95 30.62 33.54 11.86 38.73-43.58 9.89zM1061.3 2511.99l12.62 43.5 26.91 27.95 30.62-33.53 11.86-38.74-43.58-9.89z" class="st2" fill="none" stroke="#fed800" stroke-width="3" stroke-miterlimit="10"/>
		</g>
		<g>
			<path d="M597.73 2863.17l100.86-58.19 62.07 100.86 133.84-34.91-36.86-139.66H747.08l-5.82-122.2-143.53-32.97-36.85 137.72 103.77 57.21-56.25 102.81 100.86 102.8 100.86-102.8-52.37-96.99 98.92-64L814 2575.13l-129.96 32.97-5.81 122.2-116.38-1.94-32.98 137.72 133.84 40.73 60.13-104.74 98.92 60.13 104.74-98.92-102.8-102.8-102.8 60.12-58.19-102.8-139.66 34.92 40.74 139.65 116.38 1.94v116.38l139.65 36.85 34.91-139.65-100.86-60.13 56.25-98.92-102.8-102.8-96.98 100.86 60.13 104.74-98.92 54.31 29.09 141.59 143.53-36.85-3.88-118.32 118.32 1.94 34.92-139.65-135.78-38.8-56.25 98.93-102.8-54.31-106.68 100.86z" class="st2" fill="none" stroke="#fed800" stroke-width="3" stroke-miterlimit="10"/>
			<path d="M671.43 3011.34l12.61-43.5 26.91-27.96 30.63 33.54 11.86 38.73-43.58 9.9zM865.39 2851.67l12.62 43.5 26.91 27.95 30.62-33.53 11.86-38.73-43.58-9.9z" class="st2" fill="none" stroke="#fed800" stroke-width="3" stroke-miterlimit="10"/>
		</g>
		<g>
			<path d="M401.82 3202.85l100.86-58.19 62.07 100.86 133.84-34.91-36.85-139.65H551.18l-5.82-122.2-143.54-32.98-36.85 137.72 103.77 57.22-56.25 102.8 100.86 102.8 100.86-102.8-52.37-96.98 98.93-64.01-42.68-137.72-129.95 32.98-5.82 122.2-116.38-1.94-32.97 137.71 133.83 40.73 60.13-104.74 98.92 60.13 104.74-98.92-102.8-102.8-102.8 60.13-58.19-102.8-139.65 34.91 40.73 139.65 116.38 1.94v116.38l139.65 36.86 34.92-139.66-100.87-60.13 56.25-98.92-102.8-102.8-96.98 100.86 60.13 104.74-98.92 54.31 29.09 141.6 143.54-36.86-3.88-118.32 118.32 1.94 34.91-139.65-135.78-38.79-56.25 98.92-102.8-54.31-106.68 100.86z" class="st2" fill="none" stroke="#fed800" stroke-width="3" stroke-miterlimit="10"/>
			<path d="M277.67 3191.35l12.62 43.51 26.91 27.95 30.63-33.54 11.86-38.73-43.58-9.89zM475.52 3351.02l12.62-43.5 26.91-27.95 30.62 33.53 11.86 38.73-43.58 9.9zM669.48 3191.35l12.62 43.51 26.91 27.95 30.62-33.54 11.86-38.73-43.58-9.89z" class="st2" fill="none" stroke="#fed800" stroke-width="3" stroke-miterlimit="10"/>
		</g>
		<g>
			<path d="M205.91 3542.53l100.87-58.18 62.07 100.86 133.83-34.92-36.85-139.65H355.27l-5.82-122.2-143.54-32.97-36.85 137.71 103.77 57.22-56.25 102.8L317.44 3656l100.87-102.8-52.37-96.98 98.92-64.01-42.67-137.71-129.96 32.97-5.82 122.2-116.38-1.94-32.97 137.71 133.83 40.74 60.13-104.74 98.92 60.12 104.74-98.92-102.8-102.8-102.8 60.13-58.19-102.8-139.65 34.91 40.73 139.66 116.38 1.94v116.38L428 3626.91l34.92-139.66-100.86-60.12 56.25-98.93-102.81-102.8-96.98 100.86L278.65 3431l-98.92 54.31 29.09 141.6 143.54-36.85-3.88-118.32 118.32 1.94 34.91-139.66-135.77-38.79-56.25 98.92-102.81-54.31L100.2 3440.7z" class="st2" fill="none" stroke="#fed800" stroke-width="3" stroke-miterlimit="10"/>
			<path d="M473.58 3531.04l12.61 43.5 26.91 27.95 30.63-33.53 11.86-38.74-43.58-9.89z" class="st2" fill="none" stroke="#fed800" stroke-width="3" stroke-miterlimit="10"/>
		</g>
		<g>
			<path d="M1773.73 1504.44l100.86-58.19 62.07 100.86 133.83-34.92-36.85-139.65h-110.56l-5.82-122.2-143.53-32.97-36.86 137.71 103.77 57.22-56.25 102.8 100.87 102.8 100.86-102.8-52.37-96.98 98.92-64.01L1990 1216.4l-129.96 32.97-5.82 122.2-116.38-1.94-32.97 137.71 133.83 40.74 60.13-104.74 98.93 60.13 104.74-98.93-102.81-102.8-102.8 60.13-58.19-102.8-139.65 34.91 40.73 139.66 116.38 1.94v116.38l139.66 36.85 34.91-139.65-100.86-60.13 56.25-98.93-102.8-102.8-96.99 100.86 60.13 104.75-98.92 54.31 29.1 141.59 143.53-36.85-3.88-118.32 118.32 1.94 34.91-139.66-135.77-38.79-56.25 98.92-102.8-54.31-106.68 100.86z" class="st2" fill="none" stroke="#fed800" stroke-width="3" stroke-miterlimit="10"/>
		</g>
		<g>
			<path d="M1577.82 1844.12l100.86-58.19 62.07 100.86 133.83-34.91-36.85-139.66h-110.56l-5.82-122.2-143.53-32.97-36.86 137.72 103.78 57.22-56.25 102.8 100.86 102.8 100.86-102.8-52.37-96.99 98.92-64-42.67-137.72-129.96 32.97-5.82 122.2-116.38-1.94-32.97 137.72 133.84 40.73 60.13-104.74 98.92 60.13 104.74-98.92-102.8-102.8-102.8 60.12-58.19-102.8-139.66 34.92 40.73 139.65 116.38 1.94v116.38l139.66 36.85 34.91-139.65-100.86-60.13 56.25-98.92-102.8-102.8-96.98 100.86 60.12 104.74-98.92 54.31 29.1 141.59 143.53-36.85-3.88-118.32 118.32 1.94 34.91-139.65-135.77-38.8-56.25 98.93-102.8-54.31-106.68 100.86z" class="st2" fill="none" stroke="#fed800" stroke-width="3" stroke-miterlimit="10"/>
			<path d="M1651.51 1992.29l12.62-43.5 26.91-27.96 30.63 33.54 11.85 38.73-43.57 9.9z" class="st2" fill="none" stroke="#fed800" stroke-width="3" stroke-miterlimit="10"/>
		</g>
		<g>
			<path d="M1381.91 2183.8l100.86-58.19 62.07 100.86 133.84-34.91-36.86-139.65h-110.56l-5.82-122.2-143.53-32.98-36.85 137.72 103.77 57.22-56.25 102.8 100.86 102.8 100.86-102.8-52.37-96.98 98.92-64.01-42.67-137.72-129.96 32.98-5.81 122.2-116.38-1.94-32.98 137.71 133.84 40.73 60.13-104.74 98.92 60.13 104.74-98.92-102.8-102.8-102.8 60.13-58.19-102.8-139.66 34.91 40.74 139.65 116.38 1.94v116.38l139.65 36.86 34.91-139.66-100.86-60.13 56.25-98.92-102.8-102.8-96.98 100.86 60.13 104.74-98.93 54.31 29.1 141.6 143.53-36.86-3.88-118.32 118.32 1.94 34.92-139.65-135.78-38.79-56.25 98.92-102.8-54.31-106.68 100.86z" class="st2" fill="none" stroke="#fed800" stroke-width="3" stroke-miterlimit="10"/>
			<path d="M1257.76 2172.3l12.62 43.51 26.91 27.95 30.62-33.54 11.86-38.73-43.58-9.89zM1455.61 2331.97l12.61-43.5 26.91-27.95 30.63 33.53 11.86 38.73-43.58 9.9zM1649.57 2172.3l12.62 43.51 26.91 27.95 30.62-33.54 11.86-38.73-43.58-9.89z" class="st2" fill="none" stroke="#fed800" stroke-width="3" stroke-miterlimit="10"/>
		</g>
		<g>
			<path d="M1186 2523.48l100.86-58.18 62.07 100.86 133.84-34.92-36.85-139.65h-110.56l-5.82-122.2-143.54-32.97-36.85 137.71 103.77 57.22-56.25 102.8 100.86 102.8 100.86-102.8-52.37-96.98 98.93-64.01-42.68-137.71-129.95 32.97-5.82 122.2-116.38-1.94-32.97 137.71 133.83 40.74 60.13-104.74 98.92 60.13 104.74-98.93-102.8-102.8-102.8 60.13-58.19-102.8-139.65 34.91 40.73 139.66 116.38 1.94v116.38l139.65 36.85 34.92-139.66-100.87-60.12 56.25-98.93-102.8-102.8-96.98 100.86 60.13 104.75-98.92 54.31 29.09 141.59 143.54-36.85-3.88-118.32 118.32 1.94 34.91-139.66-135.78-38.79-56.25 98.92-102.8-54.31-106.68 100.86z" class="st2" fill="none" stroke="#fed800" stroke-width="3" stroke-miterlimit="10"/>
			<path d="M1259.7 2172.55l12.62 43.5 26.91 27.95 30.62-33.53 11.86-38.73-43.58-9.9zM1061.85 2330.28l12.62-43.51 26.91-27.95 30.63 33.54 11.86 38.73-43.58 9.89zM1061.85 2511.99l12.62 43.5 26.91 27.95 30.63-33.53 11.86-38.74-43.58-9.89zM1259.7 2671.65l12.62-43.5 26.91-27.95 30.62 33.54 11.86 38.73-43.58 9.89zM1453.66 2511.99l12.62 43.5 26.91 27.95 30.62-33.53 11.86-38.74-43.58-9.89z" class="st2" fill="none" stroke="#fed800" stroke-width="3" stroke-miterlimit="10"/>
		</g>
		<g>
			<path d="M990.09 2863.17l100.87-58.19 62.07 100.86 133.83-34.91-36.85-139.66h-110.56l-5.82-122.2-143.54-32.97-36.85 137.72 103.77 57.21-56.25 102.81 100.86 102.8 100.87-102.8-52.37-96.99 98.92-64-42.67-137.72-129.96 32.97-5.82 122.2-116.38-1.94-32.97 137.72 133.83 40.73 60.13-104.74 98.92 60.13 104.74-98.92-102.8-102.8-102.8 60.12-58.19-102.8-139.65 34.92 40.73 139.65 116.38 1.94v116.38l139.65 36.85 34.92-139.65-100.86-60.13 56.25-98.92-102.81-102.8-96.98 100.86 60.13 104.74-98.92 54.31L993 2947.54l143.54-36.85-3.88-118.32 118.32 1.94 34.91-139.65-135.77-38.8-56.25 98.93-102.81-54.31-106.68 100.86z" class="st2" fill="none" stroke="#fed800" stroke-width="3" stroke-miterlimit="10"/>
			<path d="M1063.79 2512.23l12.62 43.5 26.91 27.96 30.62-33.54 11.86-38.73-43.58-9.9zM1063.79 3011.34l12.62-43.5 26.91-27.96 30.62 33.54 11.86 38.73-43.58 9.9zM1257.76 2669.96l12.61-43.5 26.91-27.95 30.63 33.53 11.86 38.73-43.58 9.9zM1257.76 2851.67l12.61 43.5 26.91 27.95 30.63-33.53 11.86-38.73-43.58-9.9z" class="st2" fill="none" stroke="#fed800" stroke-width="3" stroke-miterlimit="10"/>
		</g>
		<g>
			<path d="M794.19 3202.85l100.86-58.19 62.07 100.86 133.83-34.91-36.85-139.65H943.54l-5.82-122.2-143.53-32.98-36.86 137.72 103.77 57.22-56.25 102.8 100.87 102.8 100.86-102.8-52.37-96.98 98.92-64.01-42.67-137.72-129.96 32.98-5.82 122.2-116.38-1.94-32.97 137.71 133.84 40.73 60.12-104.74 98.93 60.13 104.74-98.92-102.8-102.8-102.81 60.13-58.18-102.8-139.66 34.91 40.73 139.65 116.38 1.94v116.38l139.66 36.86 34.91-139.66-100.86-60.13 56.25-98.92-102.8-102.8-96.99 100.86 60.13 104.74-98.92 54.31 29.1 141.6 143.53-36.86-3.88-118.32 118.32 1.94 34.91-139.65-135.77-38.79-56.25 98.92-102.8-54.31-106.68 100.86z" class="st2" fill="none" stroke="#fed800" stroke-width="3" stroke-miterlimit="10"/>
			<path d="M867.88 3351.02l12.62-43.5 26.91-27.95 30.62 33.53 11.86 38.73-43.58 9.9zM1061.85 3191.35l12.62 43.51 26.9 27.95 30.63-33.54 11.86-38.73-43.58-9.89z" class="st2" fill="none" stroke="#fed800" stroke-width="3" stroke-miterlimit="10"/>
		</g>
		<g>
			<path d="M598.28 3542.53l100.86-58.18 62.07 100.86 133.84-34.92-36.86-139.65H747.63l-5.82-122.2-143.53-32.97-36.85 137.71 103.77 57.22-56.25 102.8L709.81 3656l100.86-102.8-52.37-96.98 98.92-64.01-42.67-137.71-129.96 32.97-5.82 122.2-116.37-1.94-32.98 137.71 133.84 40.74 60.13-104.74 98.92 60.12 104.74-98.92-102.8-102.8-102.8 60.13-58.19-102.8-139.66 34.91 40.74 139.66 116.37 1.94v116.38l139.66 36.85 34.91-139.66-100.86-60.12 56.25-98.93-102.8-102.8-96.98 100.86L671.02 3431l-98.93 54.31 29.1 141.6 143.53-36.85-3.88-118.32 118.32 1.94 34.92-139.66-135.78-38.79-56.25 98.92-102.8-54.31-106.68 100.86z" class="st2" fill="none" stroke="#fed800" stroke-width="3" stroke-miterlimit="10"/>
			<path d="M865.94 3531.04l12.62 43.5 26.91 27.95 30.62-33.53 11.86-38.74-43.58-9.89z" class="st2" fill="none" stroke="#fed800" stroke-width="3" stroke-miterlimit="10"/>
		</g>
		<g>
			<path d="M1774.27 2183.8l100.87-58.19 62.06 100.86 133.84-34.91-36.85-139.65h-110.56l-5.82-122.2-143.54-32.98-36.85 137.72 103.77 57.22-56.25 102.8 100.86 102.8 100.87-102.8-52.37-96.98 98.92-64.01-42.67-137.72-129.96 32.98-5.82 122.2-116.38-1.94-32.97 137.71 133.83 40.73 60.13-104.74 98.92 60.13 104.74-98.92-102.8-102.8-102.8 60.13-58.19-102.8-139.65 34.91 40.73 139.65 116.38 1.94v116.38l139.65 36.86 34.92-139.66-100.86-60.13 56.25-98.92-102.81-102.8-96.98 100.86 60.13 104.74-98.92 54.31 29.09 141.6 143.54-36.86-3.88-118.32 118.32 1.94 34.91-139.65-135.77-38.79-56.25 98.92-102.81-54.31-106.68 100.86z" class="st2" fill="none" stroke="#fed800" stroke-width="3" stroke-miterlimit="10"/>
		</g>
		<g>
			<path d="M1578.37 2523.48l100.86-58.18 62.07 100.86 133.83-34.92-36.85-139.65h-110.56l-5.82-122.2-143.53-32.97-36.86 137.71 103.77 57.22-56.25 102.8 100.87 102.8 100.86-102.8-52.37-96.98 98.92-64.01-42.67-137.71-129.96 32.97-5.82 122.2-116.38-1.94-32.97 137.71 133.83 40.74 60.13-104.74 98.93 60.13 104.74-98.93-102.8-102.8-102.81 60.13-58.19-102.8-139.65 34.91 40.73 139.66 116.38 1.94v116.38l139.66 36.85 34.91-139.66-100.86-60.12 56.25-98.93-102.8-102.8-96.99 100.86 60.13 104.75-98.92 54.31 29.1 141.59 143.53-36.85-3.88-118.32 118.32 1.94 34.91-139.66-135.77-38.79-56.25 98.92-102.8-54.31-106.68 100.86z" class="st2" fill="none" stroke="#fed800" stroke-width="3" stroke-miterlimit="10"/>
			<path d="M1652.06 2671.65l12.62-43.5 26.91-27.95 30.62 33.54 11.86 38.73-43.58 9.89z" class="st2" fill="none" stroke="#fed800" stroke-width="3" stroke-miterlimit="10"/>
		</g>
		<g>
			<path d="M1382.46 2863.17l100.86-58.19 62.07 100.86 133.83-34.91-36.85-139.66h-110.56l-5.82-122.2-143.53-32.97-36.85 137.72 103.77 57.21-56.25 102.81 100.86 102.8 100.86-102.8-52.37-96.99 98.92-64-42.67-137.72-129.96 32.97-5.82 122.2-116.37-1.94-32.98 137.72 133.84 40.73 60.13-104.74 98.92 60.13 104.74-98.92-102.8-102.8-102.8 60.12-58.19-102.8-139.66 34.92 40.74 139.65 116.37 1.94v116.38l139.66 36.85 34.91-139.65-100.86-60.13 56.25-98.92-102.8-102.8-96.98 100.86 60.13 104.74-98.93 54.31 29.1 141.59 143.53-36.85-3.88-118.32 118.32 1.94 34.92-139.65-135.78-38.8-56.25 98.93-102.8-54.31-106.68 100.86z" class="st2" fill="none" stroke="#fed800" stroke-width="3" stroke-miterlimit="10"/>
			<path d="M1456.16 3011.34l12.61-43.5 26.91-27.96 30.63 33.54 11.86 38.73-43.58 9.9zM1650.12 2851.67l12.62 43.5 26.91 27.95 30.62-33.53 11.86-38.73-43.58-9.9z" class="st2" fill="none" stroke="#fed800" stroke-width="3" stroke-miterlimit="10"/>
		</g>
		<g>
			<path d="M1186.55 3202.85l100.86-58.19 62.07 100.86 133.84-34.91-36.86-139.65H1335.9l-5.81-122.2-143.54-32.98-36.85 137.72 103.77 57.22-56.25 102.8 100.86 102.8 100.86-102.8-52.37-96.98 98.92-64.01-42.67-137.72-129.95 32.98-5.82 122.2-116.38-1.94-32.98 137.71 133.84 40.73 60.13-104.74 98.92 60.13 104.74-98.92-102.8-102.8-102.8 60.13-58.19-102.8-139.66 34.91 40.74 139.65 116.38 1.94v116.38l139.65 36.86 34.91-139.66-100.86-60.13 56.25-98.92-102.8-102.8-96.98 100.86 60.13 104.74-98.92 54.31 29.09 141.6 143.53-36.86-3.87-118.32 118.31 1.94 34.92-139.65-135.78-38.79-56.25 98.92-102.8-54.31-106.68 100.86z" class="st2" fill="none" stroke="#fed800" stroke-width="3" stroke-miterlimit="10"/>
			<path d="M1260.25 3351.02l12.62-43.5 26.9-27.95 30.63 33.53 11.86 38.73-43.58 9.9zM1454.21 3191.35l12.62 43.51 26.91 27.95 30.62-33.54 11.86-38.73-43.58-9.89z" class="st2" fill="none" stroke="#fed800" stroke-width="3" stroke-miterlimit="10"/>
		</g>
		<g>
			<path d="M990.64 3542.53l100.87-58.18 62.06 100.86 133.84-34.92-36.85-139.65H1140l-5.82-122.2-143.54-32.97-36.85 137.71 103.77 57.22-56.25 102.8 100.86 102.8 100.86-102.8-52.37-96.98 98.93-64.01-42.68-137.71-129.95 32.97-5.82 122.2-116.38-1.94-32.97 137.71 133.83 40.74 60.13-104.74 98.92 60.12 104.74-98.92-102.8-102.8-102.8 60.13-58.19-102.8-139.65 34.91 40.73 139.66 116.38 1.94v116.38l139.65 36.85 34.92-139.66-100.86-60.12 56.24-98.93-102.8-102.8-96.98 100.86 60.13 104.74-98.92 54.31 29.09 141.6 143.54-36.85-3.88-118.32 118.32 1.94 34.91-139.66-135.78-38.79-56.25 98.92-102.8-54.31-106.68 100.86z" class="st2" fill="none" stroke="#fed800" stroke-width="3" stroke-miterlimit="10"/>
			<path d="M1258.3 3531.04l12.62 43.5 26.91 27.95 30.63-33.53 11.85-38.74-43.57-9.89z" class="st2" fill="none" stroke="#fed800" stroke-width="3" stroke-miterlimit="10"/>
		</g>
		<g>
			<path d="M1774.82 2863.17l100.86-58.19 62.07 100.86 133.84-34.91-36.85-139.66h-110.56l-5.82-122.2-143.54-32.97-36.85 137.72 103.77 57.21-56.25 102.81 100.86 102.8 100.86-102.8-52.37-96.99 98.93-64-42.68-137.72-129.95 32.97-5.82 122.2-116.38-1.94-32.97 137.72 133.83 40.73 60.13-104.74 98.92 60.13 104.74-98.92-102.8-102.8-102.8 60.12-58.19-102.8-139.65 34.92 40.73 139.65 116.38 1.94v116.38l139.65 36.85 34.92-139.65-100.87-60.13 56.25-98.92-102.8-102.8-96.98 100.86 60.13 104.74-98.92 54.31 29.09 141.59 143.54-36.85-3.88-118.32 118.32 1.94 34.91-139.65-135.78-38.8-56.25 98.93-102.8-54.31-106.68 100.86z" class="st2" fill="none" stroke="#fed800" stroke-width="3" stroke-miterlimit="10"/>
		</g>
		<g>
			<path d="M1578.92 3202.85l100.86-58.19 62.07 100.86 133.83-34.91-36.85-139.65h-110.56l-5.82-122.2-143.53-32.98-36.86 137.72 103.77 57.22-56.25 102.8 100.87 102.8 100.86-102.8-52.37-96.98 98.92-64.01-42.67-137.72-129.96 32.98-5.82 122.2-116.38-1.94-32.97 137.71 133.83 40.73 60.13-104.74 98.92 60.13 104.75-98.92-102.81-102.8-102.8 60.13-58.19-102.8-139.65 34.91 40.73 139.65 116.38 1.94v116.38l139.66 36.86 34.91-139.66-100.86-60.13 56.25-98.92-102.8-102.8-96.99 100.86 60.13 104.74-98.92 54.31 29.09 141.6 143.54-36.86-3.88-118.32 118.32 1.94 34.91-139.65-135.77-38.79-56.25 98.92-102.8-54.31-106.69 100.86z" class="st2" fill="none" stroke="#fed800" stroke-width="3" stroke-miterlimit="10"/>
			<path d="M1652.61 3351.02l12.62-43.5 26.91-27.95 30.62 33.53 11.86 38.73-43.58 9.9z" class="st2" fill="none" stroke="#fed800" stroke-width="3" stroke-miterlimit="10"/>
		</g>
		<g>
			<path d="M1383.01 3542.53l100.86-58.18 62.07 100.86 133.83-34.92-36.85-139.65h-110.56l-5.82-122.2-143.53-32.97-36.86 137.71 103.78 57.22-56.25 102.8 100.86 102.8 100.86-102.8-52.37-96.98 98.92-64.01-42.67-137.71-129.96 32.97-5.82 122.2-116.38-1.94-32.97 137.71 133.84 40.74 60.12-104.74 98.93 60.12 104.74-98.92-102.8-102.8-102.8 60.13-58.19-102.8-139.66 34.91 40.73 139.66 116.38 1.94v116.38l139.66 36.85 34.91-139.66-100.86-60.12 56.25-98.93-102.8-102.8-96.98 100.86 60.12 104.74-98.92 54.31 29.1 141.6 143.53-36.85-3.88-118.32 118.32 1.94 34.91-139.66-135.77-38.79-56.25 98.92-102.8-54.31-106.68 100.86z" class="st2" fill="none" stroke="#fed800" stroke-width="3" stroke-miterlimit="10"/>
			<path d="M1690.2 3602.49l30.62-33.53 11.86-38.74-43.58-9.89-38.43 10.71" class="st2" fill="none" stroke="#fed800" stroke-width="3" stroke-miterlimit="10"/>
		</g>
		<g>
			<path d="M1775.37 3542.53l100.86-58.18 62.07 100.86 133.84-34.92-36.86-139.65h-110.56l-5.81-122.2-143.54-32.97-36.85 137.71 103.77 57.22-56.25 102.8L1886.9 3656l100.86-102.8-52.37-96.98 98.92-64.01-42.67-137.71-129.95 32.97-5.82 122.2-116.38-1.94-32.98 137.71 133.84 40.74 60.13-104.74 98.92 60.12 104.74-98.92-102.8-102.8-102.8 60.13-58.19-102.8-139.65 34.91 40.73 139.66 116.38 1.94v116.38l139.65 36.85 34.92-139.66-100.87-60.12 56.25-98.93-102.8-102.8-96.98 100.86 60.13 104.74-98.92 54.31 29.09 141.6 143.54-36.85-3.88-118.32 118.31 1.94 34.92-139.66-135.78-38.79-56.25 98.92-102.8-54.31-106.68 100.86z" class="st2" fill="none" stroke="#fed800" stroke-width="3" stroke-miterlimit="10"/>
		</g>
	</g>
	<path d="M585.86 1226.55L424.25 1416.9l-193.94 56.08 39.13 244.74-120.78 202.24 217.75 151.26 40.82 193.74L659 2232.67l161.61 91.78 144.6-8.5 148-93.47 231.36 42.48 52.74-205.64 199.03-180.15-98.67-164.85 18.72-207.35-227.96-98.57-112.27-163.15-323.22 76.48z" class="st0" fill="#11ad54"/>
	<path d="M1286.33 1895.93s20.9-47.56 53.41-76.56 65.02-40.6 89.4-41.76 67.34 1.16 83.59 30.16-7.55 69.02-10.45 73.08c-6.49 9.08-46.44 63.8-84.76 75.4s-70.82 18.56-105.65 10.44c-34.83-8.12-48.76-31.32-53.41-39.44-4.64-8.12-11.07-32.5-10.45-41.76.58-8.7 1.16-11.6 1.74-17.98l2.9-26.1s-13.93 11.6-23.22 33.64-12.77 34.8-15.09 40.6c-2.32 5.8-15.09 34.8-18.58 41.76-3.48 6.96-12.77 25.52-16.25 30.16-3.48 4.64-16.25 27.84-19.74 32.48-3.48 4.64-22.06 33.64-51.09 35.96-29.03 2.32-76.63 4.64-103.33-8.12 0 0 35.99-5.8 49.92-10.44s34.83-10.44 51.09-20.88 35.99-23.2 47.6-38.28c11.61-15.08 37.15-47.56 42.96-68.44s32.51-77.71 37.15-84.67c4.64-6.96 19.74-26.68 38.31-30.16 0 0-12.77 46.4-12.77 60.32s-1.16 34.8 25.54 51.04c26.7 16.24 83.59 19.72 103.33 16.24 19.74-3.48 82.43-11.6 91.72-39.44 9.29-27.84 2.32-42.92-3.48-48.72-5.81-5.8-26.7-20.88-48.76-20.88s-52.16 3.91-75.47 20.88c-34.23 24.93-65 61.47-66.16 61.47z" class="st4" fill="#fed800"/>
	<path d="M1294.46 1626.83c-17.42-5.8-78.95 1.16-78.95 1.16 0-17.4-12.77-86.99-17.42-110.19-4.64-23.2-6.97-48.72-9.29-88.15-2.32-39.44 27.28-100.33 27.28-100.33s-44.12 45.24-51.09 88.15c-6.97 42.92-5.81 85.83 4.64 138.03s15.73 66.06 13.93 85.83c-.58 6.38-26.12 19.14-49.34 37.7-23.22 18.56-24.38 11.6-24.38 11.6 19.74-73.08-8.13-184.43-15.09-233.14s15.09-120.63 15.09-120.63c-24.38 27.84-41.8 77.71-45.28 114.83-3.48 37.12 16.25 107.87 20.9 138.03 4.64 30.16 4.64 80.03-3.48 120.63-7.35 36.73-47.03 78.23-54.51 85.78-59.32 5.5-105.71 7.02-105.71 7.02 149.77 68.44 280.97-1.16 280.97-1.16-3.43 23.98-13.61 62.57-13.92 63.77.64-1.14 21.05-37.44 31.34-59.13 10.45-22.04 46.44-39.44 63.86-52.2s39.48-49.88 46.44-77.71c6.97-27.86-18.58-44.09-35.99-49.89zm-246.2 167.23c33.11-76.54 139.52-119.6 145.19-116.2 5.81 3.48 10.45 89.31 10.45 89.31-44.99 12.99-103.54 21.47-155.64 26.89zm242.71-70.96c-10.45 26.68-61.53 31.32-61.53 31.32 4.64-26.68 0-82.35 0-82.35 16.25-1.16 20.9-2.32 37.15 0s34.83 24.35 24.38 51.03z" class="st4" fill="#fed800"/>
	<path d="M1175.45 1835.03s-47.6 95.11-99.85 136.87c-52.25 41.76-106.82 55.68-124.23 54.52s-35.99-11.6-48.76-31.32c-12.77-19.72-9.29-9.28-15.09-1.16s-22.06 30.16-31.35 27.84c-9.29-2.32-23.22-22.04-24.38-38.28-1.16-16.24-5.81-6.96-11.61 4.64s-13.93 31.32-29.03 32.48c-15.09 1.16-16.25-6.96-24.38-18.56s-6.97-4.64-15.09 5.8c-8.13 10.44-12.77 13.92-22.06 13.92s-22.06-6.96-30.19-34.8c-8.13-27.84-5.81-22.04-17.42-5.8-11.61 16.24-22.06 37.12-41.8 38.28s-56.31-5.22-71.4-72.5 18.58-151.95 18.58-151.95-12.77 110.19 0 139.19 35.99 46.4 65.02 37.12 59.21-64.96 59.21-64.96-12.77 39.44 0 55.68c12.77 16.24 45.28 24.36 63.86-24.36 0 0 1.16 30.16 16.25 32.48 15.09 2.32 41.8-24.36 49.92-54.52 0 0-2.32 52.2 20.9 54.52s46.44-45.24 48.76-52.2c0 0-9.29 53.36 30.19 54.52 39.48 1.16 84.76-10.44 98.69-19.72 13.93-9.28 0-8.12-6.97-8.12s-13.93-9.28-2.32-30.16c11.61-20.88 15.09-30.16 37.15-31.32 22.06-1.15 81.28-12.75 107.4-48.13z" class="st4" fill="#fed800"/>
	<path d="M1028 1582.17c-30.19-45.24-40.64-45.24-61.53-47.56-20.9-2.32-34.83 20.88-45.28 42.92s-17.42 70.76 0 83.51 50.89 8.37 62.7 9.28c7.55.58 22.64 7.54 24.96 28.42 2.32 20.88-25.54 32.48-62.7 44.08s-149.77 12.76-196.22 11.6c-46.44-1.16-84.76-18.56-109.14-56.84-24.38-38.28 1.16-92.79-3.48-133.39-4.64-40.6-23.22-56.84-89.4-60.32s-98.69 88.15-98.69 88.15c-99.85 40.6-107.98 146.15-106.82 179.79s41.8 193.71 65.02 269.1c23.22 75.4 3.48 179.79 3.48 179.79 9.29-11.6 29.03-55.68 38.31-105.55 9.29-49.88-44.12-216.91-44.12-216.91-51.09-148.47-33.67-211.11-33.67-211.11 59.21-51.04 71.98-45.24 71.98-45.24 8.13 93.95 70.82 88.15 94.04 80.03 23.22-8.12 24.38-58 20.9-97.43-3.48-39.44-77.79-37.12-77.79-37.12 18.58-42.92 89.4-41.76 121.91-25.52 32.51 16.24 23.22 45.24 22.06 64.96-1.16 19.72-13.93 74.24 12.77 119.47 26.7 45.24 73.15 56.84 183.44 60.32s158.48-40.02 184.02-67.86 53.44-111.33 23.25-156.57zm-49.34 40.02c-30.19 0-39.48 3.48-51.09-9.28-11.61-12.76 5.81-32.48 27.86-33.64 22.06-1.16 53.41 42.92 53.41 42.92h-30.18zm-427.27 42.91s-5.81 22.04-32.51 17.4c-26.7-4.64-60.37-13.92-62.7-41.76.01.01 67.35-18.55 95.21 24.36z" class="st4" fill="#fed800"/>
	<path d="M449.8 1786.32l20.9-39.44s87.08 18.56 22.06 84.67c0 0 1.74-31.9-42.96-45.23zM529.64 1903.47l-20.9 39.44s-87.08-18.56-22.06-84.67c0-.01-1.74 31.89 42.96 45.23zM713.36 1597.25l30.19-34.8s48.76 32.48 32.51 58-18.58 25.52-18.58 25.52-15.68-23.78-44.12-48.72zM800.44 1597.25l30.19-34.8s48.76 32.48 32.51 58c-16.25 25.52-18.58 25.52-18.58 25.52s-15.68-23.78-44.12-48.72z" class="st4" fill="#fed800"/>
</svg>